<mxfile host="Electron" modified="2023-05-01T08:33:22.370Z" agent="Mozilla/5.0 (X11; Linux x86_64) AppleWebKit/537.36 (KHTML, like Gecko) draw.io/21.2.1 Chrome/112.0.5615.87 Electron/24.1.2 Safari/537.36" etag="Mr8rH12Nx30c_OpPgw41" version="21.2.1" type="device">
  <diagram name="Page-1" id="JDspiSHS8DjCQqcp8bb_">
    <mxGraphModel dx="1428" dy="832" grid="1" gridSize="10" guides="1" tooltips="1" connect="1" arrows="1" fold="1" page="1" pageScale="1" pageWidth="1169" pageHeight="827" background="#DEDEDE" math="0" shadow="1">
      <root>
        <mxCell id="0" />
        <mxCell id="1" parent="0" />
        <mxCell id="ENogYHpUZDeIYP6TP7af-1" value="" style="group" parent="1" vertex="1" connectable="0">
          <mxGeometry x="80" y="82" width="990" height="650" as="geometry" />
        </mxCell>
        <mxCell id="ENogYHpUZDeIYP6TP7af-2" value="" style="rounded=1;whiteSpace=wrap;html=1;arcSize=3;" parent="ENogYHpUZDeIYP6TP7af-1" vertex="1">
          <mxGeometry width="990" height="650" as="geometry" />
        </mxCell>
        <mxCell id="ENogYHpUZDeIYP6TP7af-3" value="" style="rounded=1;whiteSpace=wrap;html=1;arcSize=4;fillColor=#b1afaf;fontColor=#333333;strokeColor=#666666;" parent="ENogYHpUZDeIYP6TP7af-1" vertex="1">
          <mxGeometry x="218" y="90" width="660" height="494" as="geometry" />
        </mxCell>
        <mxCell id="ENogYHpUZDeIYP6TP7af-5" value="" style="shape=image;verticalLabelPosition=bottom;labelBackgroundColor=default;verticalAlign=top;aspect=fixed;imageAspect=0;image=data:image/png,iVBORw0KGgoAAAANSUhEUgAAAZAAAADICAYAAADGFbfiAAAMYWlDQ1BJQ0MgUHJvZmlsZQAASImVVwdck0cbv3dkkrACEZAR9hJFZgAZIawIAjIFUQlJIGHEmBBU3NRSBesWURwVrYpYtFoBqQMRt0Vx76KIilKLAxcq32VArf3G73t+v3vv/z733P8Zuct7B4BeB18my0f1ASiQFsoTIkNZE9LSWaSHgASoAAG2wIYvUMg48fExAMpg/3d5cw1aQrnspuL65/h/FUOhSCEAAMmAOEuoEBRA3AwAXiKQyQsBIIZBve30QpkKiyE2ksMAIZ6twjkavFyFszR4m9omKYELcSMAZBqfL88BQLcV6llFghzIo/sQYnepUCIFQM8I4iCBmC+EOAniEQUFU1V4PsRO0F4G8U6I2VlfcOb8jT9riJ/PzxnCmrzUQg6TKGT5/Jn/Z2n+txTkKwd9OMBGE8ujElT5wxreyJsarcI0iHukWbFxqlpD/E4i1NQdAJQqVkYla+xRc4GCC+sHmBC7C/lh0RCbQxwhzY+N0eqzsiURPIjhakFnSAp5Sdq5i0SK8EQt5wb51IS4QZwt53K0c+v4crVflX2rMi+Zo+W/IRbxBvlfF4uTUiGmAoBRiyQpsRDrQmykyEuM1thgNsVibuygjVyZoIrfDmK2SBoZquHHMrLlEQlae1mBYjBfrFQs4cVqcWWhOClKUx9sl4Cvjt8E4nqRlJM8yCNSTIgZzEUoCgvX5I61iaTJ2nyxe7LC0ATt3F5ZfrzWHieL8iNVehuIzRRFidq5+JhCuDg1/HiMrDA+SRMnnpnLHxuviQcvAjGAC8IACyhhywJTQS6QtPU09MA3zUgE4AM5yAEi4KbVDM5IVY9I4TMRFIM/IBIBxdC8UPWoCBRB/achrebpBrLVo0XqGXngEcQFIBrkw3elepZ0yFsKeAg1kn94F8BY82FTjf1Tx4GaGK1GOcjL0hu0JIYTw4hRxAiiM26GB+EBeAx8hsDmgbNxv8Fo/7InPCK0Ex4QrhI6CDenSErkX8UyDnRA/ghtxllfZow7QE5vPBQPhOyQGWfiZsAN94J+OHgw9OwNtVxt3KrcWf8mz6EMvqi51o7iTkEpwyghFKevZ+q66HoPsagq+mV9NLFmDVWVOzTytX/uF3UWwj76a0tsEbYfO4Udw85gh7AGwMKOYo3YeeywCg+toYfqNTToLUEdTx7kkfzDH1/rU1VJhXute7f7R+0YKBTNKFRtMO5U2Uy5JEdcyOLAr4CIxZMKRo5gebh7uAOg+qZo/qZeMdXfCoR59i/dAhEAY2oGBgYO/6WLWQrAgQVwm/f9pXPqBIB+DYDTswRKeZFGh6seBPhvoAd3lCmwhF8sJ5iRB/ABASAEhIOxIA4kgTQwGdZZDNezHEwHs8ECUArKwXKwBqwHm8FWsBP8BPaBBnAIHAMnwTlwEVwFt+H66QLPQC94A/oRBCEhdISBmCJWiD3iinggbCQICUdikAQkDclEchApokRmI98g5chKZD2yBalBfkYOIseQM0g7chO5j3QjL5EPKIbSUCPUAnVAR6FslINGo0noJDQHnYYWowvRpWglWo3uRuvRY+g59CragT5D+zCA6WBMzBpzw9gYF4vD0rFsTI7NxcqwCqwaq8Oa4C99GevAerD3OBFn4CzcDa7hKDwZF+DT8Ln4Enw9vhOvx1vxy/h9vBf/TKATzAmuBH8CjzCBkEOYTiglVBC2Ew4QTsDd1EV4QyQSmURHoi/cjWnEXOIs4hLiRuIeYjOxndhJ7CORSKYkV1IgKY7EJxWSSknrSLtJR0mXSF2kd2QdshXZgxxBTidLySXkCvIu8hHyJfJjcj9Fn2JP8afEUYSUmZRllG2UJsoFSheln2pAdaQGUpOoudQF1EpqHfUE9Q71lY6Ojo2On854HYnOfJ1Knb06p3Xu67ynGdJcaFxaBk1JW0rbQWum3aS9otPpDvQQejq9kL6UXkM/Tr9Hf6fL0B2py9MV6s7TrdKt172k+1yPomevx9GbrFesV6G3X++CXo8+Rd9Bn6vP15+rX6V/UP+6fp8Bw2C0QZxBgcESg10GZwyeGJIMHQzDDYWGCw23Gh437GRgDFsGlyFgfMPYxjjB6DIiGjka8YxyjcqNfjJqM+o1NjT2Mk4xnmFcZXzYuIOJMR2YPGY+cxlzH/Ma88Mwi2GcYaJhi4fVDbs07K3JcJMQE5FJmckek6smH0xZpuGmeaYrTBtM75rhZi5m482mm20yO2HWM9xoeMBwwfCy4fuG3zJHzV3ME8xnmW81P2/eZ2FpEWkhs1hncdyix5JpGWKZa7na8ohltxXDKshKYrXa6qjVU5Yxi8PKZ1WyWlm91ubWUdZK6y3Wbdb9No42yTYlNnts7tpSbdm22barbVtse+2s7MbZzbartbtlT7Fn24vt19qfsn/r4OiQ6vCdQ4PDE0cTR55jsWOt4x0nulOw0zSnaqcrzkRntnOe80bniy6oi7eL2KXK5YIr6urjKnHd6No+gjDCb4R0RPWI6240N45bkVut2/2RzJExI0tGNox8PspuVPqoFaNOjfrs7u2e777N/fZow9FjR5eMbhr90sPFQ+BR5XHFk+4Z4TnPs9HzhZerl8hrk9cNb4b3OO/vvFu8P/n4+sh96ny6fe18M303+F5nG7Hj2UvYp/0IfqF+8/wO+b339/Ev9N/n/2eAW0BewK6AJ2Mcx4jGbBvTGWgTyA/cEtgRxArKDPohqCPYOpgfXB38IMQ2RBiyPeQxx5mTy9nNeR7qHioPPRD6luvPncNtDsPCIsPKwtrCDcOTw9eH34uwiciJqI3ojfSOnBXZHEWIio5aEXWdZ8ET8Gp4vWN9x84Z2xpNi06MXh/9IMYlRh7TNA4dN3bcqnF3Yu1jpbENcSCOF7cq7m68Y/y0+F/HE8fHj68a/yhhdMLshFOJjMQpibsS3ySFJi1Lup3slKxMbknRS8lIqUl5mxqWujK1Y8KoCXMmnEszS5OkNaaT0lPSt6f3TQyfuGZiV4Z3RmnGtUmOk2ZMOjPZbHL+5MNT9Kbwp+zPJGSmZu7K/MiP41fz+7J4WRuyegVcwVrBM2GIcLWwWxQoWil6nB2YvTL7SU5gzqqcbnGwuELcI+FK1kte5Eblbs59mxeXtyNvID81f08BuSCz4KDUUJonbZ1qOXXG1HaZq6xU1jHNf9qaab3yaPl2BaKYpGgsNIKH9/NKJ+W3yvtFQUVVRe+mp0zfP8NghnTG+ZkuMxfPfFwcUfzjLHyWYFbLbOvZC2bfn8OZs2UuMjdrbss823kL53XNj5y/cwF1Qd6C30rcS1aWvP4m9ZumhRYL5y/s/Dby29pS3VJ56fXvAr7bvAhfJFnUtthz8brFn8uEZWfL3csryj8uESw5+/3o7yu/H1iavbRtmc+yTcuJy6XLr60IXrFzpcHK4pWdq8atql/NWl22+vWaKWvOVHhVbF5LXatc21EZU9m4zm7d8nUf14vXX60KrdqzwXzD4g1vNwo3XtoUsqlus8Xm8s0ffpD8cGNL5Jb6aofqiq3ErUVbH21L2XbqR/aPNdvNtpdv/7RDuqNjZ8LO1hrfmppd5ruW1aK1ytru3Rm7L/4U9lNjnVvdlj3MPeV7wV7l3qc/Z/58bV/0vpb97P11v9j/suEA40BZPVI/s763QdzQ0ZjW2H5w7MGWpoCmA7+O/HXHIetDVYeNDy87Qj2y8MjA0eKjfc2y5p5jOcc6W6a03D4+4fiV1vGtbSeiT5w+GXHy+CnOqaOnA08fOuN/5uBZ9tmGcz7n6s97nz/wm/dvB9p82uov+F5ovOh3sal9TPuRS8GXjl0Ou3zyCu/KuauxV9uvJV+7cT3jescN4Y0nN/NvvrhVdKv/9vw7hDtld/XvVtwzv1f9u/Pvezp8Og7fD7t//kHig9udgs5nDxUPP3YtfER/VPHY6nHNE48nh7ojui8+nfi065nsWX9P6R8Gf2x47vT8lz9D/jzfO6G364X8xcDLJa9MX+147fW6pS++796bgjf9b8vemb7b+Z79/tSH1A+P+6d/JH2s/OT8qelz9Oc7AwUDAzK+nK8+CmCwodnZALzcAc8JaQAwLsLzw0TNnU8tiOaeqkbgP2HNvVAtPgDUwU51XOc2A7AXNscQyA3fVUf1pBCAenoONa0osj09NFw0eOMhvBsYeGUBAKkJgE/ygYH+jQMDn+AdFbsJQPM0zV1TJUR4N/hBzXGJmb8FfCWae+gXOX7dA1UEXuDr/l/n/olfIG3N+AAAAJZlWElmTU0AKgAAAAgABQESAAMAAAABAAEAAAEaAAUAAAABAAAASgEbAAUAAAABAAAAUgEoAAMAAAABAAIAAIdpAAQAAAABAAAAWgAAAAAAAACQAAAAAQAAAJAAAAABAAOShgAHAAAAEgAAAISgAgAEAAAAAQAAAZCgAwAEAAAAAQAAAMgAAAAAQVNDSUkAAABTY3JlZW5zaG90rXXQwQAAAAlwSFlzAAAWJQAAFiUBSVIk8AAAAnRpVFh0WE1MOmNvbS5hZG9iZS54bXAAAAAAADx4OnhtcG1ldGEgeG1sbnM6eD0iYWRvYmU6bnM6bWV0YS8iIHg6eG1wdGs9IlhNUCBDb3JlIDUuNC4wIj4KICAgPHJkZjpSREYgeG1sbnM6cmRmPSJodHRwOi8vd3d3LnczLm9yZy8xOTk5LzAyLzIyLXJkZi1zeW50YXgtbnMjIj4KICAgICAgPHJkZjpEZXNjcmlwdGlvbiByZGY6YWJvdXQ9IiIKICAgICAgICAgICAgeG1sbnM6ZXhpZj0iaHR0cDovL25zLmFkb2JlLmNvbS9leGlmLzEuMC8iCiAgICAgICAgICAgIHhtbG5zOnRpZmY9Imh0dHA6Ly9ucy5hZG9iZS5jb20vdGlmZi8xLjAvIj4KICAgICAgICAgPGV4aWY6VXNlckNvbW1lbnQ+U2NyZWVuc2hvdDwvZXhpZjpVc2VyQ29tbWVudD4KICAgICAgICAgPGV4aWY6UGl4ZWxYRGltZW5zaW9uPjEyMzQ8L2V4aWY6UGl4ZWxYRGltZW5zaW9uPgogICAgICAgICA8ZXhpZjpQaXhlbFlEaW1lbnNpb24+NjE4PC9leGlmOlBpeGVsWURpbWVuc2lvbj4KICAgICAgICAgPHRpZmY6T3JpZW50YXRpb24+MTwvdGlmZjpPcmllbnRhdGlvbj4KICAgICAgICAgPHRpZmY6UmVzb2x1dGlvblVuaXQ+MjwvdGlmZjpSZXNvbHV0aW9uVW5pdD4KICAgICAgPC9yZGY6RGVzY3JpcHRpb24+CiAgIDwvcmRmOlJERj4KPC94OnhtcG1ldGE+CtWOC7UAAEAASURBVHgB7X0HfF3Flf55TcUqVpfc5d6wwaZD6J1QDAupGyCbhJBNQsiGJeUPbHrZLMluQrKbQEJCCklISAi9hARC6GAMxjZusixbtorV+2v/7zv33ucnWZKlZ2OkpzM/6ZX77syd+WbmnDllzvieO+eyuFgyBAwBQ8AQMARGiYB/lPfb7YaAIWAIGAKGgCJgDMQGgiFgCBgChkBKCBgDSQk2y2QIGAKGgCFgDMTGgCFgCBgChkBKCBgDSQk2y2QIGAKGgCFgDMTGgCFgCBgChkBKCBgDSQk2y2QIGAKGgCFgDMTGgCFgCBgChkBKCBgDSQk2y2QIGAKGgCFgDMTGgCFgCBgChkBKCBgDSQk2y2QIGAKGgCFgDMTGgCFgCBgChkBKCBgDSQk2y2QIGAKGgCFgDMTGgCFgCBgChkBKCBgDSQk2y2QIGAKGgCFgDMTGgCFgCBgChkBKCBgDSQk2y2QIGAKGgCFgDMTGgCFgCBgChkBKCBgDSQk2y2QIGAKGgCFgDMTGgCFgCBgChkBKCBgDSQk2y2QIGAKGgCFgDMTGgCFgCBgChkBKCBgDSQk2y2QIGAKGgCFgDMTGgCFgCBgChkBKCBgDSQk2y2QIGAKGgCFgDMTGgCFgCBgChkBKCARTymWZDIFxgECcddQXvPsOsMIsB2UcaDEHWAvLbgiMKQSMgYyp7rDKHCwESO8pXgcDDsmPxj1OMvonsAS/3ydxlBFBMS4vGX1BlsMQSDMEjIGkWYdacxwCHwTV74uJbG+LSH1PTNr74oKvKkGMlJWQcfDeEDhRQYZPKiYFpCzbr4wpih8c1mSIGwITFwFjIBO379Oy5R7Br+2MyRO1fVKDdxL6ECSIVJIP2WKQPMiMQr6ILCsKyEkVIckGhzImkgqiliedEDAGkk69OcHbQuZByaOuKyZ3V/VKOBaXokyf9EZFekDt+fto2Qg1X+Q9k0M+CUISeaEhgvLicv6MTCFzsWQITGQEjIFM5N5Ps7aTnoNnyDN1YSXyk6F2aguLzMrxSWl2YNTMw4MnTFUYJJnm3rhMmeSTNU1RmZtPaSQkfWAmxkg8pOx9oiFgDGSi9XiatteTPhph76juiEk+JIY22D1OmxqSFcUhlSL2EnqyGuZg8sQI77tzNfmVUkgXrOeP7+yTre1O2etborKwIGjMIxko+zzhEDAGMuG6PE0bDCLvh4qpIxyXXoghIXhf5YKJLAaRpwqKUsReBpLMLJI/D8CGPyEvGUh+hl8OKwrKupZeyXOZE1VZk8wWMgA0+zqREDAGMpF6O+3b6lMVFoULqrJI6Mk0+DklG7onnOA9ikIyUAj/URwM6LCp8IMlQ2ACI2AMZAJ3fro2vT9dd7hA4ho+JD4PA4DHOzwJRH13cf9I8g5TrP1kCKQVAsZA0qo7rTH7IAAxwQcxJIAfKIU4jCH5dZ8cCSahflvgGHDichPK8j7auyFgCIgxEBsEaYUAJQQSeaqXqL4KUuWEz7SNdMAQTrsF3Xt1RzlvHiSR0XDfCDcQZsOWMgmqsMkwsARR4BBZBinFLhkC6Y+AMZD07+MJ0UISdkoMJP78zPc+iA7P1vVJQ09cd6N3RRx7CDcGOvcPDg2yqsbKD4bBcvLhDjwN7rtkKplgKmRImvgs77N7yd4MgYmEgDGQidTbadpWEnES+hAIPqUL0nSGwKLr7fPY+KfGb+iwsBVEw5nE4zC2E4shiD8lF/ypBMNyKLWsb3HKZRn4qv80zmfghlQ3KbIKlgyB8YyAMZDx3HtWd+UBIRD1bkgXrzf1ycuNEXXfJTQBSAvYL64EvgfSCL2yuD8EHrlK+Ml0BktRcBe6AnMHO/eSdINjcBd6FpgF8/CfbsEP1/TKMaUhmZkXUIkl0s9VeLCS7ZohkF4IGANJr/6cMK2h8ED6TzvF1rao/H13WHZitzjVTSTwbbB5+HHHdOxCn5sf1CCIBeAcmWA2nmqK+QdLlCz0H+ypE+U098akFuFRNrfFoA6LqUQzCTOntisuv93aK0sLA3JieYYUZ/ltZ/pggNq1tEXA99w5l3EuWjIExg0CHLDgG6piWt0Ylod3hFXqoHqpBRIDDedHFAdk0eSgEvVMSA40f1P15Nks9jfolbnghc8hw6HdpBMqsd1gJGuaIrKxNaqbCPnMZjyT0s2FMzNkZm4QgRfNW2vcDCar6AEhYAzkgOCzzIcaAWUeIOyUEP6KaLsMblia5dNouZQWjiwJgnkEpQTSAG0ZVEfhz7F34Dv+Rpw8JkOmw7JoDwngAxlETUdUnq8PSxXCphQjYCOj9dLmcgGYyNLCkNpi+KDRPG/EFbMbDYExgoCpsMZIR1g19o+AMg/cRoJO5kED+ZRsn7T20VNKNELuHNgjSLTBSxzOgS9KxFOg5F4WMg8mNZ5TusB3qsWm4nyQVyABPY3gjTmufeVP2/q0fhpokVzOkiGQxggYA0njzk2nppEUk47zned8vAjmUQHm0QgX3Vl5fmUetHFQOmBSmu8Sfr1wEF6Sy6RnFu0vJ1ZkINKvX+6t7lPjfDGkoT/jM2txWGFQ95sc5GochJZYEYbAwUGAKl5LhsC4QICeUC81hOXZ+oiUg3k0Ibz6koKAXDIrS72rSNRJrEdKsEnkyW8o0ST+R4gEDfVUjTGc+wLYWt43N1MZCveeFLlMpBpqLnp8mSAyQlDttnGHgDGQcddlE6/CJO7cy7GtPSp/2xVWtRWZx1xIHufiYCd6VtGtlkR9JImMg4mHT9HAzr0c3j/tHPzdu0dvHOKFj6M6i4xreg4YWWWmShz4qkb1x3eG1RuMjG8k5Q3xGLtsCIxZBIyBjNmusYoRARJe7udog5X6MZzHkQOq341VPs8mPwfMg2qk0TIPmCuU2TTBPXdDSxh2jD55dU+fbMH56TSEs0yPkYykF8i4uJlwCmwi9MRi2JQsMDWeTfIs7COWDIF0RcBsIOnas2nULhLo1XvCGpKEHk88ZfDsaRlQW/l19T8ayYPMob47hg2HYdnUGtP4WLikjAqP0SNwl+PcD/7z3PORbg5kHWh/oTrrxPKoPLUrAk8wn25sXAQ128zcgITB+DyDfBp1jzVlAiNgDGQCd/5YbzqlD0oLDsGPKnHnsbI8ZXBqjrNpb7TMY0NLRO7fHtZ9Hdy7UYCNh9xxznIY54ruuI/XhmUjNideNDNTeCwuhJIR21UiYCJHlWTAzTeG+FtxVZG9DIM/PbaMeYz1EWf1Gy0CXHxZMgTGLAI0VK/eE9F9FZQG6PG0DN5NapimyDCCpIwII502lHvgZsvNf9yxrrvVUcbcfD+CJfpVNUZmQgM9Nwzet71XNw+OVJ3F6tD+QcnlhPIQwqvEoXITeRObDrlvhNIP7TmWDIF0QcAkkHTpyTRrB+ksjdyUODbi/HFKC9xlfkJ5EHsuRh4yhOWQAXCT4V9g1KYNhdJGO9Rgp00JyRIwI8a44n2tED+eg81iLZ5HVRnPVn8BmwVPm4pNJiNMLJsBHafCqD5/ckAlERrRN7RG4G4MzoXfLRkC6YKASSDp0pPp1g5QdIYQ2dEZVTsFJZFCSA3cwMfjZEdMiHErd49vgUpqN2wflD7IPM6fEZLjyjI0HAmhI13n7nV6da2A/YOMizaMNU1R2QNjOJkZmcxIkuc1RjsKAzGSaW2GvaUFRvvRlDOSZ9k9hsDbiYAxkLcTfXv2kAjQXkCj9GYQfkoIXZAg5mFFz2i6VBONdCHPcigRsJxJoN40wC8rCsjSgpBG3GVZXuIeDkorVD/R9sHf6F1VAyZGZjZiDoJbyeSmQi3GMCtUt/EwK+4LGVU5XsXs3RAYowgYAxmjHTORq0WaTlUQXWopNXCfByWQufmuITqJ6A+Hk1cOmQBddmmDoJF7ARiR+HC+B27AYxKJz6TBPBdMis+iDYOHSHHPCYMp9rs5kWvfDyyTzIcMi2osBmHkfhNG9CVjIS+yZAikAwLGQNKhF9OtDSC+JObc+9EJiYG0ezKIejHcpLiaHykh92Ch8Z2MgSmAgknYKU0MRchJ36nqIhNgPXg2CJ/L6yNObt5p8L5iXjIvhl3R3fLO40dclN1oCIxVBIyBjNWemeD1YgB2Gs25YifxL4RRm6qs0RByEnwyH67+mZeJEgjP96Aqib8Nlijt8NmUPng/bRjMPsTtgxWh3IZ1pfGfz+dEa0WZlEZs0g0OmV0dfwjYWB5/fZb+NVZiHVevKBJu7jSn9KFusKNsPZkBVWAMvEhVFpnBq3ALpnqM3lEk8mQM/OfnTDCNXVA1bYTRG8KDSiHlGhp+tBzEKZNReslEWA+6CNMbTCUfPtCSITDOETAGMs47MG2rDwLLnduktrQ/cG9FSgnlkAnNh/cWNwlmw3Gd7rn/qHPCrlM6YNH8p5TSjJse3dGn6iqqsIog+UyDS+6oPL/cilLCoQcYn8nPLINlUrqyZAikAwK2DyQdejEN26ArdogEXOHADALi7tgjRqdHUv6jEgzPLV8EgzZPEvRCjLRDGliBw6fyETKXTKoOBvtnsA+Enlq5IRxZ2xmXi2dlSB48skYbhoQsArxCpRzucGd7+J02EEuGQLogYAwkXXoyjdpB4kt1khdiJA7qy2i5aljgUn6UC3iSbGY/A/Gzmvt6dV9HASSLre0x7BLvVaM6n0evK3pgcfd4Hc47P2WKExNrpPGwBusCPpe2FDIoVhvmFyeNsg2DlW3XDIG3GwFTYb3dPWDPHxIBEv6DkUirebQtPbkun50ps3L9yiDoYUX7BCcB7SGUNHqgNmuAt9TpiLd18hRnB/rBqsfBaIuVYQiMJQRMAhlLvWF1ecsQoOGaxngyjFWVWVBlRWRdcwSBGuNqGyGTmYTZsLjAibU1HdFzKZWQefA3S4aAIbAvAsZA9sXErqQpAmQidAmmwXx5UUgWIvQ67SD0ziKT8DymKJlQbWXMI00HgjXroCFgDOSgQWkFjQcEyCjIGHgULe0T9LLykbMgUeLgv+MpZZKHgmIvhsAwCBgDGQYc+yl9ESDPICOhRKIf3KaSlTjsxL3wFrzxkZYMgXRAwBhIOvRiGrXBI65KyN9qSg7cDsEj+vWO8zw3Dtehfni/mtgXQ+DAETAvrAPH0Eo4SAiQeZCmZsAIwc80ervapYP0hLe3GLaFkYEZRsXbVe8xzLe3ZvZ0QyA1BEwCSQ03y3WQESAhhYOUekStaw7LehzqxJAi3ITXkQZUlnYV7jF5Ccfb8qyRxYUBnIIYUEbp2VwOMqRWnCHwliNgDOQth9gesD8ElHmAUZBhPLmrTzf4ZcPCjQ3i6ZN0I6FzvjpjcfGY3pUlQTm+LKQbGQ9ks2L6gGQtGW8IpNMUHW/YW32BADeWU2VVhQOffrm5F2dm4CRAeEbRG4oG7nQyE7At3F3PXfU8sOr5+gjOaO+VDrgScyMjGaklQ2A8IWAMZDz1VprVlQSTtgAeW3vPtj49g4Mxr/ZAxcNTA8sRQZcBEMc9E0ED6CpM5rGk0A/VlR/hVOJShvbt7IzJIwjeyHZyMhoTSbNBnubNMQaS5h08VptHQsnBx9Ahf9nZpwc3cQMfiewllRlyFuJW8eAnSiG8Pq4T2sA9J10wdsxAZN9LKjPl+PKgnnRYjCNv1yPA46t7wjjsaly30io/ARGwITsBO31MNBlENQjOwJAiNViFM4Ahd4WfPyMkSwtDyjhoXD5YAxRF6ep+yHf8MORvBwEwlk0mQi8sBlc8BXG2joQNhAb1Uqjsnq2L4MTCmO6S572WDIHxgIAZ0cdDL6VhHSlVMITIWsSjYnwqntZ3eFEQ55UH9TqbTMEjFWKqefjCAtw3MiK60fIS35mGOpcDuzT0d9pn+Cnxrld5Af9uWd6lkbyzHLrw8lwQFnFsaUi2wPZDAzqx2MRQ8+WoKX+0ZAiMAwSMgYyDTkq3KpI+0mjcAK+rXTCaM4hhb9Qnh8G1VYk7bnBp/LBNT9BZ94MyCGTkoPa5ei+SahJoqsL68EJCze/eUbk8n4Mh1slgeHIhD5jiIVCUFmifoTcYJSV+57tXL4Znp6EfWRMMhR+93/l5sMSqkokwlAqj/y4H03xqd1gPzNrWHoVnVsikkMGAs2tjEgFjIGOyW9K8UqCiJMVNoNxU6YRjPpkyyYeDnnDyHyjycESYBDhZAiBh97vMgueXkyG0Q5ppgVWaUg2Prm2FaqzDPY+8GzYWh4Ew7pWWtg/YykDAPMhAaIehei0fUhIJPo/ELYB/cQE/4wa6GvP5ZFTKUFCkFjtcI/BE7+dZiPob8EWUodJ5gPVl2WR43j37VNAuGAJjBAFjIGOkIyZUNUAZSbrpvkqpgTvOS7NBjN0zyAcjnA6t5y5uR3ohA+oDxW4GE2oGc9gD+0E9ThSsh3dTC75zhc+yQd8TEgS/k+EE8BwnOTvePT7C3/HXL5Ggd+CEQp5OGMGNrDfvJ2NhIMZy1LsU3lQ8s30yuAk3CwZQSTInVMFhJsgzsFw+hAyH6juefuiosZxDrQpRrj6IN1kyBMYwAsZAxnDnpHPV4iCwJM5kCCS23pG1lECSqS0JLwktVV6UDNpxQ7OqvmKyHWeb7wLT6AQjYuL+CkoELIuGak9VRanEYR7O705ZDmMB/dayWQIZGfOQUbAe/M5/qruYP4gXMiBKJvxOxrULIg0lH9atAOdPTcvxywxIFRVgLDwqdxIysI0sH2/9Eq/R84plRvCZz/FCyw+aoV9u+2IIvP0IGAN5+/tgwtaAK3QS1cGIqwcK7+Fqvwr2AZ5ZvhlG5+Zel+ngOhlGPlQ+JPRqz4CKinYMSgc8gZC/qboJ9+bhZodROYyAhN2zd7AOJOB8HhkW//mdzIneYZSWKNm040H0nGrtcxgNN0Gq1IGyWIc3W2PyWlMUIVggnUAtVwlmQlUaGRWq3S9p2/EcPMbBwX1uv5vsiyEwhhEwBjKGOyfdq0YCuu+6vH+rqTTKAkMgYeZKnzaIfKz0+2B07wa1576RXFyjDaUiO4DNeX4wD0eVRCJOSYFMgollkVg7n913EnB85B3JRnKvbiVZ/M1RdXlqqR5ITm3gFo1Ql5Gp8Z8bAyk9sAzaSyhZ8NqOzrDWnzG9vGc7T+7/6tXBucqnuxXtf5t9MwTGFALGQMZUd1hlBkOApJQEmIScBnGu+itgd6ABejo25hXiR0optKHwHhJ6CANKsD1JIkGPHc6QeIz3lc8YlMCzIGbGjbyX/3pyIR42Pcd5FjdDdihDcdRq27GznsyDfIteXFRRKTtgZkuGQBohYAwkjToznZtCYlyZ65dZeX5IG2AarjqKFJ2En6onqpD0i0uo+eZ+TPowNEqJe5NvGeQin8V/71lUo5Vk+SH9BGRhgWPb4abAnWAk22CnaYLKC7dYMgTSDgFjIGnXpenVIDWcQ+o4Y2pIji7NwEqelBsEHMwCl2GswD+IPOm80vpBCD5+Oqgp8Qj3A6tASUdfcI3S0Oy8oFTmBeRoSCf3be+RGsSkNyZyULvBChsDCBgDGQOdYFUYHgGu9mkHIb2muggarEPKMIavncu4eJPLUFRCAUchT6HHFj3CYi7j219Z9rshMJ4QMAYynnprgtaVdJkrfBJkj3mMZSiUj7hMTuuNiru8ZSxX2+pmCIwaAZOqRw2ZZXg7EHAdqRwu8nZUIMVnevUm87NkCKQbAsZA0q1HrT2GgCFgCBwiBIyBHCKg7TGGgCFgCKQbAsZA0q1HrT2GgCFgCBwiBIyBHCKg7TGGgCFgCKQbAsZA0q1HrT1jHgHPoO69j/kKWwUNgSEQMAYyBDB2+VAhQDLqklK8eUTVez9UtTi0z0nv1h1aLO1pbycCtg/k7UTfnq0IkJxyfwdP6gv4nBhS/MFzgdWbxvmLtw+EKzburvejnTyWhG1OtNO7KcFGx3mjrfppj4AxkLTv4jHcQBBMxrHKRuiPbe0x6Yn0aowpj6AyICHjTHXxsIxxnrg7nSFO1rdE9OArfmc7GZIFhycqA2UTHR7CV7JVS4bA2EbAGMjY7p+0rR1X3jyvoxPMoSDTOZxpNw5ncgio02xG1wXNHf+klG0Ap2So993dcalBkEWvnWQiiMGoicyUZ4vw3sQNaTsCrGHpgIAxkHToxXHYBh7WtGByEP9R2dIWc0Ox720I19/BuKPeIbHl/eMxsdpadZdjaJwsXPAYCLljK+J7UQo5dUpQo/raeejjsacnZp2NgUzMfn9bW+0wBOdcjUsqM6W6g6cM9mcQtIlswemDe3CdR9A2QZ3FlTnvShDft7UVwz+c9aS9oxfBsFrQBp5hwnDziyb792ESbOuUSX6ZijD1lgyB8YSAMZDx1FtpVFePifAc88UFITAGhzXwOg+Ecs4375OHasI4MMonbzRHZXlRTMpAZHki4FhnImxNBvRvW9oiemLhZBytS3XdMaUhPc+kD4yFajyPIbL9PI+d3y0ZAuMFAWMg46Wn0rCeDrOg+gZkUzmCQz6p8iFBnYkTBycFHQs6z/54bGefnDU9Q4pxAqEPxHesMhGPGW5rj8hfasN6gmEX1FQzcSBWPrwCuqjHYlPhiZVI+Eh7iCVDYDwhYAxkPPVWGtZVaeYAwklCShpbjFP+TigPykM7wlDvOAbouzb3ypLCAJgI7SMDMo4RfMgP9+BEwtchNfE420xoplr64nJUSVBtPWEwk32qPjabMkYQtWqMVQSMgYzVnrF6qYvripIQ7CAxeaE+iiNjHSq7ek8U6p6k1fsYxIoeV7khUbXUrq64XDAzpCcU0g6yD/MYg/W3KhkCI0HAGMhIULJ7DjkCZBWgtbo/4sypmZA4wvJMXUS6IZrQIJ0F+wKN1GONjXj15v4OnoVeANvHZbMzIDUFnT0uhxxJe6Ah8NYhYAzkrcPWSj5ABJQYg0PQS+mYspDMzQ+ox9burhgM0o7ReSwaQoIQMfIgfVRk+2VOfhB2D59KIgcIh2U3BMYcAsZAxlyXWIWSEfBW9DGs6ItgPC/JCuieEK7wKaGMxUSGR9sHQ5Zw/8qgNo+xWHGrkyEwSgSMgYwSMLv90CNAJsLEDXbclcfvtCOM1cHLauqGQde7zGweAMRSWiIwVudgWoJtjTowBDxG4pUy1uwfXr34rnUdWOHkG+yzIZAGCNAOackQMAQMAUPAEBg1AsZARg2ZZTAEDAFDwBAgAsZAbBwYAoaAIWAIpISAMZCUYLNMhoAhYAgYAsZAbAwYAoaAIWAIpISAMZCUYLNMhoAhYAgYAsZAbAwYAoaAIWAIpISAMZCUYLNMhoAhYAgYAsZAbAwYAoaAIWAIpISAMZCUYLNMhoAhYAgYAsZAbAwYAoaAIWAIpISAMZCUYLNMhoAhYAgYAsZAbAwYAoaAIWAIpISAMZCUYLNMhoAhYAgYAukZzj3gF18IR8LxFCKe7oNzGeK9YTfGtnW6IXDoEPBlYhzyQBCeDYKxGO/DOEzxPHdfCNM1EHDHtV/i4QgOScG/HThy6DrUntQPgfRjIJhM8Y5uCT+1XnwV2SJ1PeI7rFgCM8tEOOFssvUbAPblrUUgvLZaZGuHSHmmSHNYAifPEV8QTAAHY40qYdxGauoltqZO/NNyJbazS4InzRJf3iQwkaiN61GBaTcfLATSi4HoCi8iwRkVMv2+j0nu7EqJhcOy++HHpeWuB/YykYOFnpUzfhDwCLYfWlv8+yiZ8rOXIK3GKbFSOuA704EsNriQgbRRcu37pfiEYyWYkyMdVduk9tY7dEz6MjD1RiqJoJ7xrh7Ju+BUKb/1TMksKpSePU2y86e/kt5N1eKfnIsjEMFELBkChxiB9GEgPOo0M0vCD62VmY/eKlPPOj0BZcHiRfLajlrpXr1O/IX5zoot8at9SGsEQMh9VPuEqPqhKrNP4p1dEm3vFmnvAZNA68kocrPEn5ctvuws8U3Kcu6lxOoxk9GAhOfFWtol+4hFsuDjV0PicKZZwZJFkgHiv2nVJyV03Hyty36LJaMj88PB6vM+/hHJnlKhWSbjNWf6NFn77o/i0yilmf0+1G4wBEaGQPowEFICTHZfea50ba/R1sfcVZk/M0Pyjz9aOn7wqAQuXi5xivyW0hcBElxKGej3OGwEkdoGia2uFV9JjgSXTZeMGVMlOLVM/PlYuSvtjYPgt0m4tl7CW3dI5PmdImWZEjhsOu7JcexnHEsjlUgwDv1QLfWu2yI9Tc2SXVaqUocfdrnJ8+dJcMlUSCd9TnmeZDRUb4DpsR2RV3ZKV129MpAY2uQHU5oEZpK5bL70bKxy2mJSyFAo2vW3CIH0YSBcSZKBVORJ97bt+tmPlaCqJQge9c62UiMSaZ98WZmqPgo/9ob4ZxdK/qrTJP/mIyRv7hzJKi+T0KRsCWbDdgBnCy/FQXwjXd3S194uXdU10vr6G9L88F+l948vS/D0BcoQ4j0g+iNJlIYzQhJ+pVp66huUgfhcdVkcv/kh5USjEUeNtr/yyOComu0JS3cNGNsRy8HHnHp7C6QRM7b9Pct+NwRGiUD6MBA0PM7VGtQQkV0NEu3pkcAkEAlPut/fSm+UwNntYxABqquwWg+/XiWBKYUy9bbPS+kJx6mqRw3XSVUmw4hClcV3Enc/mE4oL1f/c6ZOkdLjj5Hey1fJnmtekdr/+7n0vrBRQkfNAyHvTSplmI9UPTXAmaO1td9NqKGO034Xh/3CAczVEbRYXV367r2MVCDy7rd3Q+BgI5BWDIS6Yq78olBHUMynzLGXgxxs6Ky8MYMAFwd0cUUK3/uaFH/napn1vndJNqQNL0VB+Nu3bZO2DRulayNUS7t2S6y1HQyhT8eML3eSZEIlNGlupeQvXij58+dKZiGY0NlnSMnRR0r1b/8gdR/7roQuXO548+13QQJGIVGJRV2DvFcR8gL+ewsb7/pw7w7/wPD2yhpN5uEKtt8MgQNDIL0YCLHAZItj0u53fh8Ybv1z82FcDnL/Cd4Tz+aHVIywyaWzDKo/uKLlM0g78KYPoRcP//l9NMkrj3Vj/qGSdx9v8e4d6llu+7VeA4lmcvksi2VQfYQ82hRth0cck28ewWfgwz0/MTCI2PZGmfvXH0jFqSclMpJx1D39jNTf+6B03f+MxLa1in9hkfgmQzrFHg0f64Hn02Oqu/0ladrYAkN6QLIvP0HKL71Qy8ooLJD513xIJlXOlG0fvFGCR81xHDESHZ143N4PilNEovACZPKavfeGA/k0VCeMsEyvMm7/ah8wa6r9MNK+96qXPE/2N668PKxzADWF+k6nAbEfbpx5+Uby7uHhjslEFg8P7/fED/bBQyD9GAhaxgH2lieXsFPi4QPVu6etE5LPXgM91Sm+XHj2cHWM67rxayQVY9kwkmo+kB6ukmNtUF8kla0TiZ5D0KeTCsf74DFEI+pwjcdvrG+stUPdQrmHgMZe3WSZRAy5+Y1f6UkkugET+SbniB/eSboRjvVIeg7bGYObaXwP1DXIG4Cnm9qekvfdoDx1XYUtStvTjLJdAuDLBk4waNO1dmBdhoWLlQS2sd5e8eFZS+69TQogPdDOQEbevrVKtnznh3CeuE8Cx82GAX0WbAiQS4FTwmXXfQAlEF9Jgcj86cqce9+skqp3flIarnmnzL3hWsmbXSnTzj1L/L/KkK1nXCuhi5dJvJteXMMNNtSPdUQa7i694RC96HgFoWQ/cr+U9qf7bF8WxytwoL1whONVxwrGSKyhRfvCX5QnPjabGyY9bIgByuSz2b+xFuyLcccQ54cf/xwLOoYHAUo3YwLBWAdUjp3wniOkKM9fgDHjlqljaZC8Q8LKMjDedEyCKSke7SifY9ZZ1mjZnCPqRQdGl4zVkOVOsB/SkoG85X1IAgWiSf15+JUtEt/RKaGTZkvGgkqHoHNwYvJEWuHZ89oWib5WK4GjZ0hgasmICKQvOxMMo1PCj23DcwISOrZSMuZXwqYDZsFnY8DHYIQN79gt4SffxKCPSvDEOarHJyNLTNxkIFAfSmaRZzdJ1rkrJVRWIn01tdL70BoJHj/bkXJYNiZkeN128UXiknX6CgkWgBkgXy88ffr+tFqCp80Xf072XgKBVSwxyFg5TzKXL5JIW7v0PPqS+GYVqweTt3mTTCJa2yjRF2skdMoCyTpisQRo7MYzI/BU6v3bayDIYQkeM9dZCe+PGbJtKj1gYu9slsX3/EgmL1qgqkt6KDU8/6JsuuST4ptZIBmXHAO1EwgmiVrcNYTr6ptSEMpBHShhxdFmcQlfAHsrApceK10vvyFrV31IFv3ye1K4bKlMOf0U6fnlF2TnB78hGe88TBnxoHh72I+GqHl5DvY720cCDlwi23ZJ7LU6CWI8hpbMlkAuPdHwO+oZaW5FX26S6IYGCRyL8VrB8Qq8+PvAxGtg3pF1NRKYVSqTTlyJRUSXdP/lZfEV5UigrDBBcHWBAcIffvANCR43U7IOX4ixjDEEzDkG++5ZI74Vpdi/Ve7YmMh4+EgSeDwjvH67SG23ZJ6/XELLFqrNKgrm3bt6g4Sfx3g6G9dwnxJ/j2kNrG/yd9RdGQ+ucazHN7dgDsyS0MJZEsih3ZR4+CXa0SHhtVsl/PIO8R8xRYIzUT9KlFH+nlzgxP1sDCSFvuc+gcjGHVB1ZErp5z8kRcccqYbarNISZ8+BWya9enoaGqR9S5XU3/+IdPzwIfXoUYIzBIFUAv7cJsk8aalU/OKfZfKSxerFk1lS3K9snXwgvN3w8mle87o0/Ox3WqfgohkgxDD0Jk8k/YxBD0lm3h++qzp9upRSvdP44kuy7Yu3iK4+yTxWb5Xi694vUy86T3JmzIC7KCQGTKhwe4e0rF0nNbfeLuHtuyRQCgKB69GaBpn27etl2vnnYLMcpBm0q23zFtnyre9J3+btEigCA8JkCz+2XnI/eq5UfOc/JH/eXMmAfUE38wErbvbsqt0tDU8/K3Xf+LH4Z6KtqIu3Sh20i0gEMjNh81gLtdX3+zGPxhdfljePe7+Ezl+hmHHfh+KBetBDiwRCJSbuBaEKhatZuOuSyXnqLHX1DmO395QS3NstG97zCTnsvp9K3pzZMuuyVdL24mrpem6NBCC10FV4zCbFCRIiVu8RjKuCf79MSm49FZtsZ+m48megzW7ieO2uq5P2zVul4b6Hpf37D0voXBBnjoFkaRL3s38im2ul9DNXyczLL5GMyZOVIXRs3y5VP/yJdP7tBbhKl4DJBySypVZC86bL9AdukaIVh0tWcbE7PrF4wDM7bsIGy7v/JK0/f1BCR851mAieyb4Jv7BFiq9/v5Sfe6bkzpohQTjGOCrquPQ1Ncmel1fLzu/8GA4R3Y7kmyz5eA1LficekNojNXXi6+iV4mveJUUnHie5M2c43nJgsl6iI05PQyM2gFZLwyN/kdb/+ZMEsFBTzcAAPLw8E+19L1oTreUptperqfBj66Tws++RWVe9H0R2WqKkvuYW+OrX6QDPyM/X33JnzcTAnykVJ79Ddr/zbNl2/VfFV1bgMAMSr+TEFd2abTLl25+WGasuVI8g7+e+llad3FSRBVCHSfAUIlPhPzeoTcHGyaqf3ClNt/7WmYQeE+GEgWoi/OQGmfq/n5fyk070ilSCX3HqyRK/MSpVH71JJDskM77//2Qmnp2cuNji7ufyk09UQr3uhv+Qvh27JA4CnH/RaVL5nsuc2/ksEIwCML2FX/6CrH3fxySOVWQUbZrxiy/KjIvOd9QByYXjM5lZ/rw5+l+48nDZdN1NWL3CzRV4KIEfcD8ZABlB+LUqKb7lw1JxyklKvCh5dO7YKZs+dIOEzjsCPMNRLWp21Isr2vALmzWkSMYZCyW4ELYMEiqsssMbqyX8yOviW1okwbnTEqtnel35wRijed2y+Zv/Lcu++3XdVT7zQx+Qdf/7iATOKwKjG1jBMfLdxSmyvU4y5k6X+U9/SYpXwAnAXVxEIDF0wOWddpogJILcmTNVVUd1HTGtW/VOqb7xPyWeGYSaCYTbJc7sl2hDs+Scd6LM+9AV6CeqPOGeDCy5OFjyH5+T1xpvkEg9JM7t9ZJ/6Zky/7p/1TGkyOBerw4Zk0NSBNfkouWHydYFc2XX578HiRuSJJl+a5fMv+d/pAyedMlJN4biAjdVTr/gPClE3vU3fFG9L6mCU1VucgbvM/HAoi/8/EbJv+p8qfzIlbog8H7WOba7DtJ9VEKQzHJnTsccdv7LTzpB6t95jlR9/uu6j4xzylPBevkn4rsxkJH2ujf4ntgg03/y/2TWu/8pkZMDr/rXv5Omux8EsdwhccQ88h9WJLnnvUPmXPvRhBvplDNOlYyfFMjGqz4jvhlYnXEiczIhKWPCCnHmj25S5uEVzklefdfvpfHXf3LK3gN9/8wcMIl5MvXqD8i0c85UaT8LjGTxDZ+WDSCie370OwkthiSCvQOaQDxjLQ2SAyNwclIXVvxW9o7jpaayTAr+6TxlHuGOTqn5w73SiZVoCAbkGe+6RNtASSELm+Lm/PsnZf37PiExMKlsrGQTiQSb7QFj5Gqx5Kp/kp1X/4vMf+Rx9Wbifa3wgmp66RXpg3trRkGBFB9zlHo8qU0Cv5OQzP32zfLmeR+V0PHz0AYwWXKw5IQ6U7USnF6i3lb6E7HEc6v+9yeoA/YDkaiB+DNxtRyDfju2s0nKbr5ayk4/WXKnT1c1Cn8nDgwNQuZT/+Cj0vyfv0WcqfkJ5sUwIoFppdJ528NSe+4ZMvPSi6Rw6WIpvOm90vKbByU4hxsDXaxZ4FhIHK8gcpHq3ZJz2jGy+KYbdBc8q0asdz70qOy67ZfKUOO7usU3L1+yT1spMz58hZRAovYDM6rrcu6cLhv+9bMg6LiH9jZKW2AUUaiO8j9zteLMMsmsmej9GJqcL9P+5f3y5mknS/GNX5GlN39WFw4Nz70gjU/9Q92nQ5DWK84+QyYvmJdQO8658v3SvX2ntP75cfHBzLbg9v+U4pVHSF9bm9Q+9Jh0rH9TFyj5RyzTcU/pic/LgfQw/0ufk3WXfsSJDZY0r7RSfCEe0ByEn9og5d/4uMwl4+OiAikMtWv13X+UPb+5V6KrodLa0yf+RYUy6ZzjZM6nrlGmyllahpA0WbfdIuuuvFaEoWgGe46WOHFeAh+et+SLadNcdiiIgR+qjfJV56uOXQcO9N3NUL+0/+FJCSxCKAga8EaTOPgwebiKn/L9z8js9787kZvM443rb5Tmr94lgcUVEphThmdglzNUN11/+Ie07a6WsrNP01U2VzY506ZKrHSyNP/XPRJcNAWjF3VBmA0aIXPOP0Hmf/KjquNV4o56b/npnUqEg0uPgK65BGWXi79isqpVGrHK9x95jExe6Oj+6VE0edkSaXzpRYk2tSpT0vaztj7owKcUSW9zs9Te/7BMBgEMoE26cgSx7WhqlFnvvQwb7LJk7fU3SeMXvg2YotJx+93S0d0mZeecoW1gUfRKalq/TsKbd4gUYMUHaWD7b34v2SDKmfiNZXJvRTfE/8CCpTLnXz6gRKvqzrtk6/mflvZHn5Wul16X9vv/LnXf+j/JOHWlTlLWlYn7MLr8UG08/Cz08IX9V3q4RSWqv22UqV/+uJQed4xDgEAMGqC62nnlVyV0Igzpyjwcp4FoU5uEKopl4Y+/LdPOO0tVKD1YHXdgwyDVIIGsLF0dc2d3KaSs4NELpPmX94m/OF/rowwMY8aPvu16fb2UnHu6qlJ8WLU3fo39Xr7PmNJV+oadUnjFhZIPtZf2AzCJQmVTf+9DTrn4rkSI43aYfxLz2JsNkvdPJ0vhYUvdssCswdDrHnocNiR4jkEq9fDTwkHkKSGGKqfKYf/1ZVUZcvyxX6p+8RupftelUBXOlwAWDjqmSvNVNVl/85cl87R3SG7lLKgWI0K1bO4xK6ThF3+EowOM3QCDzCIW64NdDiolMIstt/1MJUKObSb+7gNxb/zDs7Lktm9LKD9Ptt7xS6m66J+lt2aP9G7bIV0PPyf13/i55F12mkyqKNdncfxOmjVddn72Wplx63eEC66O7TvkjU/cIE1f/rn0tTQi9tc2afrOV6S3uEJK0PdsDxki69mbEZf2ux5DzLvS/lIIx6NKrNuk5IYrnPAyxB6Jqtk3Pv8l2XPTbRirU935izkGPHqeXC0ta16TkvPOkCDGCJmVqqmxmNjzpbskuBTtBUbad1raxHtxUJx47R5Vi5UY7N4jOf98BtQ1l2teXWnj05Yf/VQ673hKMt91DJZf8JjCqlz/QcAyz14uXXc8Kk2vre33vHK4mYZOrHSIHGkHVQLPV0vR6SfpqogDlasj7mLec+cfJevC9zplo0x6/tCLieFZMi98j+z4f7dIN/Y0UH2jq7+8PJn6wfdK5G+bMImxSsLkof46MGeKNP3uAan+zNdk9799Qva88qpTJ5doV5x/tk6O6j/eJ223/kay3gMGDG+qTKgfel7ZoHVhBo/hZM6ahnqjjus3y9ZrbpSGz18vtQ88rGWCfOh7ZlGRzLwSdUfaBgltB1R+oQsOk9DpiyW0cg4cD/B+/rFS9ZEbpRuqAxIDT2VVjtWp1EGN4RSlZegLvrM9wcWlUnbKO5xLXEmCiOz+4/3iX+FOavIiECS69wbycmTxd7+mHlrN2GH+6r/+m7x60uWy/uQr5Y0zr5RXLrlSdj7yeOIZU888TSpvhUrkqY0gzLDFECP80wut9/410vTqGr138oL5kvXeY+HV1uk4ISRKGOYD+wPSE0OZJP75fZh/Sn6xWJti75TsMNphnqJ2iyiMv3M+f51KeiyDkRkaX4LN4MqPwk35SpUKnPHqjKlA0WQ4BpwvVR+7CTapXVgwOGNq8sL5MuMr/wYjOCJcQ6qhtBWcO0VaH3lSNlx1nTTd+BOp+sI3dCWvfYiKcQxMv+UG3YtT++hfZAcWEZmXXYBFE5gObCMZJy4WHwz51f/3U7Uh8VlMVBmVfOmbKrHGgNGbn/uS9L1RJZmXH6dG7CCId/blV0nDp7+dmFee9FoKNVNCneiOay2UcwN7frJOWCpzP3ylXqIdhanqZ7+CbfIByXoXx5I3f4EHpM6MYxZJz5+egZ3wZb3Xk7JKjz9WMjGOKZWpI4f+OjFfjIHsr985V7Gai63eLTM//AEV7ZXAY5VFYrTnc7dLxqrDHZdXloXr3oqEE803GaFVEMjR+ckjrBCPjz1coo1weyXxYx6M/Ixi6NOTUhir1TjddzkZsHpMlI371UYQAON5vUGaYERn8gZ4IQyVoVPmK6Px6kICy6itoWUg3JXHS1/jHudJLAuMj0SConzDXX+U0JlHOa6+INRqkAchTsxH7wMnID5z5Rs8DF5iK8+SSCcIKesBWwMT1RO0/7Rt2iK1H/qWZF3yz1onh8GCaMKNlCvD6OZWaXzBmaSaES/MRwZM1VNikgIGqqOiW2uhVz9b7UAkHmx3e9U2XX0GZ5QqgSPjUcb8xFapvPkzqoJrfOElWbd8lXS/vA51ninBkxdgT8dcVUdsgYsuPbeYWCaDcU7+9KWqAlKDvvYBMFxSKs3P4D5858o6/+TjJLpxlz5rL0hazOAvqGsAnm0B5A16/xgjwaH+cW8Q+vggjNB+9LeTHHwHf4CDUWQTpJ8vvE+KDoe7MepKOxON/bVQhwaPO9HpV/Yh6uP9k4mpuq+hU2offkyL9xhCxRmnSvYHTpBYc9teZgmG7ysvxCLjGASn7JQ+t/+ZMSMvV6acc6au8Hd+D3PkrEtFdHGFfse4ois5GUnXoy9AEtyuz9K+xHyohH2JUQFq7ntIuu96Et5ilc54xHyiZKnzqqJMmsEMmbw6kvlknckxg3HIecXEMYqFVOTJzTL9Yx9ULJ0Fmh/jcrM0fvknmL9HKoNRXbCHB7PC5dhXMFm6a535682lDFzLORFzBPYdPXdIHzQxX7wROTFbP4JWc/BFdzZK7idgrIPah8nTnTZAn+ubhbiow6nEQjAigxE4GR0bAQd8BiZAvLlTfJhEDuGB22879kYkpRCMt6pGIfEiUebGJi+RhlDXD3tIBwi0gADqhkNczgIjyj56uXQ++YLjTunVDwRDV7o1IMpeYtmafDqheu95VUIXLXWYD+pJYh+YUgwvmzxnMuJaGPXseH61+GGD0MkMgquMjnXyEsoNYaIx1d73oAjqqUZHjxHyB7aJK+MlhdIOFaPQyO5OfBKQbLhstv7+EQnOqlDHBJVGKFVsaJTCY49iCUrsiSdVlLFqELcjnDURmQc9bfL/fZXqrqlq3Hrzf0rg9KXwuMpTSc4j+GRioRPOl9rf3CMlR61M4Fhx8Tul5Su/EZkFVaMPzBQE2D+1WDrR9l54wGUC5zww3rpa9BvqMGwiYUKi+m/Z7d9FxYe9u/+PyEomH4Bqlslj0P1vcr+5YyW+vkUqoK5jUnUoVuHtINQd9/xNAstm6gJE8XSz6RvqyPERWD5dWh54XMKXXaJMkvnp/VR22YVSffHndMHEFbr2H8cUxoizD8NpIxlBIBdebShv1+OIJ/bAGrhSH+ns4XBx0OcBs9imOumC9Mk4ZZpQ/0lQhXExU/+rP0jwzGXqQeYRb33HePbNKJSuDRu1T7xox6xj1uL50gvX+SAk7ngvFl1c/IHpTfoA7DFYWDF5DKfhmeeRH/cwsT+c6uvXxEsA6jowPE3EB/Vju7h4iHf0DZ4nkTn9P+xn1Kc/APttIQZg9KWdUnTqOxyRn3pkDKAIfMTb//Gi6kzVNzx5YiQKxYBr7JNMMAtN7uDjZ6pWfBnOKokrMv+KGdL89PN6G9VRnLTUtxasOgsT8M9Y6Tvup3qD94LJ6yvLg165Vld1rJe3isuePwe7rpswgRw1lmbRCYKX5F5Pqnfbxk0S55KC11hXrPYjT2+TiivejRUhGIh7b809f5a+VzZDpQOdOIiFXtc8XsU0u37paWyU1geewAp6qhInrwzvTo1fVpgLvXiNxi/jdbaB92VMBeNIJs64RoYVWDYl4T2jDAeTv+N1hOo/DMyYeZlUatwlZe90iGjd3/8hfY/gHqzo40kMnc9hmdyU1g23XFWlsS1I9EbKuAArWrjAqhQEIu6nF89r2/Q+3pM9far45xRhEQEi4+bj9UETMQWDpPMAGcmI/3E/veDoJu0xPad8p579nkUGixV45ruOlDx4RDF5wRfbsdCIbWsDAXVX5/0yul8wpuhx1fv0BjgV7Oh3B72dAgvgvk2iS4ZJoos2KeHle1LiWGRqeu5F8S+D3ZFEeCA+XBCFsqUXUYY14XdPNdyKsdj3x1edTYZenzp36figOrFvV/3enf7JY2Y7JXtnkFNCiGDvUeHZpyoT1PlBxgX1WNuzL4l/KRgN+n9Q5sH67Amri7I+mv3n1iHmPs/9OmHfSC4sDYcAiTROgMvHSpNJVyB4p9dO3xoQ0Tnu5NBfB7xghe0ryACxq+z3QxQ7p7s3VYkPxnQyCq7egtPLpPWO+2X3GScjfMbJiZX4wms/pnmbfnWv+MtBqGh058zlZOSAzkFkVxhRqeMOUI/szmN6wsQbsEocOGn71YRFoQwSA6TurTicaH5BYjWptpMjp0j7ug3SCGLO1PC3p6X5dqhBsKubq9Xk8veSEE4zEnKf+tCHn8BGQ4bRh/0m+X6Wp02BLSUCHbW6KLvX+BbCIUzSR2bCb0ioJ3ciZ0ANR/dlJmXmUJ10b0BfFGNVCCz1PjDo0Mnz4Ha8UO9reeYF8a+EJAG1xL51AAZgtJF19dID1R5XwExcZWbOr5Sup19W7JVwkjEhZEoPnBGYMsBYgxgDMRAhZWYDiJ3exBeCg/HAvQUtwNNbyep1r32Jm90PHqDIx/IZSTgPnnTKdDWPd4N3P9oRgucVjPcFF5wFV1TgR8JOSQ+pE/uRfNPAhLxBolcHvPB+qizrW6Vz5y51yfbuyC4vl8yTj9Aw9c65Ou7K3LvBe2cZSGFspO1eA6ZdhnHurfS9e/jOsVcAAt/WsfeqO14Zs0zyOJ5R1sAxzGtc2HXCs46MOykFwDASzdN8eEZXRPIWO+NAy8P9PY1N0vsGxkw+8OCYGSwpE4pIPlSxiYQyKYn2YG+Ifyok7KHyJjKk9wf0kKUhEcBgiYFIhpZi96xrn/BWVvTiibVg8xIGsjIBUjn+kRjjn6v3nt8/IOXf+0pCPNeJj5+5sbD7vudwqBDcVEnQkNQwDNVC1XVfkq7PfERK4DJIvTW9pri7W0NM0NMmCAaC+cNnKrHEZIri91gM+0OSGuKoO0g4OJkdApL08z4fuamQ3jG+oly3PbiFKht4IrX8+n5p+sIduICotYuxEl4wXeu7TyGJC3ymkzrh6ZRIAwkBfyAxAONj2JQoXJaV6LkUgG6a8V53cuM+qm6i2KGfeSIMsXQpdRPVU+FtsEPk4RrVeiQudU0y6YQVKsURw+41G7QtTl95OZPeGc4COEbCYIpIJPB+9CPtFNpHXt21adgdDeLIxN30gbIiuAjXwQI89HSCeVZ7gaqZjWdeLVHsuvdNQo9x9/teuLTMfi9htGdOgfSt+5tMu+NOybvqA9pGPLnfbYkvZLJVrYjbNUMvKaPiNYyXXmzW9JVCktwf0SMTBDPuhXOGJrft9NrLnjNLev6BneMlZAr4td/QchrCLuXlXrhq9zEy8nwwZE8N5JSIG9yxiUgL0R5Xxat9jAmC53e9uVl8cwd44Hl5iSXnHZwXVD1M6ZgPRdKNht6YwTPYd4HjsUkQnl5M3gKQYftjWxskeCxshVTBsT78A1Y6f+E80XP3M1L0xQ/C822JkxcSE4aJeu91/v5vEji80pFe9NeJ+TL0iJ+YePRvNQiWukIeBmMrV8NJKQzf9FhtNejVXGfwYgBzZRLr7JFYXSsmcZ2U3nIzvD6u0lxcKamnFCSF7XBpZIiNfjYNnXU+2BVKZdf1t8huEFX/tAKJbtuDM04Q8wcDuu+Zag21QbHcP2eyBGYgXEgQn/upJJyJRNfPROJc3U8iA6JaTvXJ7mTUSYWVY7AS0gc216GhWmcV+fdTXoLRggj5Kt1wGUPkUa8t4udUfe9dLiaJC+yPBhhfp5Trat9TR3CvDPd4BGAYV1US1Ti72yTTJaJ9ZAzYDR1YgDYMJGSJwvkBFUiuA4iKGkmTCS4YlOTA8A/3T6ZANmI5FcN1GbvuNa4YBcRBktcFJFDBkxeKP05VKKjRPo0emBlEi+7WzdgVP2AMDrxT+0vLg40NHnDJiQuhSF2jMlkuZIZMJKQklEXZEnYdLdiXnsSUOQ0qn11o+wKvRckl9b/Wi/y817cQDCz5toGfB/zIjY19u+CVB+maz9038TmDXcdlrb+bg/VGuwOIJkBpUhN/R6IdL1oL5hZNnr+Ingzbjs5fMJfCm6+UBdd9XBmKN3/ZX9t/+Ru4r+PkSpQzRC30GRPhxRjIcL3MwdYNl9mCvIQBUwco82AFFJw/X3x9YBoN0CvD2E631+CC2ZKzZKGeg61GO3fAKvOA6mrjD26T9rufkNDhs9WjJFEey+RkAYELnbhIV1iRXY1c9Gu4jOwjl8KQvxh+8jNlEvTu3ClLFQ/VJpzgPM9Ck/s8Lcu5MvyrO0FVHYD9Eo7rb1IWlEfpaHjCm3Q/PnJSKQPBSlKJVgFsJYMSgv75vKr3v5r8Df0BdUSI57wwuWVyf0O8DR5ErKvOaNzXg/u4MkWir3+8GR5fZEB6ZbAX/hJ0VqDezyCkMaic9Dhcr/64jfHJ9ERB3Md+9XNXMlWL+2+AgkM37DgYCFe6Xhu8R+7zzudSOmoPIzaT4+U27HPcemYUY/XO5H4nRmR6/RYIzh37viKPb4Dx2LN1BagabUE9RtBWSlvsl/5Syr6PG3iFca54JIPj/Tbw1xF89yg7xwNUf0HYjwKuBxt/0sSF0eHLxI/3qM5fhLPB/A3NmSGT3oX5e+KxanT38FK7JObBptvukJbb74Ub+tx9569X9gR6NwaDOx4jAAAeK0lEQVQyTGcrQcLqM5BB4uwMPc9eMAWhHspeexSqCKxYIF0oEceqny6X3j1e0TSyN7+xXrbf9nPpfOR5CR0xe6/Y7N3Ed05cqKno4hh5YrPkffI8Kb3p01IAEZqhS7zElTcloG7E2aLtg/kYy4er4b0pMVX2Xhrmk670qLpwjY/D3Drin1jPaDcIN5itR8iGyzw0cU/KhWbt44XEjBHUPSnF27H3hTYApBjqIN38fQhMeBnMwo8ggEGozZKTSke84GUlE2rCqtZlTlGscBn4UrKoex9BC1gO/0dwKx+rN3NclGUnpJ6REO+EG6tTiPM6wmfqbViYRHns7oCkC4N+XhgDbkj6SkM19GX498BL+nGYj5SW4nTfHuG4GaYo9CtUgJDYvTHjzc3S446W4ucf0PnrhdwPoO+D9B5zPQG9cjmOW7ALvuaOX0n777H4Y7wuT+3l3TRB342BDNPxSlSxSlRDnTcHSCSwsmHcqzBUPgz1QX28Tiz8pqunSFjC+L0X/x1btkrLU89Kx62Piv84SA5LYXwebPCRSKCcSBUCz8FtdPbffyylCPPhqaK4it7zymppfvZF6Vy9FlFVa9WdNYZVHuQPObLxHw4DYf1SSF7zUsg6fJaDXTCw9ya892ASBV8O9jmQKnsrY0gg1NkzkSBJFyUEL8fAdzAFqhjnYYMb+nPw5GbW8hHahDGXkGgUj8JNVDfYDacaGrzQEVx1+5MRYCmxjDQNOgyIz/4L0FuwcKINbmByiu3PrAfek3iGYjWCBw4ogIsiMhAeITAKTjugFPcr6wD1rDctPFUcpSPOT0pqQUjvifkLWyAjXXN+97Vg/m7dJi1PPyfttz+Cc2SgCjtizuDzd/Cnp/3VCcRARj+QlR5BNcUw1fQF525ZbwAyMu2bCHuRcd7lGHzOkag6WrBCjVEqqW9B6PJdStQCx03TvRXcL6IhNjwi5w0vMg8M4si6asm79AxZcMOn9gaewz27//qU1Hz/dpzP/YL4FpQiLHwRdNRQl51Rqi6mWYsQ3dZdbScIqFd2Wr2DfGXR6AqjJ5OLI4NL+sr7G4fp/UbPLiaVRAow1D0qoleTXihVYFNjxhJ4d7m2A2elPQgV1ktBeF85YU7IQCI7oK+nNw8luLcqcfgOVf/kZ7rDPAIDtiYXIzJZPyTUeAQ2NYevJufq/1mJLiQyuoAz8bluORrkMIgCBoHGufkgvPJZyiz5kBTmLavg4qWbSenhBxUe3Q50/uK9fVu1rIUKK/P8d+P8Erpnu6DguTxfRufv8zvRTGggjsbC79RF2r+Dzl8+b4KmCcRAUhjx9OjBYTeRmt26y5o7UL1JnAWVUmDBSTrQGVSQTCMxqaAGopdK6CK4moI40X6QkDo4OZLnBT7rfoudDZJ74Umy5Iuf09hM9JqhKL3trrtlO45nzTgTIbNXHYVBjHU2bRIkVviPPl8lue+5WON/qcSUzgMZq3D/lMnShz0jVAuqgRvt5b6K4Kxy3Q2tMaGIARiNtzGTBlTfZKghBxsCxJ8uvFXA/90XwosHRBa4eqqOBP1yiahKKgtLsYnQsTH0wp07urEOGxEXqMH2bYU/QehxzoYXacCtkKpnyoqlZx28mxC63gvlsU99vXYi1Lm3EVSHq8tA1JNrNr2e3kJmyY7SvkqReSQahYUZ1MqRxmZVpdLDzysxE3M546iz8RywCKohqRXQhAfTrghvxNBFhznzN3nh5+KQeMQE/zAKmXh8I+WsKEfZBhBrDdy3EUH3YHNITlkgIKHFM6F7B6GnCIwNZr5J7j89oDAwddc3Bqb6wHsDDyPYOWHNLY2rXxAsP8btXIS8ZmA/ivBkHo0vviI17/sXybrsCkwEuLSyLKpjyDy8NCkkpV64a07+tE3AyWXofdt3SoQM200kDJnzKh21Bxk2GUBprp57zlsycVZFEB5Y3EuxTyJmtPvUdEoJzoXQlAyjYuqSHdyn+1BWIAaWe946VRzxRthAuGIeC/ijDr7ySQi/sctpiy5YcA3Sc8Y0bMxshAfV/uxcbGdtq2S6e3+88cZx2bMdhysxgKanrkvGah9wD/TCARTOrKwjpNPomho910Nr487DzBKooyBxcj5R+kjMXWxQ9Iz3ifnLBZs3f1GI/p70/UBbOZ7zTxgG4hjCR99VXJ1G19apLlRzuxOSq97cE4/W8w70XG26enr/JPBDEhPsYsdhVN6k1BXSa9VS/OF3aSA5ShGe7rkeQegCy492Nr9BR59IJBLcEb22Wgo/ebme0cHfUmKSiULfqg/emu8glE+GjtMQ+17cpOeusESNMIs+yl2+RGKb4LUGxksJzY/Iw90vvJYIOZJzwpES20X1DYzkHgMmo6GEiajC+Z+91Il0izI9g6suV6nGcftS1SFbER4F/c7zXigltnCn9Uq6B4M5HXKiMgBbPF/bPr9MOl55XbhhlWPCk0x5pnt8G92PB+QjkMmJuASzJTvJcYM/c5Nlzwtrxa97QGgcf6sS6refKo7oyeAfnJsxxPbi8cZeIh6UNPOOXSnRTWC0QZBBb+7yfaj5S6aE8ugSrlqAQ97fXgvGzvuEYSBDQk7i4BIIJQAYICTqCSmBq94FRdLsBvujasObkKU4VyK2vharnBF44HCwoWw+q/RTVyoD0IHKCb6jXfKXLXWq6NaFUkkf4i2RUai6wRus+F09tXgCGzZ7zfnIVRqWgRF5tf6Jtrgt9r4PCcBb/IM+P1VqwHyctUxOP9GjK1bdIu0bN7uXnd8LEGZDWkHUKIGAsGuoi0fX62mNvHHKxedL7DWEaqHESFUGGIkPUXqjcJXm2ROzP/YhJTYMysj+1T5GX2dOx74H7MEg41LPpup2KcM5F0xtm7dK+68fFUaIHXSntd71Fr4QW08S8B4DbzS6k3c/9Lx0Qlpg4lhiYjQFXxntF853vTjwBQyY6pzQGQiEieCETF4PtMITKfLcVh1/CSY8MP/B+K7tYh1THTdeJVBz9Ld/5VQ1hHMeqWpSxyTO90BUbNkBSRZt3m9CUaQJcXjclVzzXuckSkq03rzcbwHpecMEYyAYkByTJDIYNFxROqqnbFVD0W2QYisP4Qm/vk0HB6PeBudNk5Zf3SedNc6E9IZCCQ67KfrKR6Tv9wgsiL0iCQLOAcpZ5w5UlssjU/se/IsUrTpX5l/zLxKCekAjzbJK5TggCsEDkxPdRxl+m0xHxyjLwgcSMoaRjj6+Reb/8Ou605qH7XRj4xWTx9xUj4+wFWoToDvkfpJWlXU+mIn1xQreI2CjLpqEbuAEhXQROGaG7PnLU0q0PUMvowlnX4FosdjLwp3t7LfAOyql9s7fwn7VpVFpZz/0U0Qv3q4xlsKPr8dZ3C9KxuxpsujuH+oBWFylbv2vW/f2GypccvwxCF3ynJ4V3nPPL2TqL26UAjeo5s7f3QOqTBfvtyfpHiCoXFSNynHNxHdgFgcjqYfzhV6ieg0pr7JSsi9A5Fzs+h+KaGrw0C27Jf/sUzRYJMcTxyFtPzyWOXDMLLXp7dMv+gT3xRtHOqiSfxjZZx5V4EPkaEp4ToNGlk/v8p7NL8SB+0CwObf9jof1qGXnHucmnuRZ8p2rpfeeZxCpGvOXdIF11n/c6dUf7WestN77XpT8c0+RBR/7sGTNnimxPfC+G8Hc0mem6Ut6MpDkQeR1HCcWN4BhNRbvgtEbrpeR2kacyIagbX9aLX33roGqCmd4Y5Pa5EvOlNJ/u9JRHeF+XfV29EjN7//klMaByVUd3ud98hrJ/fg50vM7h6Al7CE4X5vMScN0gKj1/O5xKfrS9TIP5xEwtEbfui06KJXR1MOIl+Rzr2VjMOcfeYSEn3kQEftQDqUcPLPvUagQMKAXvfQzKT5yhQb1q171aX2O11S+ZyIQY2Tn8xLesF1iNVDteJMh+SZ+RhuY6PJKt0kSioOVuNoLMODiCDfZOTXZ+3Q/Nwz29CciVB0EcDhUxy8eFwbcY6KbNffAlL97Fc7w2ASmCbx4DedbdP99jWz58U+1XdMQsXjlS3+WeU/+UGb9+ivA8Ney4o4fSiGO4GUQRR5Z2/bD30jza2sBC7zpQMD0eN5/PCvFn/qALET05dn//B595o4HHpbmb+LkwrlukEi9OoIX9INvsPE5gqwDb+G4TD5q1vtdieaK2dLwvTtxZG21rrppv2AfT3nfZcAIsb3ohuz2fULEIDEks9nSIlMuOFeL88ZDAyTwju/ep7u6h5a2+jeM4XQQvB7l9L/u1XOody4KdO5QnTRwUAyVyb3ORWE/qYxt5OMrcmTHr+/WeUDG6y1q5kKCL/zCFZifD2HxCNujZ89Mnr/Yl8X5W/DZ98uCT39cwgi90v3qesT4QgQCZXL7qVQa/wy00yxxsOigGzBoSfB7Ec4iuFxkermepBYshCcGdnWT2GYjPEYWgsVlYddqBnbbciJtALHa88O71FgeWlYpez77E9mNkNAVEH1VzYHBw3uX/eeXpeak46TxbkSpxXnLMR4Rip28TP7FxTLplCOl/Gufw9GxJ+iKfNcjfwFjqJaMd0LtgsRdyV01O0WOPlK/e7aM6ReeJ93fuEWa//f3kDywyQnEquK/r5NpuJ4NIy5X1pu/8wOcJLJJ6A3E5OUtOuJwHL17JzyROqQUkYSrsLIOb9+lx3oqPgMYCu0uAUR7je2B+2cGJ90A/LT0Ub5g8vI8cS/e15C5CRVUMQnpCY/mpVAR92TAacAjdCxACQKIcGm21N5zn54HT4LAVI4DpuquOFV6t9bgzA3EsKIqBvtu9oApvA4JbcYV75GCRYv0fHrNgBeGQan763Oy47v/h5P9cMzueSfIlpu/JaH//moihhnP5E4+l5vHwW7/9NcleBo8r7CrvF/9vIK99wE48rRMumDL7gZ4ioHRDfjdyzaSd0p3gXxIrp2oA1fPXqKtKIjvkzJk6/d/JId944vYTwQnDMyBKaedIi3fuB4HgH1JMi90w+e7c4Yuqj1//K3M+sOf9h41i3HBuG/V3/yeBKDW0sjT3nP4nngsPyS+6B26D2cSSMxwQ6l/Fs3nhyMJJfpoA8Y0F0/7JK9A733vDSF6x8X6L4KUoc6eKs1f+53UHHm4zLjondpnJP6McLzk5s/JjqNx6uLv75Pev6+FAwE2MbrSCOdv9kkrpPTG63TeM/ZZzZ8fkL6H18MrEgFCGdY+eXzurcqE+JR+DASdyYHhuWGSKHGMVmDiFFe/BC+nbKzEMtXtlcHyOAkHJq48KZrxrIfGzS0iSyt1/0bw7IWy9UOfl8Cvvyulx8K4jaT+5VhlV777n3Bc6tkw7tYj0B5iYVH3isHGMNyTQOxJOJh4+NOub/1IQihLPapQh+Apc3TwTj0bR2dCP6+rGrSDgeEW33CddLzvcvUg4nGxPIOCicH83vyv7+F42H/AHfEsaYXH1hTqdDHwSSi4N2IuToHz0s6Z06T39c0SYERfRrh1ia5HwPxQlYUQ4bZ3QxXqAKJPhjuaRJy9iYTPijvaFirDmSFVUJksHoRSuOXzXj9Wv4n87nVGuvUFIMHg9+SkBAEBHZtv/pU0nnO6lIDxcoVNvGZf/wl5Y/nlErh4JYyj2HcDJhJcMlM6nnhe1t3+kGSdt1KyFs6BjQTMEsy1C9Fie+99TYKnz3WYDp4VRXTYN664VqZef7UUHr5ciQwlnw6EN69/8DFp/S7OqThlgWN4Ta7YPp9Rbw9n9zcS1WBpkYS37sAqG+qnkSYyBeCpifjiA/HKKER4dQT1xI97SwLUxCiAs2ba//ikvFnyfVl4/bUJ54wFn/qYZGDRVP/9OyW2BoyMKYRxePxMmXP/QzL9/HP0EiUB2uE2/MfXJVyLwIMoT8es18+8S7uGD8R4wbxxktNfIdTNCTDpfHd/7P/GYJJeu9xfAnhuCPOmt2eTBAswnvvnwDeOJWcM7zNm4HHnC2Y49UnKR+YYOm+x1Fz7NfRnjh6Xy77RuY65MnPVhXqIGM8m4SbCxPxFG7LLsfcKTI2JO9J3fvX7Ejp30f4XD0nPT9eP+1LP8dxSDGI9r+GNaj0Frxg2Ck9H7p29MJLmqe0BN3JDESiAk4VEDJOY5yZves910vXtf5dpmGj05vAS9xtMxv+gCfnroAqpuuFrMGRyPwnuYplQtfihOup5cb1suf1nwvDt3opay8HkYpiS5MRBXHXLrdL99BoQx1k6kJvvvFdaoHYoWLzQmV9JGXg0bs8aV+QGIfTNgour6+bpPYsr1PzjjpQ2qClkVamr504qZJiPapxEm/qqtquqiExZw7ug7rQX7MIztVJsbzLxYZm4RqeFKLybIow7pYngUGc/SzIuPMzZ34ENncmqCbVxnDZbqr76Xcn76feUsfKZhXBGmP3g/+Ds9Sslc9Xp6D5u3uxDAMZiERi7wzt3S++ajWAsUFcgKCLVEBpqHgwo7obK9+VBvQP1yfZLb5SdOP8iMBf2KhhPI//YJv4jymFgXuwQUqeaWtfBXxBZAJGCNQELBjGkpEfVZMfPHpPAacWK1z6YJBdGvMDMfcWwoe2u11/ISHSRAQI4ecVyqdtNz6oBCflUAkPMtaYf/UHWIrbU3E9cDU+/aarum/uhK2QqxkvH1iqNnsCow/k4P0T3OrlF8ZCurV//jvS+Wa3HDQy1iU5VvGtx1nkDjn12Q+GziFxI91lnHi5hSFtUDe1jeCdTLIRXnRe0UduFtkINlX/MSmm75c8iF5c5YzG5eRxHwDFWtVs9zfiTt1DMQ6y4DDCKKIKaqrtt8kIIizoG3Nx6yWek+wfXywwwjWTbIxlL/tw5yU/q95knVm7F0b3Cs+EpoVDFNsFT4MPzlnwx3TDw5WbB6wKnjcEbRc/egIdSNyQDri568M/PiX8Q18RnXuc9DY1qMN/1m3sknoPBSt0wiQUGPAeOv6IQ4vDd0rRjnUQZRBErSZ5DoMwqiUBylzJXcJyI237yC6n94LcksKQCKySUx9Ua7+U/B3ZFkXTc/7S01u+UzCkVupr2yqN9hBFleeDT9t/+QbZ/7MsI59GjZ0SrCE3vLpyp0YwzL7IWYDc1XIxZrK6acQrdlv/5X+ldC+mDah3oef3lBXp4UmjJXMmZCh0+CC/b3fDEk9LXjslOtQEn6UgT7vXn4WCgFxAyff4MyZ8/z9G7o960J7S9BicDMMlkBpBctDKc5nYJZwew4sehRZTWUGbrxo3S9PjfHYkyeYXNzCAMPNAqsmWndOxB5OOTT1DiTMLK8xsCRx8me26+DaJnvmMgxf26+RCMMgAVUgCMg4ZRTWAe2r/ATIFjPwPA4NKpIHCQCGGQ90EnHlw63Ym4y704A9Q1TkFJr2QWswqleyNimkFtwuMAuFrm6rbh6WdwCJgTvXcoTJJKctoKo3LvK1CbLJ2vCwoyEYbNaYLk2bH+DRffAQSNgwDMOzCjRHpWr5f63/5ZegNcZEEKB8aUZnkMbO7sSo21xlU2T1qkt9X2X0Hdc81XJAbTW7AMUg7bzPIGSer2nOuHxNAhhVi06cFXuI9OJ41//btGS1BJf+CY4rjBYWI9OGI46/BFeuwwy2Kct0bYm3p2VTvndSQzAff5yrSaEGUZ+6D6jZkNb0rTY0863UkiP3AY43tgXrm0/ujP0rh2tUQzOX8RUXmQ+csFZC8WAC1vbJBtP/ul7Lz6m3oSojqmYM4OhccgEKXtJd9z51w2EOLx3Vi2BvYHEs/I49h1S2VUJv6ZOP75u7YYL/rufvfmhr7jhSoAqJa4wUgYh8j7HbczkcjS4yfyFAjzimmSdcRCyZhXCdsK1C6YaGRcfdW1UAltwUl4WP0vK3WO2US5g5VHgslVGo9hjde2SdZZK7E5bpbaEKJY2fVs3iZ9f1knUgRCdlil+ECgVB/NSc2JiVU/mUl0027JPn2FZMyYgtVvm3Q9jvAnkzFBQAQ0oi7vxz8JbayqXnLOO17VeJ1PvqSMJICDrTQkOu8bbUKe6LY6yb3oFLUtdb/6hnQ/9aoE5k8ZknnoI1h/rDqj1XWSuWKh5BwN5wGcXdF+z18R0r4QuEAlQaI+MBEzeCGFX6uSwqsuloX/fm2/XfxUF2675QfS9Yu/wZVzhjIN3b0OwqKu0eyL/bWTv+s9eP5gdRhYJ+87q4v9BfS084Ou5110Oi7ggK0nnlHnjcBMd2W9v+d75fE+EFI6RORedqaEQPw7X3xVep9bB6l4mv7m3brPO3GCmoZ9HnlxKz5jU+Fxi/SwrGBJkRJPBk6M1NZJ78at0vfYBpEZ8AyE6k9xogQ5XD29/sM+m1DlVMk75VjYkxBH6sGnYMOAMwldoAdhAlpPlEt1URzMIO/i0/Ws+I4n4fWGvTkBRBdwHDD2aZEzd7FoikIKyToGwUaPgqSzYxfGzBM4EqHYkT5YryES51oMqsrIXzF/l+OgLIy7zPmzhdGGqdrm/KW02rN+s4QfXCe+JUWIvj1NFxOJxd8QZU+ky+nHQLzeA5Hg7m0lrglO4f048J3EcsBg48DGylPF1MFoKQcn9fZQv1DfTEIRb2zDbmiqvZAwuP04bpZhI7gngcRnuFWc5uFER3mcrBzcsSaoJqhqQTh0LQeb3kiEtBzNkPTi1Yd6XXiNsD4kvH6stsnQWMd+RADXWP9YI2w8qJu/GLpjSDL73Jf0iBF9BCOI7d4DR4I28c8pxcoYq3wSoP0lt+2sd3QLYksBO57FrvizbUMl5iMTWb1FclfBxfJzn04cHsQsEYRAr3/uBbj9Pildz8PTbnuDxHEmvG9WDlai+2FsQz1zpNfdPiG+0a27dIj5K8uccUmph30wmuT2WbSmXvemBGbDtgZ1m47TERblbaSMIfZXDERb7SesJ4imvwT7Y9BffhJ8zId4D+s4wgqyH6hWYnDJjbtVNRWYVoLMKGB/3lRsF4k229WOQJVQGarKa38Y8ZmYL1QvRnG2um8KJMuRjBk2iW3GXNG9HZy/wEPnb5ujRvVh/vpKEFlb8Rjh/B0hVOl0W/oykEPZS+4EUFGeYjMTaR7VJly1DrX60hsHeWERmFBqNGXZZD4sY6TlcGJwlc1JwsnL96ESmSB+05XmcPcNlX+Q6+pKiXprmVTVjSZx3wvqzzqru+hI6oR7yEQi2+uwgsyVmQiBX/EOSFYgaF6ikZ3qGdqDiA1Phay56TtQ78DeQ3XEW5mAhWKCZ2ibRtqPg9UJnaXqIMUX9U5FD88xxQUWxpgyMR0AeNhox9lg9eO4pYp2NP3HcogR87Fd7I/RYMTxzt3krD/zjmTMJNdd8eB8I7j8x48HMn+Ty07zz+llRH+7OosDFoSSZwQdlMTBC8KgBDiVAkdTF6oPUnnGMHmoPkw5pdJuEh2o73RHOHT1W06/Ruo/dZFUXHqBFMConglPGuq46frMfyYy9vgW7PTHaYtKdPTqW/RCYkoJ8GAkdNYB4cs66HhFnVJhPvtrAwh/nF5+o03EKNVxo+P9ACbfwZ6/o237OL7fJJBx3HlW9QEIkBPC/kV9fxSbRKMvbJdMuPPmHrdSchYv0FMcucLsqa+Xxt/9WaJQ9WnIGjATS4aAITB6BIyBjB4zyzHWEcCKUm1JtPF08Lx02GTWu/sdWHc/To48bY6j4uLq05IhYAikhICpsFKCzTKNaQSo0qI6BP+0F3AHvyyc6VRZ9dtQl3AHuTGPMd2NVrmxj4AxkLHfR1bDA0EATEKZyUAbBI2llgwBQ+CAEDAGckDwWeZxg4AxjHHTVVbR8YMAfN8sGQKGgCFgCBgCo0fAGMjoMbMchoAhYAgYAkDAGIgNA0PAEDAEDIGUEDAGkhJslskQMAQMAUPAGIiNAUPAEDAEDIGUEDAGkhJslskQMAQMAUPAGIiNAUPAEDAEDIGUEDAGkhJslskQMAQMAUPAGIiNAUPAEDAEDIGUEDAGkhJslskQMAQMAUPAGIiNAUPAEDAEDIGUEDAGkhJslskQMAQMAUPAGIiNAUPAEDAEDIGUEDAGkhJslskQMAQMAUPAGIiNAUPAEDAEDIGUEDAGkhJslskQMAQMAUPAGIiNAUPAEDAEDIGUEDAGkhJslskQMAQMAUPAGIiNAUPAEDAEDIGUEDAGkhJslskQMAQMAUPAGIiNAUPAEDAEDIGUEDAGkhJslskQMAQMAUPAGIiNAUPAEDAEDIGUEDAGkhJslskQMAQMAUPAGIiNAUPAEDAEDIGUEDAGkhJslskQMAQMAUPAGIiNAUPAEDAEDIGUEDAGkhJslskQMAQMAUPAGIiNAUPAEDAEDIGUEDAGkhJslskQMAQMAUPAGIiNAUPAEDAEDIGUEDAGkhJslskQMAQMAUPg/wMwyF/0/zoNFwAAAABJRU5ErkJggg==;" parent="ENogYHpUZDeIYP6TP7af-1" vertex="1">
          <mxGeometry width="140" height="70" as="geometry" />
        </mxCell>
        <mxCell id="ENogYHpUZDeIYP6TP7af-6" value="" style="shape=image;verticalLabelPosition=bottom;labelBackgroundColor=default;verticalAlign=top;aspect=fixed;imageAspect=0;image=data:image/png,iVBORw0KGgoAAAANSUhEUgAAAd8AAACDCAIAAABDWYY3AAASHXpUWHRSYXcgcHJvZmlsZSB0eXBlIGV4aWYAAHjapZpZkls5kkX/sYpaAtwBx7AcjGa9g15+HQcpZUkpa7OsjkiRDPIRgw93wMtw/vd/bvgXPzmVHLLVVnopkZ/cc9fBixY/P+M9Sszv8f3s+30lv74fWvp+SXnLX3//buXzLD/e/37hx7MMXtl/DrS+H8xfP+j5O377bSD9PCVfkb/e34H6d6Cknw/kO8D4bCuW3up/bmGe7xa/474w8C/4Q26/Lvtvf1eit415kupJkiKPKelnAcn/pZAGLzKPmgoXSiq8zqm99+U7GAH5U5x+/nRWdH2p+Y8X/ZKVn69+y1b+JiX8nq2s30vSb0EuP5//+H4Q++2D9HN+/WXm9n2lv74/d7yfFf0Wff9372737ZldjFwIdflu6scW3yuum0zhU7fA0kqs/DOGqO+389uo6kUp7Lji5HdJFyVdV7JsGXLlvOcliyVmPUErL1SXpvdmS1W7Ls8YueNXrtbU0yaPmtZLe076cy3ypu1xhTdbY+YtXKrCYMJX/vFv+KdfuNdbQeQVcnmxYl2qHmyW4ZnzRy4jI3K/QbUX4B+/v/94XhMZNI+yt0gnsPMzxDT5CwnSS3TiQuP504NS93cAFsTUxmIkkQGyJsmkSKyqVYRANhI0WLqmrJMMiJluFqk50UVVm/rUfKXKu1RNeTvwPmBGJowuq+Smp0Gycjbqp+ZGDQ1Lls2sWLVm3UYBEYuVUmpxUBw11Ryq1VJrbbXX0VLLzVpptbXW2+jaE6BpvfTaW+99DOYcjDz49uCCMabONPO0MMuss80+x6J8Vl62yqqrrb7G1p02+LHLrrvtvseRQymdfOyUU087/YxLqd0Ubr52y6233X7Hz6x90/q333+QNflmTV+m/ML6M2u8W+uPIcThxDxnJExDFjJePQUUtHrOYpOc1TPnOYsd+EumLNI8Z1s8Y2QwH1G78iN3QT8Z9cz9v/IWav4lb/rfZi546v5h5v6etz9lbTsNrZexTxd6UGOi+7hmaAPnCsnpSvATj9CSbmo+7L3nnnpOHyW3Ve/Mu1EvdeV6Uu9znTLTlt6BOcroWK9VGDKefltfd+vsWjrBnoRKba2peZ3Km7ms6ysgrvmmMktq/jCSbI3j1EHnCeNkmQWAK2ndWUIZe0m9RCndM8pREneajLna8eXHE+sx8hFtt1pVtO0zBpB8MyNmAqVzrRNKP1NyHXMLIT6k9tq2mcbiW6eURqgJX6+g9EnXNzpuG5Y79UKNlbjGgnRDAwYoqjRv3I1d2q5zzlvkZmOCPLyqiHGbh1r0La/Ljq+rgGZyXRtcthsIL28CV2SrlzaKrk3VUwck6M4UB58hLRjV/q/n8PMNlQLb5YOOWTJBtgIl+sgpP95JaYx+4RxL9WyI6bI0p787yKcEmocC7K85KPKSzsoyrFTL4kJuEKO+mCuNz/5+G+Ky/So9B4KVdjs+/ballI/sOgygbTe36Y2GHmx7p6nXYr97y+k93RGT+euIduxlBqt5U7LXji26ncJEY9076ad6bbQ+t66qJdFhjcjNQWIZVk+bZEfbJfc6R2heW+2WPXK+hU7eVBCppa/3qWl5sbdd0y5nXv/q3fTUKTpnutLb2vt00AxeswWdkblig+5Pa9RyCxHdZvMmoXW4srCZVvSMsw95XRQiHENlHVpsVE8/DUNM+C5QkU5kQUYAlco9aRJTAdN01kZrLuqtmDSbsx6KQ3TzPeo9lx1OvWqtXwUZWiI2ZQLwNmaXhuZO8YzUxTavASHiQeyMwnZY6nJa9fKoOYbTFmlB4DAdfS/EroncnSOYNptfutsqnruUK119xeqiZU9sWwEpQ6nQVYEg1gqmzaud1+NQcw0m7rMBTaTR+JRQz54JUh3FVm2nLth35E2f7zFsLqUg+4EEbBqlVvaKo8V0imdL67RK8579euyqWvEEOcmDgJDFrn3Xs4BEz5p6mXHhmeyAC7zlhNVRZ6hzut2nbgs0PjIJ8Bm9Emi4JJWbjNZfbTfk8UnaY/LWABJt3dr4I1U2M/hSnKUe1VKoIrI0rVNwcSbkHdOt9nh0nRxE6MSTQK/ezzYiVdnUjgd4nRSjUqZbYBixsyiDtGiFC3sB8ou4nUTHXtMAM5w9yXFBCB0jxZN512maabCKI+jSYxmLlnoBICIDmD+35XMTeEWP+taARYYgksLcfb5oNSmv1lWnpaP1LgMlQWQZIP6AquJeACtmBMi21dsRBrqGiGYB/VS3JxsgoDQQr6xBbyN405F85TRjr8Zcyya8MUs+UEZZkINQkNcFGOQqzcUx8aHyKHEatRHlXNtMsBBPBQ5jDKAccjU0PJW8GCVOrb3Aa7JjO3Mz4Mk31g7mAjbAGPyxSDBjTMovesoqfVfGxXghJjsNY3ll0IytsZZiGySDT1Hjl60CGHbokCsEpnI1LbNcSFx4h3XI7bnS0/Hsl7FlEFDo1aPAki8gbURpPW4a+5zhHLZjns8meCnQdMgP2wA48w3vKtcn0NMNxSBmGDPSMdQycHPKHUiRjCGgGpQ9jjzrBlQyiLDnXa+LsIZPBhCu9qzogqQneIb2ZR2IlQZhQpObbdXJd0pBbBCUhmqjRpo4JKDBJ01wdF9A05B+yBlC7PBH3VMbo3dvAKCmIvtyBn/aaWgAIMAXMp4PS/797Y1Ht4EsrAh2yGWuXgRAp7RGYUykGlGAxfvU2Dy2qMmdJZ3eLkFvKsgzGufgShAgQG/w2Ylbpz7ygEkOgmix3+Ojs3Sg2ICvJWSWl+xxEhjY2AY6ABlXTkTIQJBoQjCeAVCklBtCY8XXVV3ptHumRx9wadsPAS6ghuWz4Yk5dg2gN3J3AqTRxr6Fotx6MBwlO3yzuk2KiRoChTQPSnaQ3Xp34nUzdXKg8iGppx0gSBI6UBSLfILIB2ClYkCJNPQefZf5uQPQTZlSMxXMO1L6AjKghjso39wD9lKoWqITK9JiwcEg9gK+KbO6EkQFkW5XetvDS4hAzpWQTKXq7eWCIzM1BuIjnTQy8WDUfX1RkLaO6SrjotYdNClOOo/UAieFnZ7pXXtKgkMPcBqgYBgbuiQZQi9D/E6ct/YLaBALClMT4gYEnM7WxgIn5aPm+IJ6qeJeMETHUENhI1b6dmngUbFzngDLeRGBk9NwYVNQOoAhNNGSHdoFOTMbchcdGQRguwO9h4QHJp1d0ID0GsCvRGYXkESgMpd2yAFWAm7TPiwadYdQ+IiL4PP+1BfI3vrRF/ut6y95QUWA4GyYdyZfXV5yggIftMOYyQKdDZqQr9uhVwRgr4nMpr1cWpCR5AtoWXG2nc5DV9VzmNfiBtpp1Ibx6RqQVnDfuUK7RYcZuIFWAEBAKFwD0qF/Si65UEKX8dZe4+nbeXzN1R9g2qMDMwNCKzx/MSsn+vIfTbft4sTfOomeMJR0tjTBl3rp386fCBljwEBp0nvpCT//qowx/MjF0Oh59oKu80opbYOOQJ3H7VSLiBrcAOYO6ET1WCCI7kYIxCZ+lBfYjGtjjgkq4z7wbmQySalopAXWwH9Kk6FnhdpHR1z8KSzSETcZlsdbkuYtgCVshA57CCAU/csgnPbicjB/IAyJK5XaQ/Dml9kAZHsjN/wf15CFRGzbgB+BIGKVcSG4Cf8Y5nCO8wgwrGsZFAHa0gtXA+lhdkS5gaYXv8GmUetgCtS3Ep5qYGvR3BGjBi1BnBsfvRBuM4O5WLPh5xoBdU+s/UzM9YVzK+oUcUdgEsyIKfSjkTLoRdTGAkqMnoDeYdRFnA82ERDPIV0YE2tZqC6R7WIJ/soVqgXpl9vNhFbzLLjEAbbxiQg++GNnIIYmYM39hFNcMkcUE35wuOYAOxDIyESF7QgothSijq1c7B/dD7BAKgrLTD8cNWMsvAj2C0zk00ijFgrT9RV1t/H48Wlc6hQ52FEGs66N0IXXYbi7nmwhHXLpz+AqF55O2wU+CDvQ91h0wgbY0Dv5YP8gIHwJMoP4dez6cw8wG6WTgXbqyeWxoCPwkzUyHR0Ml55968SyXhe+sY6OvELEX2DqHTJkKwtzDYoNP9hIQtzDcARnX5QQQFTIj15ve3siGAJhdCkYTMKqTpRRPU0H5RoXsEHf0cVkrSfsLPaeFiHtFEAmvd38Oj//QaBg7Smau/Dr1BX0TK6iK9tya8y0hZ/cHKyoF6LrIBwmVWkYIWYpTITpmHtvP5Hew6MO7tBGzeOAyLNKvSHmKXYmCe0BPPttSmWk4rhNNhuuwyk73kOvxDuJIKCU03WJYSKU6HWnfvjBV0DZ0LCI5xgljhhADiaZnbYzo7R4erQpLAogZq9o0UyDLswJqwJ+BE+gJeCAVs64hyP9wNfxSReUKB1TmLujalgZnqKy+10U0QA0kUniGBsxBIQvBIlorqiJFqdzybZNe+8I78X1xIf7X1YDJCFH6ThFFMQDn3SgkyC4/oUeSmChVBe9WRslnVzBoPrLnH5QA61TzewDLqoutMAGXAMtOcEr5ilCfBroW0Mbk6EG7YKBRiihv8veJCjVLEKM6XeIZ1VzREQlzYJ+755k+FbIKlnGuwFsGeE2KWfLxbpRHhQ24hPhwdKrH0KVOt0PsINRh58eOZSt+JBRLPtxyQ4jVtPph1JGbPYhn8NVLwQHUMP3GhF3mO2HaUUQ61gtl4kIMudEHJUb6qDiRwJ+mkQEEBqQ+tNEgvHC2iJuFKhHhwByY1a4f2viK6RU3a1m0BTUroF4uu+57IQiF+rToRn/DU1tlXepn//5cT6aMHmlqj59myGAuN3lMmvQuDCa6TWVU7//N1vxQH7NlrwVzuRnXkAv6VKIy49i0AhAOqiCBgkD5h6r+flFp/uozHjevR6AA1C4freHkfUvHebu90NNrsUgVvr5UbY71Vf55BangBHX3lvGG1Z6J2GmUP/smQBHP06xTumgjmipjksZOJReNNTPjT3QAVTsd7uFxtpfR+AnecQV0QRpO9qKLkbZJDiGEqpGmypDYa9SOKujLoBGF/ipLG9gVAg5pIFxFAAU8+hEjEspTSsaoiAKGtvG+FEk0U+kbnikR9UbLC9IO+gb64rMEOwItT3EtYDfAQB7MRVOrac+Hq+AFxRA/1FLAVeEYsutOFHhGjpSkEmAOApz0jkpdzoRCZsnKtLN31yAPTyIDp2SGkjgvDbQ8SBJwxzC5fAD2v5uEi9+YAOsupQArj8ScZWP9GGBVM+iAmBDP1SwsPxsAI9IWJ7O+Wi9g7DvlMg41FmTNT3ylfdcG1E7yCeSEJG0UChdtlqgoulf10hgb0M6JvTUatmlORO+22HN77WgO5kat14wO+gQNLUaoIZr9IPskBWgBmMVKOrQGbrb4bW64W0gxfP+hAXfLA6kcIfsjgAofmoBKQgNXbBZBbME0Uc/lyfQKBPzJLql3H6iTx+6EhmO6H4Kvv3gBBV1D5sTtK2fGlADxAhgRtWZH5DCKI7GQKkfG/itK3irJmSWCzdEkfqNO2yS0z8dWYRGaA08JGtOsFj1m50xDQkyBFao1+8JUKbaEDWRnlAfB2LDExsGl9Q0P1vCdLyCxfjRnQ0Ng2rA07w0M0FHCvkhDjsrnjYnOb/riJzHK9Ol0+0Bu8HtmJN4eJ+hF6KfnSDGndv2O83rdBXsbG1FsoOZuYO8vvMmcH3SV+xBPuRxJACAkMiZ8RbEA4qCzkC3RbAFZENXg9mSulsYCDb73TvKncViqXERFNsCBIyteRs1xDHV8qQ6G+4d9G1wyyjIdr/tgvDWnPxuDvrunajzLSEzT0D6mZjbLJdpSFSotWX4lLprfj6EiACnUUjT73uDe3hbv6mPwHXPQlW+Mx1gN/IQ/EXy/kcuteiHNeA0RZLQExId5ZjDFBCbh0qqDrPk6zkVP3jGi0QynwIKDLyeC5jNELEmGA5MRdJnMnkIr1ZNbmL1k+dFhSFT8dSgJ2rsehV1wD/jbMcAzzpCCDvqd6f8YLDm4kcS1+8guzynK17NLhoQ365PTor/jwQAHEwLFkHReULZSA5IjiLR/o4uIzO8+w0AOMW2MJfoeYR78aP2sf04GrOCBlsNu87aE8IKS1fhafI8/JYBVFEndMB8G2qRjsEl/gWd7A6dfpmop4HBo112xB2BQQD8n25RJMyvq3LkJG1NrXsZUeqfj5On6kfKPGvxtzf+2+e/BiL82//fhn8DF30djGTDiC4AAAGFaUNDUElDQyBwcm9maWxlAAB4nH2RPUjDQBzFXz+kIlUHO0hxyFB1sSgq4qhVKEKFUCu06mBy6YfQpCFJcXEUXAsOfixWHVycdXVwFQTBDxBXFydFFynxf0mhRYwHx/14d+9x9w7w18tMNYNjgKpZRjqZELK5FSH0iiCi6MEohiVm6rOimILn+LqHj693cZ7lfe7P0a3kTQb4BOIZphsW8Trx1Kalc94njrCSpBCfE48YdEHiR67LLr9xLjrs55kRI5OeI44QC8U2ltuYlQyVeJI4pqga5fuzLiuctzir5Spr3pO/MJzXlpe4TnMASSxgESIEyKhiA2VYiNOqkWIiTfsJD3/U8Yvkksm1AUaOeVSgQnL84H/wu1uzMDHuJoUTQMeLbX8MAqFdoFGz7e9j226cAIFn4Epr+St1YPqT9FpLix0BvdvAxXVLk/eAyx2g/0mXDMmRAjT9hQLwfkbflAP6boGuVbe35j5OH4AMdZW6AQ4OgaEiZa95vLuzvbd/zzT7+wG2gHLCMTfiIgAADXhpVFh0WE1MOmNvbS5hZG9iZS54bXAAAAAAADw/eHBhY2tldCBiZWdpbj0i77u/IiBpZD0iVzVNME1wQ2VoaUh6cmVTek5UY3prYzlkIj8+Cjx4OnhtcG1ldGEgeG1sbnM6eD0iYWRvYmU6bnM6bWV0YS8iIHg6eG1wdGs9IlhNUCBDb3JlIDQuNC4wLUV4aXYyIj4KIDxyZGY6UkRGIHhtbG5zOnJkZj0iaHR0cDovL3d3dy53My5vcmcvMTk5OS8wMi8yMi1yZGYtc3ludGF4LW5zIyI+CiAgPHJkZjpEZXNjcmlwdGlvbiByZGY6YWJvdXQ9IiIKICAgIHhtbG5zOnhtcE1NPSJodHRwOi8vbnMuYWRvYmUuY29tL3hhcC8xLjAvbW0vIgogICAgeG1sbnM6c3RFdnQ9Imh0dHA6Ly9ucy5hZG9iZS5jb20veGFwLzEuMC9zVHlwZS9SZXNvdXJjZUV2ZW50IyIKICAgIHhtbG5zOmRjPSJodHRwOi8vcHVybC5vcmcvZGMvZWxlbWVudHMvMS4xLyIKICAgIHhtbG5zOkdJTVA9Imh0dHA6Ly93d3cuZ2ltcC5vcmcveG1wLyIKICAgIHhtbG5zOnRpZmY9Imh0dHA6Ly9ucy5hZG9iZS5jb20vdGlmZi8xLjAvIgogICAgeG1sbnM6eG1wPSJodHRwOi8vbnMuYWRvYmUuY29tL3hhcC8xLjAvIgogICB4bXBNTTpEb2N1bWVudElEPSJnaW1wOmRvY2lkOmdpbXA6ZjVlYzhiNjktMTVjMy00YzM0LTg3M2QtMGJkM2NhYWI3NWZiIgogICB4bXBNTTpJbnN0YW5jZUlEPSJ4bXAuaWlkOmUzOTMyOGRlLTIyOWMtNDk1NS04ZGRmLWI4M2ExODU3MjNmNCIKICAgeG1wTU06T3JpZ2luYWxEb2N1bWVudElEPSJ4bXAuZGlkOmYxMDZmMmUyLTcyMjItNDU5Mi04ZWQ5LTMxMmVkOGViNmMzYiIKICAgZGM6Rm9ybWF0PSJpbWFnZS9wbmciCiAgIEdJTVA6QVBJPSIyLjAiCiAgIEdJTVA6UGxhdGZvcm09IkxpbnV4IgogICBHSU1QOlRpbWVTdGFtcD0iMTY4MjUyMDQ4MTA5NzM0NCIKICAgR0lNUDpWZXJzaW9uPSIyLjEwLjMyIgogICB0aWZmOk9yaWVudGF0aW9uPSIxIgogICB4bXA6Q3JlYXRvclRvb2w9IkdJTVAgMi4xMCIKICAgeG1wOk1ldGFkYXRhRGF0ZT0iMjAyMzowNDoyNlQxNjo0ODowMSswMjowMCIKICAgeG1wOk1vZGlmeURhdGU9IjIwMjM6MDQ6MjZUMTY6NDg6MDErMDI6MDAiPgogICA8eG1wTU06SGlzdG9yeT4KICAgIDxyZGY6U2VxPgogICAgIDxyZGY6bGkKICAgICAgc3RFdnQ6YWN0aW9uPSJzYXZlZCIKICAgICAgc3RFdnQ6Y2hhbmdlZD0iLyIKICAgICAgc3RFdnQ6aW5zdGFuY2VJRD0ieG1wLmlpZDpiNWZkZGYwYi01Y2QyLTRlMzMtODZmZi0yYzYzZGY4OGQxNjciCiAgICAgIHN0RXZ0OnNvZnR3YXJlQWdlbnQ9IkdpbXAgMi4xMCAoTGludXgpIgogICAgICBzdEV2dDp3aGVuPSIyMDIzLTA0LTI2VDE2OjQ4OjAxKzAyOjAwIi8+CiAgICA8L3JkZjpTZXE+CiAgIDwveG1wTU06SGlzdG9yeT4KICA8L3JkZjpEZXNjcmlwdGlvbj4KIDwvcmRmOlJERj4KPC94OnhtcG1ldGE+CiAgICAgICAgICAgICAgICAgICAgICAgICAgICAgICAgICAgICAgICAgICAgICAgICAgICAgICAgICAgICAgICAgICAgICAgICAgICAgICAgICAgICAgICAgICAgICAgICAgICAKICAgICAgICAgICAgICAgICAgICAgICAgICAgICAgICAgICAgICAgICAgICAgICAgICAgICAgICAgICAgICAgICAgICAgICAgICAgICAgICAgICAgICAgICAgICAgICAgICAgIAogICAgICAgICAgICAgICAgICAgICAgICAgICAgICAgICAgICAgICAgICAgICAgICAgICAgICAgICAgICAgICAgICAgICAgICAgICAgICAgICAgICAgICAgICAgICAgICAgICAgCiAgICAgICAgICAgICAgICAgICAgICAgICAgICAgICAgICAgICAgICAgICAgICAgICAgICAgICAgICAgICAgICAgICAgICAgICAgICAgICAgICAgICAgICAgICAgICAgICAgICAKICAgICAgICAgICAgICAgICAgICAgICAgICAgICAgICAgICAgICAgICAgICAgICAgICAgICAgICAgICAgICAgICAgICAgICAgICAgICAgICAgICAgICAgICAgICAgICAgICAgIAogICAgICAgICAgICAgICAgICAgICAgICAgICAgICAgICAgICAgICAgICAgICAgICAgICAgICAgICAgICAgICAgICAgICAgICAgICAgICAgICAgICAgICAgICAgICAgICAgICAgCiAgICAgICAgICAgICAgICAgICAgICAgICAgICAgICAgICAgICAgICAgICAgICAgICAgICAgICAgICAgICAgICAgICAgICAgICAgICAgICAgICAgICAgICAgICAgICAgICAgICAKICAgICAgICAgICAgICAgICAgICAgICAgICAgICAgICAgICAgICAgICAgICAgICAgICAgICAgICAgICAgICAgICAgICAgICAgICAgICAgICAgICAgICAgICAgICAgICAgICAgIAogICAgICAgICAgICAgICAgICAgICAgICAgICAgICAgICAgICAgICAgICAgICAgICAgICAgICAgICAgICAgICAgICAgICAgICAgICAgICAgICAgICAgICAgICAgICAgICAgICAgCiAgICAgICAgICAgICAgICAgICAgICAgICAgICAgICAgICAgICAgICAgICAgICAgICAgICAgICAgICAgICAgICAgICAgICAgICAgICAgICAgICAgICAgICAgICAgICAgICAgICAKICAgICAgICAgICAgICAgICAgICAgICAgICAgICAgICAgICAgICAgICAgICAgICAgICAgICAgICAgICAgICAgICAgICAgICAgICAgICAgICAgICAgICAgICAgICAgICAgICAgIAogICAgICAgICAgICAgICAgICAgICAgICAgICAgICAgICAgICAgICAgICAgICAgICAgICAgICAgICAgICAgICAgICAgICAgICAgICAgICAgICAgICAgICAgICAgICAgICAgICAgCiAgICAgICAgICAgICAgICAgICAgICAgICAgICAgICAgICAgICAgICAgICAgICAgICAgICAgICAgICAgICAgICAgICAgICAgICAgICAgICAgICAgICAgICAgICAgICAgICAgICAKICAgICAgICAgICAgICAgICAgICAgICAgICAgICAgICAgICAgICAgICAgICAgICAgICAgICAgICAgICAgICAgICAgICAgICAgICAgICAgICAgICAgICAgICAgICAgICAgICAgIAogICAgICAgICAgICAgICAgICAgICAgICAgICAgICAgICAgICAgICAgICAgICAgICAgICAgICAgICAgICAgICAgICAgICAgICAgICAgICAgICAgICAgICAgICAgICAgICAgICAgCiAgICAgICAgICAgICAgICAgICAgICAgICAgICAgICAgICAgICAgICAgICAgICAgICAgICAgICAgICAgICAgICAgICAgICAgICAgICAgICAgICAgICAgICAgICAgICAgICAgICAKICAgICAgICAgICAgICAgICAgICAgICAgICAgICAgICAgICAgICAgICAgICAgICAgICAgICAgICAgICAgICAgICAgICAgICAgICAgICAgICAgICAgICAgICAgICAgICAgICAgIAogICAgICAgICAgICAgICAgICAgICAgICAgICAgICAgICAgICAgICAgICAgICAgICAgICAgICAgICAgICAgICAgICAgICAgICAgICAgICAgICAgICAgICAgICAgICAgICAgICAgCiAgICAgICAgICAgICAgICAgICAgICAgICAgICAgICAgICAgICAgICAgICAgICAgICAgICAgICAgICAgICAgICAgICAgICAgICAgICAgICAgICAgICAgICAgICAgICAgICAgICAKICAgICAgICAgICAgICAgICAgICAgICAgICAgICAgICAgICAgICAgICAgICAgICAgICAgICAgICAgICAgICAgICAgICAgICAgICAgICAgICAgICAgICAgICAgICAgICAgICAgIAogICAgICAgICAgICAgICAgICAgICAgICAgICAKPD94cGFja2V0IGVuZD0idyI/PscdSZAAAAAGYktHRAD/AP8A/6C9p5MAAAAJcEhZcwAACxMAAAsTAQCanBgAAAAHdElNRQfnBBoOMAGvbrvOAAAgAElEQVR42ux9eZxkZXX2Oe9dal9636eHmWGAYeeTRX4gxnwRDSYgSiKKigQElSVsLkgQEwQVUFlEDAGJH0FNBNFIYvSnqIwIShBlGGfrWXvvru6u7q7lru/3x6l66733VlX39PQMw1ivY9NVfbe6de/znvuc5zwHOefQGI3RGI3RGAfZYI1T0BiN0RiN0UDnxmiMxmiMxmigc2M0RmM0RgOdG6MxGqMxGmMZh/r6PXTu+2+NgYCNr7kxGqMxGrFzYzRGYzRGY/wJxM4LC/5wn7aA2IisG6MxGqOBzvsC0xUGAxeBycHV9xbVG6MxGqMxGui8+Ei5yio1VkNAqATG6AVorLVHLK/aGI3RGI3RQOdaYbKMklURkwN3OQ0v+CIAB4aMoQeg60fWDUhujMZojAY61wuWEVCALQdwXMdxXYe7ruvYrutwl1463LW5a7uu7boudwGQIwBACpAjziNqTNGYoiBTERXGGDIFmcqYgoyV3kHmw2TumR6gQUw3RmM0xp9y7MyB+0JjeskBXNctWmbRMoq2WbTMgm3kLbNoW4ZjFRyr4FhF1zEd+wrO7wcEhCuJz0AGyL6hahFVCytaWCn/omoRVYuoeljVQooaUlTGlEbU3BiN0RgH4cAD74IU3KNAZ865w13HdWzXtR3bdO2ibc0a+VkjnzONnFXMW0beMoq2VXSsomMXHMtwHdN1bM4JlBExgYjIcsjCqh5WCZr1sKpFVD2qhaKaHlVDHZoOWiiu6jFV05hCAbWKiIBYNVrGpaQiG6MxGqMxXt/oLIbpWEXLmDcKc8V8tpibLs5PFeffV5wHIweOBY4N3AXXvRiAlzfDAQGBA2IpZC79gsiIzGDIkCmMKQpTHlBUoH+qDpr+bT3SoofTWjilh+OqHtN0nak6YyKQr/DRDXRujMZojEMYnavuy+Wuy7ntOrZjzxmFmeK8nZ/dmZ+dzM9O5GY+WZgFIwfmDcA/C9wFZMAYIAOmvJUpGioqUxSmsBIuV9AZEF1EB8AB/EGJ7sDS6kxpVdRJVb9Jj7TpkdZwtDUUawpFmvRIQtVjqqYzRUECaQQB0J5IugHUjdEYjXHIobOPZc6bxYJZzOSyE7mZkdz03+SmoTgPlvFh27Bt23JskzuW6zqINjEXyBAZ/Y8howgZkVUCZ2DIEJBxRADkiC4wQARWjqmRqYypjIUUVVe0kKrpqp5SQylNb9cjnaFIsxZp0sMxRdWYokhAzMsw3UDnxmiMxnjdo7Nv+7IcwnVdlbsjudnmXPan06M7poavnB2H+SvBpL9/AhTtHEUNK1pI0RhSgMwoCualWJh+YYLNAEApiGYo0BwRGaMlOaIL6CAYwE2AJyiyVjRQNAhFH4nE+8KJ3kiiJRSOKlqIKSTLC6ruGhjdGI3RGIcOOhOVYTl20TIn56cn5qd3zU5cODcJhdkrivPzppG3DcNtc3AMkGmoaExRmKIwVgZZVuEosMJXCDgGEO94MBrKETetyCmmRnAQXWQuooaKxlhM0WOqltbCLXq4PRTp0iNtejitheKqhoCswW80RmM0xiGMzg5380YhWZj76diuzWM7PzZzIbwT4BsAeN1bmRZXQzrTkDEkaqKMpCUgBvSQGITLDL3o7GGfK38imGYE3IIhKeG4C+giFDn8GwAwBRQF9MijkeSaSKIvGl8RijoBcXQDnRujMRrjdYnOwS2btjVbmM/kZ3Zlx3dnx0fnMiOzmWkzPGXsAQQFmcZUnakKU0AKk3klp1cSMqMHndH3DnjeX+CnTHcAoI1oAyIyjbGYqqXVUKse7g5Fu/RIux5q00IhpoSZIuC5ch4bl1JjNEZjLOvYv9UoxDKLHKBhm+NzmYHJwXNHt8LbLod/BbDhberHE4peKtwD5AgurQochZANkf5T/R9i+VesyN/K75Z/lt+vAD1ygv7yVgBRRxZmDIBxxJzr3GcWwDbALIIW/lEsqSGmVL2Czo3RGI3RGK+j2FneIC//b97IT+Wye7LjGyf3fGR65ANzk5n8jM2bbchEFD2iaMQzcKRqbBEjYzAo9tMa3iA68KdqP8vsMwCDUvhc+ivpQACRI3MATABA1qmoqGhdoUh3ONqnR1bokbiixhSVBZiNRgTdGI3RGAd77CyiZhdcx3Wnc7ObR3a8fXw7TF0M8zCE16eYFlbmASOIyCuriFi4VLdXRtsS6UyhsPS+fxlEOYT2vlNeRfy9wmWXY28O4JbiaFCRqYCAbAYAXPsLRh5s8+thi7tudygSZgpr8M6N0RiN8bpAZ18Y7nLuus5MYXZibnp7ZnDj2I5LpocfyV0Hdh5UtxTEIuMAHFBmQCr/LTMSMjMBUPNnaaEKmSGoD5ntkHZSAneZBUFepjkAkJWIb3A4XOy6j4K9xzIAWQ7AAWhStbiiqpKU4wB73R34Os96T2GNuepPe+zV1bjg1fKaXNsLH1XZJu3A7Hr5Y2cRNTuubdrm8Mz474c2Xzy5B2bHoJh7GzJFj6uoAIALvFT+Vzo4P1BKca4MxPI/8KwFtexCZXD3bcoH8SCCaABwAQGAWBKNsSuQTTr2bcXclzi3XHdlKLIixFSFvY7uigYoN8Zre0Hu7QVzAC7vvT4k4MsG0FjPTV5d3u+DjprMjKZy2fG5zKaxHReP7YDsOJi5s7ijaZEI01wAFyWkxCBcoh9Gy5CNWAtnsZLhq8g8IBB3y8guAbe8rhejBasNiHnOgTuDlokALqLGlFYOUcY0duAi6IMqZK5zVA3gbsDxgqsEL5LX8PKmXVc5JOCvya6Xldkol2hbjm3a1q7M0BsHN8HUEMyOv8syikxVmM6Q2dwNaDCCoXHVkNaHpyXwlUPuCj0try7TGuijm8UZkeUfgh4pbZ6X2ZUQsMsR89y91jK/gMwBPCzkrtDD2mvXP/fgAcFaF3dj/EmN5b0ADsLLCQ9U9yR1WW5IOWrmwLOFualcdtvkHhi9MJq77nSrOIssrqkqU51S2q30Cb2ZPVmM7A1+JdBET1CMFcGdnDkET7YQKwuDZJVRsQut8CqVDCGIX3j5y0BAFZExluMA3B2yLQUREKNMURBDyNT9fCX5wgrHcVzXtW3bsiwZGfdH9CFuEsYYIjLGFEWhX5inBQ1wzqseRgO1D/momV66rus4TtXlxcUjLoZa1y3n3HVd13Uty7Isa3mvbbEpzrmmabquy5dxzVsJS62YLMsyTdN13SUckryKoiiMMU3TNE2rGt8sE7NRbmjicNd27J2ZoQ3DW7dk9kD++nc4Zl7RFcYAmEM3LqIXOuXiPUSfk0Z1dbOoG6wMIczwKTEqMXAF6MsvpN+lkFmeAyp5Q5EzdAF0hpcDWgC7HZvbpmoqFkCnqqWUA9rNwDCMfD6fzWanp6ctyyK43H8PhnRf6bquaVo4HA6Hw7quh0Ihurww4IwtYLox/kQG4WmhUCgUCuLbp2uSXurlIfCoDu6bppnP5zOZTCaTIfRcXnSm4Ka5ubmlpSUajUYikQUvV8dxLMvKZDKTk5OmaYpPt1e7pokHESORSDQabW5ubm5uXubYWW4uJU5owSwmi7ntmT1/N/huKFwHRm6GqXElpDDmAHdlCtnjdF96m/tpYUQfHYFSVOuPr4FLkXhF8oFeZYaE7CLE9nruo0cuAjKClwpYVEAdWQHgXtcF27oXGUMMI4syxgDJ1o4HGJllDFjoaA3DyGaze/bs2bFjRz6fp6m41GZxP0AzIiqKEgqFwuFwNBqNxWLRaHT16tWTk5NtbW2O46iqqigKHUYQoBu8xyE/isUi4enk5KTjOCJyIjzSNK25uTmdTicSCULnOvO367qGYczOzm7fvv3BBx88++yzFUUpmVzu2+Utwgjbtn/961+/973vpSs2FAoxxurccQho27ZhGKOjo5s2bZqfn/dd24vcNefccRxFUZqbm1tbWxVFaWpq2l+aDSxjtOXYg9Mj28d3b57YDTm42m3aplgqUzhyB+jWlOjdMvZxABe4y13XdSk+o6IQhkxBULx8NAb4aFIoy0E8AmdlIYiskvbL6YJkdyVwhoAOxEOMcEAXQAX4MKIGsMexwTbDjKmIKabEFQUku9H9GjvPzMxs2bLliiuueA3vyXA4/K//+q+tra107yWTyWg0SkjdiKP/pALn4eHhgYGBO+6449lnn626zCOPPHLsscd2d3fHYrE6VAlBGF3e11xzzdatW3/wgx/sp8POZDK33nprNBpNJBILxhCO42iKNjAw8IEPfGDfd3322We/613vSiaTq1atqorv+5DL4h7dn+s6Yau4e2rkr3b/31snd0MB/uAMhhVNZyoHcHiptZRXIVfCOw7gALe5a3FuctcC1+bcBc4BuGQWil7uWLz7OGOPM/Y4U+jfvzHl/xFJUuG3KzMBr+jwUK7iBq98T3ZyFuS1YExoSlAQY8hcgDtd52rb3mVZI7aVK3cJr3Gelofpo5+mac7Nzb220EwR0/ve977f/OY3r7766o4dO4j3cByHnhx9x7yfQvvGOPCMs48mVhRlcHDw/vvvrwXNAHDJJZeMjIzMz8/XYq5lrDdNM5vNbt26db9+kB/96EfZbNYwjFpHIr/vuM50cfrCCy9cll3/z//8z/333/+LX/yi1gLLw5OatjU5N7VnevTtEztgCv7Oad+pXRFiKufglvQOKPV+KvMVAC6AylhYUTVF0xStRDoDcgSHc4O7NufoVV9gqdobEEFlrCkUuyve1BSOKciQMQBwOB8v5sYL83nu5l0HARUor4VVpM1SClBOQvpYbwjK+zigi6AAfhgxDHyP66BtKYxFGdMRQ+XGtfsvYqRnopNOOumll14iUg8BLduinAwiEptGz5Uy41b1ZigWi8ViccE9RqPRaDRKNyfRcHNzc7Ztf+pTn5KXfPrpp1euXNnS0tLU1CRSLo0I+pAcjuNMTU2Nj4//zd/8TSaTAYDe3t5isWhZFiUqbNuenZ21LKujo0MwyAuSAIqidHd308vm5mbiOorFIsGlpmmRSETTNDFPBNMeUE6WmKZZKBQou6goSiwWC4fDpmnOzMwAQHt7u6qqta5MmVlmyPra+y6//PKvf/3rHR0dgswReUtVVVVVlRN9xWKxUCiIG1AsZlnWunXr3v/+95922mn7F50txxrLTmwZ2wETO+BD8PADG94VSgGiw4lrZgjgKxtBABfABa4yJarqCT2a1KMqUziCw8Hmbt6xp62i5VgVJYUEqS6AAqii0haOHd/U9X+TLbuZojLFBd7rON+fHrUc27aMWddhHFQmgazHMgmDWo4g1+EpKZQia47gAjKECKIL8A+ODQA/VNQOxU0yFkKJbdk/dwVjzLKsl156ia5FwzB8V2c0Gm1qahI59DrI6DgOXakL3oeJRKKpqYluiUwmMzU1VXXJ22677ROf+ERzc7Ou66ZpCpajAdCHUvgssCaTyRQKBYJmAEgkEtFotFAoqKoajUZN0yTphZD6LBKds9ksvQxeZpZltbe3RyIR13XroDNNBoVCYXZ2VlzDs7Oz4iUA5HK51tbW+gcjfhkdHaXZZWxsLHhC6GM2NzeLHGM2m83lcsHFAGDjxo2Dg4PhcFjIP5YBnX2hftEyxmYzr07u/ODolr8qzP/n/R98M9O5+FwgUwJliyNkgGhx13CdJi3ZGWvqSbb2JttCqg4AlusUbGusMPvH7Fg2N6MhKIAiAi+7fQIgY4iaosa1UEaPJhlTGOPAJxwnouoaY4wxDyuCyP1yEfBJNTw/faoPfyqy4t1Br69AjAKMuE7CtvtVNcqYTHIvV4mKHIHGYrH29vann376nHPOqbrwxMTExMREd3e3oiiy8A4CgiFxXy04IpEILUwheTqdJvSn24k2OzMz8+tf//q8885raWl585vffMMNN6xevToSiUQiETnz3oDp1y8oi0cuwzAymcyll1763HPP0ZtNTU0zMzOO45imGQqFVFW1bbtQKCzy8haRRzQa7ejouPrqq++9996qCw8NDYmw17Isn4xPVVVd10lyGkRSMa6//vqurq54PE4BRP1rUtO0aDR6ySWX2LY9ODi4bdu2qsSLrutiXpmYmKiz6/PPP7+tra3WTpcYO4tybdtxcsX82OzkByb+Gt4FhQcv/+tQChHdkqkR88iQUc68Mdt1fuw6H9FCnbGmI1v6zuroz+kRADBsq9ks/HRmbE9x7snczAVlJoSDJ9old2aNqVEtFNfDCkOGyAFUZodVVUVyKRKmd0Kz4TVO8tuNgtdECWqIrz3UB5aVgDaHEcdBtOKM9QM4sF9qVMR3SQ9oyWTSdmyFKYViYdMfN63oX5FOpf/jP/4jP5f/uw//HQDMz8/HYrFCoZDL5egJS6Stg+zhc889d/rpp7/00kt9fX0DAwPd3d1btmyZnZ2dnJwcHh7+7Gc/OzAwIJZvampKpVIkSmWM0fOauC4J9J944omzzjrrtNNOGxsbC4fDDXQ7lKJm0s8lk0kBzS0tLaZpTk1NUdYhGo3qui5WHBkZWWTWgTi0UCh066233nPPPQCwYcOGlpaWrq6uZ555pqmp6dvf/vYXvvCF8fHxdDqtqmo+n/c9O0YiEQqxKe7+5Cc/+b73vS+TyZx11lkjIyPZbPbII480DGN+fj4ajWqaJiex66CzoihHHnnk5z73uba2tuHh4VAolMvlDMOg1R999NGXXnpp27ZtExMTiqLQhPHFL37xlFNO6ezs7OjoGBgY6Ojo6OjoUFV1YmIiEonI58f/cLyXoOxJcHGAglUcnB4dmNgN85+F+wAB9EqnVEnGJgvUyjhHhiKIqDFVV7V5LRzTwzE9HNVCE6oeUrU7yEm5Um7iVS4DAMDfS2SwsBn1sMmVopeqNSlQrewFfIyzMICGSmWLKEEvFXyriIgwy/mlrjvqOsOOk3OX2TUFvUNRFE3TEomEbdm5XM4oGn19fdzlw0PDK1asUHVV3EtE+1KQK/J1RBzTELvo6enJZDL9/f0AcNhhh2matmbNmqOOOur4448/9dRTH374Yfl4UqmUYRi2bdOlSbQgaadisVhTU1NPTw8AXH311Yj4/PPPDw4Ozs7O2rZdNbPUGAc/KPsC5/n5+a1bt37rW98S4QJdCbZt27ZN1xiNRXLNUvkCiMvbNM35+fmenp5QKDQ5OXnYYYcBgKCkiUygS9qRBpSLX2ixtra2fD6/YsWKqampSCTS1dWVz+cRMZVKUTVK8ACC7xCLHYlE0ul0sVhMJpM0iySTyUgkks/nu7q6nn766c2bNxOFIu6pVCoVjUZt2+7v749Go8Vi0TCMdDpNE0PVXS89di4/rfN5I78zM7hlbMd7CnPfxg8pJbjHsjgiYFTkwecygVv1m6oUYaO8YzlD2AYAwF3gDrishPi8/E8KNKV9Bdw8sKoLUuBQq6nrUMi0EREVBBdwHgA4H3HddsftUiCOCu5P9pkwmuLWUChEN4+u67l8bu2Ra0UYoqqqfKXSRQbVtPRNTU3hcFi8L7J/lABUVfX4448fHh5+9dVXP/WpT+3cuZPW6u3ttW2b0oOIGAqFEomErutydv688877yU9+snr1al3XVVVtgN3rdwgJs23b99xzz3e+8x35ulrGkihxeZPQnt4MhUIrV6589dVXBY8sJgCZg6a1xKyQTCZJ7plIJATUBkuoFj+F0OTBpYGI6XT6Ix/5yNe+9jV5FSp4SafT4tlRvgHr7Evd69mzjDKWYxfM4thc5t3TwzBz3V9ZV75V0VWmlOLFKkZFgPXAsfqZkKYDSURRgfVyDM6rzyEli4yyQ2kAoKsmA8F7eCI6luxMq6cTS6f6IxymXL7TdXTEFgYq50zwvMvEPvu4Y99FRinj7EzWd0ktZpuUdK6j91y9enVbW1ssFvvnf/7nD3/4wyKMomJFuQCXlg+FQohIapCbb775xhtvPPHEE9va2sLhMGF0g4N+PY5isZjJZDZv3kzQ3N/fPzU1xRijZ6mqRNzSrm1x9QqcJSpAEAK2bVMRVh0OkOJoUlNUjQwWeZDyHRdci+67IEOilcfeBiVL4EU5wa9hGVNz03tmxiB7KeQg51gxNaQic8B1S6Er1sM+T3lI3TC9Cpp5XI2aA8sjyHo44J6IWN51TQdRf+xcxZLUvy7tRUfUEGeAX+C6E5wXOXcO4FNnxfZEUtH5/rTInA+BLPcOytW0trYec8wxf/7nf/69733v1ltvBYDh4WF6YIzFYohIVV7ZbJZzHo/H4/F4e3s7ALzwwgvvfve7BwYGpqamCL4b5MbrdMzPz+/YseMPf/iDoBdaWlpUVSUSdn90XKrq6QFlW49gjAKBBKaIrOnuWMaDFDeI67o//elPgzGNfDMufteLwvKggR4HnjcLI9nxwelRyN8A9l2uwlVUbOAucKwijZADTNmus0YoKVcVlgUSvJxSLMfmyKvgvodVrnDNWMcYOthmxQPPnrnE02Cl0sYFyoenlMWCwHmG8xnOAVBF4nr2b/WgHGhQRXXVy9QXSjPGdE0vGsVal7VvRYoCIpFIe3s7ifbkGME0TU3T6JmXWA4iVVRVTafTJNp77rnnLMs67rjj2tvbff4J+x5B73uZbwN5659V8gAaGRn5wx/+cP3114s36XtfXtQLHobMufmOzWfFFUTz/R0K0MZjsVgsFpNVdEve9V7HzoSsLuezxdzuqeGh6dFzbes05eIQKm4Je1mws1TQMQN9ibgq2OpPBsqV2fR/hnUO01ucDZ6pojxjMJEYrHLM6GmzUpU7x4q/XemDkJPTPCAATnE+6vJZKXzef5eGL3ehaRpl9mrBlqgQoZIW+X0IpB99DJ24Pdra2o4++ugf/OAHxx13HAAMDQ1NTEyEQqFkMkliJsqJU2GC2MWtt956zjnn7Nq1K5fLkRRvf9w2vqi/WswBvBG87z1AF4vFsbGxzZs3X3XVVYJXNU0zk8mYpqnr+mLED0ubNevMnQtOq0tjmZdweD5ip9aRLB86cwBe+Xoc1zUsczo/e2F29Auz49xxkmpIZ0ol/EH0+dl74dHnSVQlfJZ9kECyAxX2cQSMrASlVYNSIZ+rTAAIPoM6QN/M4QFfkANmX/fCSntvwCCYuYiAMAswwnmWcxuoLN2DC8uLy753VFWVMbfqKgKdo7EoAJx88sny1ny/VL2kEolET0/PUUcdddttt3V2dooImshrUhQZ5UG3sTBYGBgYmJiYWLA6cW+BeJERtFjOt/yCmP6nhsjyeaBHokwms2nTppdffpnebG9vT6VS2Wx2fn4+l8sF03HLdW3Lv0xPT8tX4xIwt2rYsbR1gznGxXSiWMwBLOUMGpYxMz8zPDcJc5dDYdp0nTDTGDLXAzoB+yF/7FyJSb3tTjyfoOI05y0JIegcRwTAKawdPksCOKyY1XlLurFKsYknXK7CTVfk0D75MyUhNYArAfMAgxwyAAYHpyaJs7/G9u3b9+5r9cpF61+d4qblnLe0tBx11FFf/OIXxS1N9l2RSITSILZtUwGurNa46667Nm7cSFzHcgU1clFv/avfo1T3LsAP1u4zry1GU8VHLpfbunXrO97xjjvuuIP+mkwmu7q6jj/++He84x0AQABNvrL7jybyRR6H6lS6dzlE6n5SNI3M/PTo7CTkAcyHHP1yXQ1VbPWxVjLQJ21Dn4K4GjXhW1YKgcvgeQ9CTVj3VG/7C0+qtVaBIDddvteDdShVZNHCmVpBVBALgFdz/iSHAkAYOIMD1VMBAABIFrr45zJikOvfUXLOWty0qVSqqalJ1NqOjo4CQCqV0jSNdHgkyCNVqUDnV1555Zprrvne977X1dUlQq06DY0WpJh9gbPgQOX0ZjByYeVBL7AcUMsUZ61D2q9W2q8tpV51X4VCQWlSNm/ZLL+5bdu2U089tbW19eyzz/7hD39IOyI3zgWf8Zc33fKnjs4ELnmzMJqdnJqfBvtqwCmq0AtyxhK2gr+PlFfvXG+HHtwEb39u9Kuhq7DX0i+LbA5bEf5hzU8EASG2hOYIwAABIAIAAFngM5yHAFUEdgD7du/tzZzP5/f2bheQ5zhOa2vrU089tX79+rvuugskkbVY3jTN2dlZTdNaW1sjkciePXt27969c+fOzs7OZDJJjMcSXDh88ibCYtM0yX2GBhk8UeqcsJi4F/KqJhN0qtqSI76GJYj4oumsjoyMvPzfL1991dW+BU4//fRsNrtjxw56SdrkA3/2Dr0vS138HS7ivpxRGMlOZOZn3u44WVQZMgDgcjjprRmRFcrSKcRqvQRrExRyhI2+QpVgl0a4EeC6YCtY8Tm8aUms0ofQW+CNnrrH2nJpECQKQ8wAAMIsh2nO4wgxQPWgvFiFX8zeblmEz4yxlpaWdevWTU5OilvURz6apmmaZiqVSqVS1FcCAHbu3Llq1SqqLVzMdFI9v1eOc13XJb5b0zTiUgYGBrLZLLnekIyEpg1d18PhcCwWo+M588wzxdYoURmMy4K7dl13f2TASMAbTMO65SHqMpawzaVdJFT/OTQ09L73vc/3p/POO++jH/3oz3/+86OPPvpjH/sYffW6rsun8cBc7fsv6ff6iJ1tx7Fce7o4e/H8xMWFLAOIqrqCzPVxzRBoECXTvn4NRh1krnAYXOIJy5OyzzfOE8feCTCCIHsze9pQBUkMv4s0AjJvvF2BZ59Y0O/FIbVBBMAiwBRAmkMzQggOqSEHraFQqLm5ua+vj/4UCoXm5uYAIBaLkQZLYJ/oFAcA119//RNPPBGPx1tbW5dctkCwSx28xsfHb7zxxt/+9rdL+0S//OUv29vbqViGaiarLuY4TqFQmJub271790UXXXT33Xfrur4EFa2cUCKTk+3bt3/yk5/s7u6m7jMCnV3XnZiY2L17dzabpSLpqk4p8japdu7pp5+ORCKXXXZZZ2dnOBxeArIDwOTk5MjIyM033xz80/nnn09Ji5/85CfynN3g7g84OrtO0TSmC3Mw/5Gp4kyOQOMAACAASURBVMcYQETRGTIuLgtJ6YBVO/hJnkSeplA1aA15Oxy8VSSVX6pH3LJgQ8LcoB+TT+dHP5m0d0AvcPubb9XYIAJ8GMAAyHDeiniAE4MHJo4QewmFQrqu9/b2fulLX7ruuusGBwcBgPqk5PN5GZ1N05QZye3bt/f39+9L+S9JsE3T/O1vf/vHP/5xydAMAC+88MK6deuOOOIIx3Z8FWgyJ+66bi6XGxsbu/XWWwcGBt7znvdcddVVd955Z9VttrW1kTl9oVAIh8O2bQf9MMmKQVGUV1555a//+q+pwFKgMxVcjI2NXXTRReFweHp6emhoqK2trbW1dWhoSJhhRiIR8iRqbm6empq6/PLL//M//zOdTj///PN/9md/Fo1GiRFewlc8OTm5Y8eO3/zmN74/PfLIIyeddBIANDc3Dw8Py+eqgc4HCJ0pGQgAhmXM5uemCrNgQNYx4kpIR4UjyIwBVHHj9FSjSCZzsEAlt5f2rbggCXYD8RrA39WjRCBY/x3sug2etrFyT5VAuTkG5Hco0z5YbsKCAMAANQQTYBpgFniRYwxIYl2iX+DAqjj2EzTLsBWLxXp7e6+55hryFaOHXFk2J8wkY7FYPB4fGxu78cYbv//97x999NHUnzhIKdTiNDjnc3Nzc3NzGzduPPvss+U/HXbYYUQ3FwoF0qIQ+h9zzDEbNmw4+eSTCcFDoZBlWYRZRLvfeOONtIU/e9ufffVLX6XuAcECXCpVLxQKmzZtAoBisUjIRc7XPsqFQl2qzTEMg/Ko8kezbfvoo4+2LGv9+vUAMDo6KqzixSADoG3btrW0tNi2nUwmqSQEAGhrVMmp6zoiEpnz1a9+NZ/PExxPTEwYhiF8eeqQwtybFM3lcrlc7oYbbvjxj39MC4TDYfpC77777iOPPJI6lgYzqA3K/kCgs1woaFhmNj+byc+BCb+wjbcpusKYAyBcLNDvGyQxF4he+yD0u2fUiJ6r9JMqb6UbABA6q1MiCIFOr8H5w5f9Q399YHC+AX8BoSz/KC/PSY6NoAGYANcB/DsHA8EG0F7niFznlqZuLD09PStWrBDss895wLZt0m9EIhEBQJdddtnY2Nj8/LxoBrqY2J8xls1mFUXxQTMA7NixY8WKFWTNTuhM2zzhhBM2bNhw2mmnEToLEWE0Gk2n03L098yPnnn171494ogjqCRShMwCiagpzK5du2h56j80PT29tBMosA8Arrvuuueee05+vKAD+Kd/+ifYGydumm/oM15yySUbNmyQO3TUB2iB0XNzc93d3fLhibn26KOPfuMb30jNQRpIuj/GImz9JDAxbGMmPztv5MCFE8EX+XpD2wq4V+s5Eiy8rqVZ9imRPbBY2jivF3Z70TawJ6xptQEAHrNQLvmRVjUj9YXCHEuF3QkA4JADyHMwgLuBXuYHFcLu49B1vampSXSAdxyHIkd5L/RSRu3x8fE9e/bIMFoVLGTad3JyctOmTc8///xb3vIWwW/EYrFEIpFIJNLpNIWKbW1t8opvfvObH3vssTPPPPP444/3RaamaZJddTKZpDcvuOCC559//ne/+93Y2BgxM3L5ezgcTqfTwTMQi8WI5CE1SDgwQqFQKBSKRCKJRKKlpSW4hbPOOisej8u2v7Tff/iHf6h12klzQnNbVRPtxx57jFrx1iG+fOfZtu1cLrdhwwaxpDzLPvTQQz09PVS4fyCZtEbsXHMULWMmP5s3CuCCUqmj9nkiC1yu4Fo1ehgX54JUn+6oCe03IlxfdaKp3jkwAK++mkGvYK6GZsO3Zmnqo1AnxyGH3OAYQlAPPmgGAEEN78vQNC2ZTIpiAdu2TdMMqiBI00aaB8dxDjvssPHxcVFtuOCwLGt4eHjz5s1/+7d/K08MyWSSwMI0TZJd07jnnnvWrVvX2tp6xBFHzMzMNDU1/Z//838SicQzzzzz8ssv33HHHUNDQwDQ2dkZi8Wo4cvu3bsB4MMf/vBDDz103HHHhcNhgkthPRyNRtvb23/wgx98/OMfP//88+fm5u677z4AyOVy1C2MBIVBnTXpLnRdp5J3EQtfe+218XiciuObmprIPF5MBrZtr1y58sknnxwaGsqWx+Tk5O7du4eGhmib1OBOxLbXXHNNKpUiR5TDDz+cPF0X+QxEDwfJZFJ+LiEBOwA88MADJ598cmdnp7AzbFAZrxk6i95LRcuYLswWzALAFTozGTCOwei3SubNUxzoq/OWJXbVuWNKCVbkbxxQrhmselHcBTjiqQ+swZL41XW+Shb0KqzB22lQNK8CrxrE82xCcaMBPA9YBIgf3CTyvl5PqhqNRlOplLifSdlGN7YcRMt73LFjx+joKK1VtTksL8/wtm3Pz8+Pj4+//PLLF198Mf01EonYtk1aOiirx8S63/jGN9auXbtmzRpSNHd0dCBib2+vaZrHHXecpmk33fTp22//nMB9Oob29vbx8XFiXb7+9a/H43GKlyn8JKo6lUqtXr36gQceyOVy5Lx+0003Eb+RTqc1TaN+o8RRiM5e5Jetqmo8Hn/11Vevvvrqnp6elpYWMmhPJpOdnZ2EpDKhzxhrbm5et25dd3f33Nzc7OzszMzM8PDwk08+CQCtra2u6yYSCTLfufnmm2mb8Xg8HA4nEomOjg5Rugk1WvD55r/R0VHRB4fyroLBOOKII3p6ekTSsjFe49iZA+ecF2xjpjBXNI2zgZlMZVh2iZOTb5XX/mZRUjdu9PofYbUgF71eQ8gl+pj+NoIIiGMAqaqkhtQ8EP1W+uh1nPbISPzdUjxtXz09VwABfex2wNSJLnwToMC5geAcrLTzPlZ20Q3PGAuFQiJ2DofDExMTpC+WdXVCfCZgIpPJ1PfcIIA2DGNkZGTTpk0CmletWpXP56l2nEjtQqEgXP//7d/+7ZRTTkmlUolEgvTXFMxSxURHR6em6bKPRCaToahW1/XDDjsMEbdv33755Zc/9dRT4XC4vb2dDNfJZ0pRlN7e3tbWVtpvT0/PY489dtFFFwHAzMxMV1cXIlI3aDo/VO1Cuu94PP7HP/7xox/96Jve9KbVq1fH43FqwadpGlEfPiU1IsbjcVVVaXfFYpE8POmvuVxONO776Ec/+hd/8Rekn6ODVFWVYv/FWAXRtxMOhwcGBp5//nlxbdC8de2115566qn9/f3UiK8hzHht0Nl33l3OVdctWua1xiUfsm9SEYHJvXX9uOaRA3u9kDyaaEn2UPVikYGvYjYHFZ+5e+sV/klRMwb7slS8SdGbokSPA2lVBzsImI5WDkw8DcgHZAMUAIoc3EPx+U8mZDVNC4fDZ5xxxvr16+Px+PDwMIGOryknoTO1BCU4E+jso0HKyzuWZU1OTm7cuFFIuwStTLBLICKg+cEHHzzqqKPWrFnjOI6IpkVsrihKIhEPh8Okyyb6W0wwZOUjeiT+/ve/J9aYCAfh0UqtlcRUdMoppwwNDX3iE5+AsmcQPTHIDw1Ur0jvPPDAA/fddx+F2ILArXV6KYAVNFQoFFq3bl0pIVROb95www2nn376m970plrlJws+Ktm2nc/nR0ZGbrnllhdeeMH3RZxyyinHHHNMW1tbKBTyPQk1xmsWO7uuC65dsA0wocvpmIBZBRVZg1wRpvkrNQACumCZcMCamg1JDiHzuR7XOrga4WWslmP0TAolKOXVTEEDTWlLPqgeJQZ4P2BA9SzNN1U+xqUADqEzVOyQDsmog2ArFAq9//3vX79+/ZYtWwTLLLMNInYWt302myW1WVX3DLLgmZ6e3r59+wUXXEB/6u7uNk1zcnKSfDyIAxVzwOc+97kTTzyxs7OTQITKN8TMLnataWpTU/rf//3fn3vuua985StEzpDSjqrAaWuf+cxnAOB3v/tdc3OzIJTFEdKWo9Ho1NQUtVIESTtIzw10kIZhUGJQHOd///d/n3jiicSEiNrLWtBJn4UxZlnWrl27NmzYIL8PAIcffnh3d/fs7Gw8Hq9vElKLcTYMY2hoaNOmTQKaxWhvbz/yyCO7u7sp8ViVg2qMZRyLLd51uQu2XbRNsGGz6zBkCjKsqH1FMCs38guyHDLcyl5xNfufePAV/SYbXYAA0AHVgd1jgCdE1x67Z28doSTIAG8to+wK7ffek4yofZlGoWhmAC4HA7gJ3IXaNPvrFpF9do6apsXjcTmpVRWdRWWdoii33HILYVmtWu18Pj88PEz6YmJaw+Gw4zhzc3MC1omVpgXWrFlzyimnpNPpoChb9nJSFCUej/f19a1atYoWICrAcZx8Pm/btpxJGxsbozfFUclHGwqFOjo6RG6T/I4pEicSgBQs1DZU4GkmkxGdcGtZNfkCWErZZTIZkfkUhPLKlSvb2toEiVHVot63TZnYMU1zZmZmy5Yt//u//yu+O/rlpptuevjhh9euXUsTyTLmKhpjX9HZduwxy8hbRbCg6GwHAIYMEDmUtL0Ld4GSE3HgczKqzWz41vVmILnUErsK14teryKUfO88JSS+CUFomn3drap9NL/NU40WtgAcwORglZOEh/ZQFCUWi3384x+X0ZlyYgIIqPyaoIHIAQJWuWJC1EQ4jjM1NfX73/+enBwoMhXlFbqux2IxTdPkJrMrVqwoFAqqqgonkKALNr2jqipJ8eT9Uk0jtXQR/Mnw8PD4+LjMwPiw3rbt1tZW0fTTtm0ikQV6ygan9M7IyMjY2Jjgpuu4nci7KxQKw8PDwiRWqABXr15NjaKhmlV3rahZGIRms9mdO3e+853vvP322wEglUoJfd4b3vCGNWvW1EkkNsZrhs6O65i2WbBNsMFwHUBkJRsK8MaSIGftvMgVtC5adF9BT4oRpO1UM+/nAIDbPVMFcsCy532phavPe5ojLYBQcnQqLc8RStUlCNyvdJaOpEbdIxexM4DFwZK6hYsF9tNl/hreP4qiRCIRET5XjZ0FJxuJRAjvHnnkEfkhXX6cNwxjYmLi0ksvrVyQjlMsFgnfVVWVBQk33njjU0891dXVFQ6HBU75fIXk30keJwf7Is6laUYk6EZGRsbHxwXdAYGWNNRoZs2aNZ/+9KfFxkm8EWR16OXg4ODIyEg+nw8Ctw9AQfLhy+Vyt99++913300LiNJwSjDK6FzL55oHBiG+eDpJJpOihBIA3vnOd/b19VHl4V4ZvTbG/kJnUSjoct7nupbrAAcbXPHVS3XVVayCpNZO3spBr/dF1e+4o4yhWM1DWYqFqzcdWIOsH9AGdADXAroILqKLuArRBVwJ4AI4gCsBHYA+ABegB9FF6EN06R3EXsBewC5AF6CjBPEBsw75EaH2WeYAJoAFYB8oxvnA3zkyiGiaJjiBqu04RbNOkgYDAOGCqFITEFAoFMbHx0mADABdXV1tbW2MMdm+Q95+R0cHCcgWew8wJh+tXEFDFduCypiYmBDoXCsgjUajnZ2dItwmpYqcEbUsK5/Pizze/ffff+GFF05PT1uWtZg8m9AUvvTSS/L7yWTye9/73vT09OJt82R1s2maQ0NDb3vb2y677DIxKVKaFADWrVs3MTEhV3I2IugDMNTFQDN9DQOu8xHuAgeH81LerHLzgV/A4M25ecq8vQiLWL2oZFxmGjxQKFPK1L/KA0gIqCC7jinAGCADxv4f/VLqdcWkrckvWeBn2alOeudaf4Mr8NQx+uskK7wzobMJQG0K2KFYz+0jmn3Vbr7ATcSPgt/YunVr1Rs+n8+Pjo4KdCYkymQycgwrp6c6Ojra29t9JXN1cIQafQkulViXqug8Pj7ui52rojO53AkwpXlI7IuyhSQjEXA8NTVFCcNa2CpnRwmdfQt85Stf6e3tpWeIOtnFqk2VHMcJh8ODg4NjY2P0ppB70yq7du1Kp9PEnpOhRwOaX2N09o3VAPcCXA0Asmmc5JcsQ7PcS9vfss/bsa8GvyE3qarmIIqIJY9QGAVIyo/ViJ2hyDOJlhnHfqdj/yuiVl6rEoxXarLlXlaeY0b0H60LOOnyCc6LAIbU4xV8xHi1T+ICWAAWgHOIqjX2llSRY+Qg2SqnrbLZ7LZt2z71qU/RO6ZpEsZBuXetbduzs7MC16isQ65arlbewuU3RX25TIOA5KhHNY2PP/74448/vn79eqKk5cMWm6J6nO7ubno5NzcXjUYpNjcMg+JoauIViUQURSFSYnJykooYRXxa69HHMIzx8XG5EpJGf39/U1PTXnXzE7uYnp7etm3bK6+8Qi8TiYSM/jt37qTkaoPHOHjReQBgGirNqSqsq693qi/alWsCZSWx/536pDMiAvdhOiAC3hckPRE7QtGkqjdzd7fLuxFGPLSDDKZyVTYG/l9JIRLY9AD8t+0Yju1yXgSgDlUoiGlYgNmw/mRiZ1jIQ9LXoVX2Y5M5TQLubDb7wQ9+UCxgmibR1oKUoPJlkdYj29KgsVzVwxDqOl9hnozOhKdirZmZGZohqkIhNb3t6up66KGHfvWrXz366KP5fL6pqSkcDhOBQGKVSCSSTCYFv0HoLBrE1DnmYrE4MTEhglwx3vKWt2QymSV0A6Amqhs3biSZNs0o9MtXv/rVk046aeXKlfLU1QDNgxGdAaA5SP6Wcm5AoTT6vz+P1AEhKLaD2gZ1/i5T6At+ZRM6iUtAAJ0xRK3AeZrzPFUSYo34toZC2Zv3K6UTpziPoKtIH5b+zOuxQ5UNcfHvoDQP9VWL7G9OXE7QKYoi2APZ0d80TQoVxeN2LpfjnJNagxgJylOR3kCgs6i1q6XJld9xHCeXywlIojoUkX+jA1MUJRwO034LhUIikajaJFfwCfF4vLe3V3j10Wesqimkl6OjoyMjI+l0urm5WRZ9+0he13Wz2eyuXbs++9nPBvceiUTks7fgtERAPDMzs3Hjxssvvzy42HHHHdfV1SWc/uVT16A1DjZ0xip4isBRoFUdH31f0Ao1bOECr9BTfRcItD2dsqTwmSmSh/JyDQsxRPFy6dos8eh8IaClP7sAnDQbeCDIjb29f0TsecAA2tcSsMoJ93Kstm2TubDIs1Fdouu6xAW/5z3vedOb3pRIJOT2gLU2Lt6nPJvwsCd0FtQqEcSKogj6eP369e9+97trnV76UOSk2tvbK7bpk/QF0Xl4eLi/v7/O6aKpIpvN+pD0uOOO+/znPw8AdZq51DrO2dnZnTt3vvrqq8EFvvWtb51xxhmFQmHBE9gYrzk6Vyo4mEc1jFUi4kpNIPibRaGHTV7IqS6oVvaRJ3AVwO/BbxKHdQLjfRiM80prKggKomExGA0HY9x8oIcQeDmOQw79PrN5gc65XE6omAklKdoVWTIZ9aLRaLFYFNk2X2WHjzMhRqVYLA4NDW3YsEGwrqZpktmbwFDhqCdCVJCUf1Vjc+rjJSpTVFXN5/NkTUdFgyI3qOu6aZoPP/zwww8//POf/3zlypXCzkk2wqezMTc3NzExIQ6D5qSPfexj1H4lGOFWna3pF7L72Lp16wUXXEA+eXQmaQb60pe+tHLlSsuyZDMm+TT6RHV1iKyqlrA+6r9qrvIQI/qWHZ0r9cbC6AJYpTQaKhXRUlcqKaj0q+uCjviI9ZRo6PNX8tYKAgLgfYiAEAawq7EKtaCQLwIleeBE6CXqRDQhX5RkW1Y0L90z9ZAbFJwKwwoAeOMb3+i7LU3TnJ+fF5JbquKTXfB9y+u63traSlV/hUKhPvEdi8UmJyenp6e3bNkiPJWI2CW6WQZHuZRm5cqVg4OD5KhXC1Y0TUulUgKdKYkXjUbJSJqaKwZhfWhoiB4OBH0sH4NhGNPT0yIfKKQjq1atErZTCzYuEDstFovpdPqSSy4haO7q6jIMQ+imTz/99N7eXhJpyEXwVSmXqiRM1W6HsAhB3usdl5fRfmTB2LnSlooxVBkDBKXSDhW4H4iD/wC9fsqVXn+iYq8mRFccMbi3aSyWRBSQd+wxI7+ZqSoyhoxIA9ou9+T4sBqrHGwT7i38k9dCsAGmOC8COKVJqsxR4KLiZQVLycBDHp8pLJWZWd/tKqJgRCQ0BADy0ZfVWsRsCHQOyvKoYlBw1tT+7oknnmhtba0azQlemIynySJZOL21tbXRgzwREUIRSFb6FLpCoJxEhjzZDYq8+s4555ynn35avBmJRERu0LIscqTTNI2cP5999tk3vvGNzc3NvqIPGvl8fmxsLKjWWLVqVX1Wyu9o5rqc8+Hh4WeeeWbnzp102Pl8XhD33/72tw8//HDqbVifmJJf+hQstUxK5WedOvmARfbHOQhH0M1qyf3C1UVFzgDIkDGmMgUYqKwPYIJLbIfH0qiKTsMrnsOA/LlmLQeWFMoVB9HShyV2xQaYsc1t8zNTZlFBxpB5O5iIQwLweYn6l2GVkFzyOwWvtM5FHON8HsAGVBZb61gKnxFAAVAOabWGXKhtGIZAVVF4Ii9Jmgq6pROJxNTU1BlnnAHeBhyEztSxqeogmBP5zO9+97vf/e53l3bwlMEj1sL38E56uHw+T5zJgi1NZQePK6+88uSTT7711ltpO5FIRLZRJfkdGedzzru7uzOZDMk5gic2l8sNDw/70PnRRx9dtWoVgftiYk+amXRd37ZtG7XTpjcJmi+99NKzzjpr3bp1zc3NwpZ6Qd6ZoFl8cUHfFfH7tddeK55CDmGJnu9z0WS//LGz2AlDpilqSNFAAY2pIg3oN3GWGlj5bO/ljlPe1t01+GGZ4pV86WRJsgsw79iDRj5jmYhMVlujVEJCvyOgtxSlVISC4qdkOFfyqCvzOPQOR8wDFAEdqcimTkoQpXwgAmgAGoKCwPAQD5+JVBV8MeXW5Cc+uplFyOk4zsqVK4U5p3ifQuM6OxKbFdXYIyMj5LQpEnGyXwcNakQrl5mkUinDMFRVJX7ZF7jJdefgFXUEc5syIRuJRLq6ukSuT6iqBcrTLEX6E875LbfccsIJJ6TT6Y6ODl8LcHIaufDCC31ngMgT0Wl7QbxzXXd2dra1tfXcc8+Vwz06z2vWrLnooosGBgYWbJAon6JisTg3N+ebjAX1L9NQhmHMz8/Pzc1ls9kg70wZCBKSv34LXnyBCGUdZGZs+bOCKlNCqh7RQqBByFIcDhw4A8k3Dmr/9Lns4yLkdJLW2APoXs6BAxRd17QtREfAMUrwiuXiwDIEywjOBDpLCwu8po/GoYSljDgMXiFMFp0cLwucwwBhAO1QFzsLrzgy5KTrlcqUfeSGbB/6yU9+UjAJcoWx67pXXnnl/fffX2tf1HhF0zTCnWQySXk80mCQfzTBNN3wlmVRlKfrOllxkgEeEc0iUSl3PgUAYjbkULq+sphuRV3XW1paOjo6BKMtHwCdEMJ9gY+7d+/u6ekRvIHIB1qWNTg46NvL1772tba2NgHui7n/XdcdGhr6yU9+Qi9JwKcoihDG/PjHP47FYjMzMws+Iojv0TTNPXv2UINwkEp46OuTO6JNT08PDg6SAIYGRdD0eywWa25uJkHkgsHmwRZ30+kiXY3vvJEEXp7OlxmdFaZoqhZWdFDhCEXf6AAv9UENmCODp9G1v1AbA126F8PZymYeXpmEBdx2HRddAbhltHURGTCO6BI9UnI6EihMwAuAwBBcgb/enwCVlxwBVQQNpc/AFwBaYoccAAYQAggBKIeceCPoyCwoWoEIhEE+mlIGlFQqFQqFfCoFAWF1blHxWE11K8EoXiRqxAEI8ZxMoVQVjcgUivg9mUwSsi9InqqqmkwmZXQm6CfBH81YYlagZW666SYiZ6jpoth7MpkUDhg0brjhBsoH+sJMHzXvmzV1Xd+5c+d73/te8cGpHdeKFSv6+/vJgW/79u3Bjog1kUFRbNseHBwcHBw86aSTXnrpJeK16NORpbWApLGxsS1btpDyhP4q0NlxnI6OjrVr14p+LlC3ZnLfL9Rl35roSeZLDPpi58V/osWiM0NUmRJSNVBBV8ZdB13giqdKW36a95YOyh38oKLfQL4YB1Fftbe/FlFBxqBilIE+sgKZNyJmMuMh/ool+BYLBANwlLh9udnK3sXOhM6H8CAgzufzV111FQD09PQMDQ1R7FwVncWbra2t0Wg0mGdbMANDUbNhGB0dHUcdddTzzz9/xRVXRKPRL33pS1VXoZIN8Ri+hNHf3y83FK8fV1Ju8LTTTqMuUKRRi0QilMykKYGe6OPx+OTk5Ozs7Fvf+lbKHAojp3w+v3Xr1nPOOeexxx4TG7/rrrs++MEPytZ69Xlwx3Gy2ezY2Nh5551H7/f09BSLxUKhkM/nc7nc7t27n3322VrnbZGDaHSah+j7JY0jYyyVSv3sZz/72c9+Vmf1H/7wh+l0Wmb/FwOOstNercxkcIFlj1Ecx3nmmWfm5+fXrl0rBJr7MtT6Dw7ShMwUBiFFB+3hYWUcEF2XV9w2fI2u5QDZp7Gr4iCKWI8oQDmhx9FLZBPQMsZqoTPI+CuT0YzLEMxYxVvDszB621ZJvQ0XEfeiF51DACHZs+nAhrQLDp9t0JLRmfTCIlokloDQ2VctLcox2tvbW1paFnNP+i9fVSUJWqFQ2LNnz1lnnXXuueeuXbu2qanpL//yL5fxVhQm0clksqenx2cKWuvGIeFHOp3+7Gc/+8ILL9xyyy1QLjsU4bzjOKFQKHjyi8ViNBql7eRyuZGREeGsROPhhx8+5phjZEFL/cvAdd35+XmRVKS2347jzM7O1n9uWPygEk2fHtE0TWqXs5hi1LGxsbVr1y645MzMjByK1n+6Ek9RQUZ4GS8P13Xb29vpGYvOp9DdLzn8X2zsjAgMWFjTvxqObynMusVZGzgHYIguAPeK6uROgH5dXcU0CctCueqjHUCOWHkFE/2IKVJzUtlesIlJQDpdsQMVUFqt2ywgr9gwgT+9ubjw+V8AbkOIIobLsfNBWcu9rzMBBWiFQkFQB5zzRCJBhQ++3np0q9CK4+PjLS0t1aeH8tde1SnJV8mSTCbb2tr6+vqoOqOOKmtpdym1aw9YrAAAIABJREFU4iYD5cX3gtI0ra2tTeQGq5pNEy8ZjUYJbX/1q1/19fU1NzfTbT89Pb1z584vf/nL8vZ7e3tzuVydboRV8wGyYsSXql18c1jfOaHZl9z4DMMICn5pARIUEmtBRno0VymKUiwWKQ+5SCEHtdAVz0+0cdnzLzhj0SPCcs1DVU/v4ODgxMTEtm3bVq9eTY8RlBinhu77MStI6BpR9VQ4FtZCP0R8C5Q4XNnPXGrvVClU8YEp+gztqvWxhkoZTMWYlHtFICLi5h48hRKeYmnOCOC1B3+RqGiaYLAquKPHkBqrtoCpyWkIVaKCGEEM48EbOy9N9OMbhM4y/5tIJLLZbJBJoPiIbidd148//vgga0yX1Vfv/2qtj0PoLJqVJBKJtra2np6e7u7u/Zru36s7jdD5tNNOq/rEDZILh9wwJZ1O0/lRVXV6epqYIhof+MAHzjzzzN7eXpkLWvCogujs4/SpR0wkEtkrKCF0LhQK9AQjE/TyZEw0ejQajUQiNAfQMVCKdWZmRkbnBUWBshqd0Llq+xt5EHuzj43n66cEe3p6hE5foPPq1avlLMXe3ZKLY05LX2FI1dORRCQUAcYszrnPK8gXbNdqj7I4wUOmTA1LSgsSOpe0Fwyh9EtZFM2g8qeKGoPWKbl9VhC3tDyAWEzaMjIs/bVMhcjdXvbizuTlUxzmEAOIHMS882JM3RYchmFkMhlRbQzoByMK0BhjxWJRvP/Nb35zamqK7jf5/mSMaap2zd9fU5/sExCTy+Xy+fz+e4Bd2iDhswjrUqnU3NycZVmhUIjuWwot5ceLzZs3UwmfYRjZbPZb3/qWvMHu7u6enh4ytFv8NCwyqPIXEY/H0+l0U1NTU1OTz59kr4DpQJ5PSgKLmYkSCcEeNL5BPXyXF51lYY9pmhs3bvzRj34EABRnUErghBNOCPYGWjZ0lj34w1ooHUlE9Qjgbc+WG0EFuqBClZ576E3oeVasmWH7PCAArixLLiTwLSOyB08lkC2BLwSt9cuwTkhfKkQp47sH6LGyTKVV7BLYCFohBBBDCGMJnQ/CisFlSY6bpjk1NTU5OVlBBK+6m5pa0cOsUHF1dnY2NzfLbv3iPlQ19Z6v3FMLg+TWsYTOdAfy/TkWfz7plBI6H3nkkd/4xjcAYNeuXVNTU5QeJOkYkfVyC5Wbb76ZzqFhGKlUilYUo7Ozs7e3l27+vUJGHzqHQqFYLJZKpQQ67y2t8VpdqBTmn3HGGW1tbZOTk4TOwp+k6uMjMRv7KXamb9AnCtq+fXsqlXrHO95Bqpj9xGwglIzVIKRqqUg8GYqCCmdZ7Yg5HiQIfeyBxyLDRwfXNJHjADbwT3IO3M1zzPFy1yhe4YkRGXBX0sNBqQ0suFACVZLB8XIwz0s/eSldJ5WTQ+WvHmFgOf4DYBT2oq8uvO53BsDLpzgOEAMILb6T4+uHbpbD2JmZmYGBAUp/AYBlWsVCUb4lCBQsyxLc9EMPPdTc3EziKt88oWlaPBa/+eabb7vttlqBM0lr6Z1vfOMb69evP/XUU8lYbn8AzRK2SS7Vc3NzXV1dt9xyyz/+4z9COWEoCtkpdUbta1Op1M6dO9/1rndxzjOZzB//+EfaDvklAUBPT4+o9l68flZ0CxNP+plMhuiOfbSGoI2QcpxsnoLadgp4ifiyLMvHOwvPkMVMgYTFoVAolUolEomJiQn6un0ISGdVEM1f/vKXDz/88NWrV8uGqMvVIJFMaIXpttjsxRdfHHwiWX5FnWA2kuF4MhwDFcJsBkHnMjSjz0vfF0f7xHM+yPYH7DbnwB1wz/8CPAlQUmeAy6E0+SN1NywLN1xgrCyOAMl6SCgmeIUKxhoqZUHVYJCEwY+VMXrx8bIL4ACEAG4DSCLEAA9VRZ3wt5yenr7iiivE+3Rv2JYtQITuK3GB3nrrrYcffjiJdoO3JaGVj1313RUUsyBie3v71NTU1q1bKUQSz7n7qJn1ibSWtjrlBjs7O9etWycAi/TddOoMwxCdxffs2SNWn5ycFKy6oHS7u7tFF5W9DfHETDY3Nydr0pdlUANyeg7wXR6kQZT1PEvmSeihRNf1c889V/Yw8Tlo+9A5HA4/8sgjxx9/PE0Sy5JlEcO27VwuNzMz43u/ubk5kUgsoSXCYtEZK5IM0BQtHo42heMQ/lrKnHQ4t7irMIa+PoGeZFqlRtojGS5rNvz+RAAMUWdKWgtDLA3wi1J7QE87Fearxg50Yq0sczvgTeXf70D8FCAgfp6QlkkHV3bzkMq4Ky9dwCKCAWgCmuVWgQueNxfA5JBCaAJIAugICmINnn75R/0a6OUNnykGnJmZEQVjra2txWJRPPGRpwRJHQqFguC4+/v7u7u76SE9GAZqmhaPx4XsV1AWQrVGdyDVTJOqGgBmZmYKhYLs/LC3wBpE5AWtqKuG2PJ2FEVJp9PCj99xHJIQCOJSOHiITtiWZa1fv96HIw8++GA6na5fDlOLrg2Hw5Rs3H+XHH3FwiiVWAg6VELn+ltoa2sL5tDkUFd8Ebqup1Kpq6+++t5774VqDtqiECYWi8VisfHx8RdffHFiYmJ6ejoSiQifqeUi9CYnJ4eHh4MfJ5lMisqavb0OFxU7i+1pqspYpDmSgGi62ShkzHzRsRkoCjKqw4PAP6+O2GtWB77Gg+XLCFlIUTvD0d+l2qejSYasG3AMgAN0IrqIADCB2EpNScqzQgagHagcEDKAbYgIMIEIgL8CaEOcAADE50DSXAvbI/BYI6H0JzpOE2AQYIjzLEBeMjPidc+YA/A1gNsAmhGTiPqBpTWWPGPvbVaETpivNytJg+fm5orFIl2X5AFk27bcs66/v7+jo6OW1FrTNFIRiHuA1NNUCiw0YeSwIaLC6enpXC6n67rPm/g1IeXFlEPlGEJXRwG+aKtIH8dnF/XLX/5y8+bNmqadeeaZzz77LADccsstK1euTCaTi38skG3zYrFYR0fH97///TvvvPPd73637CK9Lzk627aHh4cHBwcff/zxfD4fDoep8J3U7tQToFgsZrPZs9581lFHHtXZ2dne3h6sFezs7Ozr6xNdx2qRNvSpQ6EQ5TPl2Fk+GyRwDofDIn0KAKOjo01NTbOzs8KZZFmuCtM0x8bGdu3a5Vugvb1doPPyx86+EIAhYwomQpHHYk2vFucn7aJhuxoAUsfroF5YoJ+vW5UIQ7i3QRQvlbaoqCTUkBLB9lCUFo3LyyG1efWsm5bqFdPlo09IaJmQemD55h30kMz+0BYBCwAFzqcB5nmpLNsfA9e+wiOALYiJvWWRliNTsVcX2eKX990zBJEjIyMvvvjitddeK+4Nud5EMM7yug8++GBHR0c0GpXDQDnE0DQtGo02NzeLO5AiZRJRiWCTAjTxDDsyMjI2NhaJRKqqGhaUnfk+GoXkZI4RDoeJT9hbRTD99E1C1DqWphASbNBPcQwPPfTQxo0bW1paBKHZ3d3d2dkZjUZ9zQQWCaPRaLSlpYUx9vnPf15+ttgXgKYvZfv27eLTCbkbhdKEg/Qk19nReeRRR/av6O/r6/Ohs+u68Xi8tbVVbkxe56Ppuk7JzFqTqCBJiMqgN6+44oqjjz565cqVwnNVOGQt/kzKfgP09DY5Ofnggw/+9Kc/FQwPfd62trb9y2zIXDBBVUyLdMSbhwqz381NAXfPk2pSqvWjquGCVG7j6nvCLwUaiLqiKCzscrdes+tFMQQ1VX81txJ4T+UQAa7xEoHNFz5XlXMRRWhGSCAeYMa5Di9Z9W6sQ+/WiZrJSCgcDg8MDHzkIx8RYTuZwBFi0h1IWS8R4d51113HHnssgYWPOhCHRwab7e3t9HJmZoZ0DlS9LScb5U+0e/fuvr6+1tbWlpaWfXkgICsMMtubm5sLh8NtbW1LS77L38h//dd//f3f//2WLVvEByScIkdsmtVisVgul/vOd74TfFJuaWnZ23ygQK5IJEITXltb2z4aeMpzA33XwpKQEJm8qKgtL5TV9M3Nzb09vf39/f39/XK5EP1O83d9YZyMznLsXCudKDqEUazQ3d29ZcuWVCrV29srU2R7S3yJIzdNc2ZmZmhoiKC5o6ODHokIndetWyfY8P1YjeK5jbVQezzdmkuBGgKc9wSg6FPXVRz2fQZ1wuI52LqqTFCzAxxs1svJAtc4KsBR9GytGzVTLjINAAgphCaEGB7ofOCC5bC+Phck0lx8/yFxmRLdvGnTJgGp9LRLj5YU6pIzpOM4Qgp91FFH9ff3x+PxIMqI65iu7Obm5vvuu4/KMUzTpA4jsrs/xS8iSL/77ruffvrpRx99tK2tjezB5DtwrxBtdnZ2ZGRkdHR0dHQ0lUodccQRXV1d0WhUFv/Vt6gHr/E81SzccsstF110EZR7ilOSShA1BE/k00+n0cdjinl3kbSGgBIq0luWkn15FIvFVColHD/kBB3NyuLJLBwOJ5NJ0vDtI6FE3WdaW1vFVWcYBpW3yDpLujZo1/l8fnh4+Pbbb7/nnnuOPfbYYrEoToUcQS8eo6kOfseOHRs3bqQ3c7lcJBIRF3lrayulQJb4XLJ3PAsgAIS1UEss3R5LQzgGakhF5pQqU4INBsEjfJaN60rtnxAQGfNUtR6ciktfa+06iyGAA2ABEDq2ACYBwweQdPZ1FK16ocu93SjCJZueBa1nROBAwYiiKLt3737uuec+/elP000SiUSo3oykWpSWoRhZeGD+y7/8y2GHHUbZLRGo1ophk8lkf3//Jz7xCRE0yQ+/BNlzc3O2bbe0tPT09ADApk2btm7dOjY2ls/nfTml+u2sxEejMzY8PHzHHXe8/e1v/9CHPnT++ee/+OKLu3btkn2rl8AFpdNpwT5XdeAjdZqu683NzYJzB4DTTz+9vb3d99mX/HCw70NcYz6tnu8ky6f9y1/+siDWxRb2SksuLhXKGIveYGNjY5TPiMVi8txJnlzUL7irqwsABgYGbr/99hdffFF4WJe8IhatdhdsjGEYo6Ojd9111/XXXy8mKoLmN7zhDU888cT09PQSCnyWEjsLDkJXtFQ41hZNQiQJ+XnFtUzXVREVZNzTQhCwShtvlATLJYx2ODddp2hbDJDXZCEWRUEsjdZYcINFAJODwyXKojbdQpahNkAU4FHEJoQogrYf1Bp1rmbHcYo7i3ViENkcJ9hiSvYL9oXYMqzPzs62tLRs3rz5yiuvFBENxc5kfUDUB/VnErsgYRMFobXIU/mjxWKx3t7evr4+Odsp/PuJ4iBCQFVVoT/7wx/+0NzcvGbNGoKzBRFNJhO5y3P5XCKRGBgYePLJJ8UyH/zgB5955hliWpbM1SYSCeoCQzczhWAUY8qNV6jgQnw1n/nMZ0499VSfkG7JApJlTAjLUBuc54KHKk9IQUqhvjbGZ9UfiURaWlq++c1vfvrTnyYZInmVkEme2B3lKoTzFAC8+OKLL7/8smVZ3d3dhUJhb2twaCqam5vL5XJbt2596qmnRPwudnHVVVf19/dT4dWSc8t7TR5wAMZQV7WmcPxbybZXTWNgfnLOzieYoiNzEV1pkoOKgk423AAKllRgwMDmbtYyxgvzUTUUVlWXS3k6hEDxdPDN0rfpzfjJTLe8CshxPXpspgNbkyw1DIAp4HkAB0DBEgTXOdMuwAMA9yL2ITaVGWe+31R0vk5L3OWWZe0ydi0meqLrrCos+lIl4rahK94wjE2bNr366quXX365yFCTwpRkFeQWxBhzHIdoVgA44YQTjj322J6eHrkTSn1YiUQiHR0dIt4kAppQ2zAMgV+2bVNlBznu33nnnXfeeefjjz9OBCU1aV3MQ7TrurZl79yxc8vWLRdccIG8zL333ptKpYI1jXv1hE5P048//jiZLNPsSFOa3CPR54OxYsWKjo4Oud/gvshIludp0gujvoKLWtNtcLGlqchprVgsdthhh1177bXXXXcdBQfkWehLMpMeWVXVVCqVzWZN07zssss0TfvFL37R0dHR2dlJMr5FHkmxWMzlcgMDAxs2bPjMZz4jLn5SSVJlDeVU9vEpR92rr7OcsmOKwlLh2IpE64xRuK04C8X5c4F7VM9eIyEMNBjkACqyv0G0XXfGMkaKOY5MY4pbqg9HuQOWlFFklebfsh7OYwNdpZEgelaR2okHLKS97QdL69kAkxzyCDaAKlW8BOnnUgMVAABIIfQwSEsVKMsC0EG3e/D1nwfu2I5lWvXnf7GWXCAgby0Ys9CjqK7rmUymr6/v5ZdfFlEzlCssSOBMklKqQRBKowceeOCEE054wxvesBgRhXiflBK9vb30kiTVyWSSoiRhVkn6Vt+Rv/e97922bdv4+Hg6nRZq3FrYQTFRoVBIp9ObN2++6TM3+Q6pqamJ2JgloJg4KkLYnp6eE0888Xe/+93ExATVoVDHP9u2xYM2PRDQWn19fe3t7UuYGJYdlOsTDovZbzA6XjJAR6PRvr4+4Z9FlfFU1S3mNgpBCoUCCTTb2tqIfLAs66WXXlq7du2qVasymQw9Y/nsA33RjOM40Wh0cnIymUy+8sorIi6hjxCLxcgdBQBOPPHEubm5A4HOVZ/+I5rekWjuMfMwPwnFeZUpTuVEV2xCpaRgRW3HywYXGjDDdTOWMQ/8/7d3rbFxVFn6nNvV73e333ZMHMeJQhISECAUBfgHQoMYfjAIFgECIQaUJeIXDCNAiEgrBimZHwwaiIKWlWB5BAkipEGRUBAiSlbJMhuGxyTCSQyJ83Dsdne7311Vd3+crtu3qtuOY7eNzdyjKHK3u8tV3VXfPXXO933nTLXELJ9lyR1fBkrZHZ8JBJdd8wERgVl/vT4b0HoxQ/t0cLs3vzDUsNQunNX04AAlgDJAdXqxH9YE6AAI1B/pQEwABhBYSwsa05398kmPDJmLzXDlTDdHx9FfFj9Qd4UmN4+PjwvHNUrraGgpXTChUIgYCLlczuVyCcV2MBi89tpre3t7SRd3RQdIvcGPP/54x8s7/v5/f6cbW2o26lZQiYN6XzSwg1ag1atXx2KxTz75hFgcPp+PrmEBfLTqVKvVQqGQzWZHRkZGRkYef/zxxj3p7++PxWKCMjHnldU0zXg8/vTTTz/88MP0kDqBNBGcRgroup5Op2OxGBlutLe3h0KhGnN2afRlfsGx2fL0mWg02t/fn0wmJyYmSA/S0dHR1tbWaEpHowAMw4hEInRaUm6xZcuW7du3d3d3R6NR6jmL6QoiIyEHvmw2m8lkduzYcfjwYdrmypUraVGvVCqC7E8d7PkspXNEZ/FV+N3ejlA8Uy1B6hxoD7vhzwZwBGTIoCYvlG2PZOmd1ZFH5kJW5mZer7yvl603sfr/QiVYdygijR9zWBs1vBgb3mg9ZMKfDqf9EzV1ONTK4BwA8UnLJYM1KfY0Qef/ROxAiLdUH3jZIgBBJLl2yQAKV8KKddSaqUxB7f5AIPDNN9+IBIGCRuFRMkIZhGmaDmb+gQMH2traNm7c2HgIM1cYRZExkUhcs+maP/zxD/f+7l4AmJycjMfjgqJHvSZd12k/wTJIEpWQI0eODA4OiinUjeHz+cLh8Df/+ObIkSMvPP+C47d+v3/37t2EznPO+OS7e6qJk4WI0J0LoZ3H4yFPNcoKd+/evXnzZpFKIyzXscEt1IAIiVM0GvX5fB988MHRo0efe+45egF1oYV9h7hfLJVKuq6Hw+Genh4h7Tt06NChQ4d27tzZ09OTTCYHBwcjkYj4ok+fPt3e3n78+PFMJjM6Onru3DkBzQAwMjKydu1at9v93XffAUBnZ+fnn39O5FTqeE/X9F6o3Fl8Rh5Ni/uCH0Y7vqu+N1JIXyzlgi53EDTTGsbX1C3IYnfUbvMZgBvxfmQ62mZpN0yTcjyJ6JhQxRjW1dhMDD2BprOspIxbHqEiF8qFawjtp2vW01pf4/AG4gBifIGzHMoZy+WyMGajNTyXy507d+7UqVNyQVaIhmfuEf3www9tbW0k9KLtVyqVYrGYSqUcRVgASCQSQqdL1GBievp8vsHBwZMnT4pac3t7e1tbm67rV3qvJzsixaKxVQOrxK9OnTpFO0A6ESqFEwVFWABrmkZ1m2eeeUbe7K233trf309J9Pj4uNz6o+ju6r5w8YLX66Ui5s6dO4eGhoSEYc6XjKg+EemYxp0QFlMKRtBMlEF61/PPP9/T0zMxMbGgIuxlHZzz/v5+QRpJJBKpVErX9UgkQnoiOo3FkEnyGIhGo9QtpHkxgndx2di4cWMqlaKSGvlbCd3TK6+8QnL5ltxYzBGdeU03yGLe4KpIe0mvvFwtQv7JO9mfIzWq3Aw11nodmdfslZmnJpOXLT+ZvZoh0JM1/I8gQzNYbxcGIM63yMMDWV1QLqnPLT5JvV1ozkKEIiKJsBIgas2pWqBJKFRpzWQyqVSKWthjY2PpdJro8SMjI43o3LTEIZA6m82m0+lNmzYdOHAgm80Wi0UacZ9Op1966SXHG/v6+mjkEi0PRGtzvGb37t2PPfbY6OhoX1/fPK1nKEsaGBg4fPjwsWPHSPmSSqU6Ojo0TXO73eTsTBIY4m8QzEUiETGuScSXX365evVq4j8IEzg5zl84D9YUbQC47rrrhoaGZjPEb5bh9/uHhoa+/vprsGxX6QZFoLPI+9asWdPT00Om2HJ3YXnFPG3wLpuS9/f3Dw0NffTRR/fcc4/4QgcGBkTeIFTypmnS6UoWd3Owgvr222+HhoYikQj1bERB46233tq8efPq1atbdbBXhs7OYYMAPrenIxQrGFUoZqH0mg+waBqMMVavEohpKU3/2UofvBHFLY6HKGRza2Cs9D/WfOcIT6XZhhzloeAg/igXI1QAubVZYdXEbdoY5NMvUWKLJkCZAwNIIABCF2IU0TsznW8emQIdVLFYnJiYOHHixJ133tn4sq1btw4NDf3444+BQIDaHcK2UdxqidIBnaPPPPPMm2++2bip22+//YYbbjh69Kjwh/T5fPl8ntJqyt8bNQ7vvvvu4ODgxYsXo9EoibWutE/lEFOQ2q23t1cW2lDHj9S6VLGlxFmEaZqJRIJK0oTyxJj2eDyUyK9bt65UKpXL5ZrJsm4YphEIBFKpFP2JBx54oKOjQ1acz79gSnJKMa4bLKU19abEjQ71D+PxuMOrYUmVNhzfI7UEOOdkuSdPFJznzcdMQKZphUJhaGho79694iZPyC+JyeMYQEPNCarFEaOxcWYNfS8yW4k2NTU1RWmNWPjfeOONjRs3dnZ2OpbP+Sylc8ydxR/0uNztwRhHfC+fvr+QDVaKE5WSD5mf2X2R7MOinH5yACYCt2fbltVyQ74tnZ3o9Pa3Wo+2zwUFh0MaM1uvgAsOh/Ti+vytWdVqAQyAEsCbAH8B2I/YjRBCwIWBZvFzoVAYHx9/6KGHmr7y4MGDRERrnFHUGJFIZHR0tCk0A8D+/fsBIBqNcs6pr0JVUfk1VCG9/vrrH3nkkYGBVX19fWvWbKhUpsgEB1rkB+bxeDo7Ozs7Ow8fPjw8PPzggw+CRbADAKpEE32V6s7UGyTWB/31fD6fSqWI7CEgQ/SC/H4/MWcpa960adM777wTCoVIdiiXJub5JRIFu7Oz8+233z548OCePXuq1Sq5qdFnK/KvW265hfqrv1QLbg4Lj1j5SNVNCk86Q1p+CGLx9nq9g4OD11xzzf79+48dO/bss88K9RMAUDuX2n2CJl8ul0k3T+u6g1QnHAgE1YfuzKampuS7sZtvvnnbtm3r168fGBiYfydw3uhMB1A3xNAi3sBVkbY91dLxzKX/qpbvwTotzkpjZcs6GQOlCapo0xZywEb7JA4OoztHUlwbEgiWzgXRmZ7Labtza5IMnc/osO+oVFCBMAAACL0MVyBGAV2ITdezFqbPVGVetWqVyPIcV0s+n5f7YzNcGNRLdACuo1tIXItIJCJGnzji1q23btu+ra+vr6urKx6Pa5rhdgebMprn4CIkVHwkdenv7/d4PHJ1GyxHHhIoCnSWlWxkCuEYQUtHTYUXhznJSy+9FIlEyOqeCgtzTogay/1CBnn69Gl6hpaEUqkkf8Ji1tdSLvtSz4MelsvlqakposHQvQvN5aJe7mUThSv9PMWSSbdWuq4PDg5qmrZ+/frvv/9erozR9y4KRDSpVtxgCUsmBzoLb1JBeZQFnADwxBNPXH311eRO1eIbgnl9K9Yx+DVPf6SNMZYxqpC/n+FfyfEebS7Mos+GaJd126ofMrPNkWuL0oPNm9RmKi1VUQDRThSp24A41ww5876i4YEMQAeoALgBYghvIa5A7GPoWcRro9HzW1wzuVxOyI7nXzcslUoEH/F43DTN++67L5FIJJPJeDyeSCSSbUlygfD7akxnREZXbsvTJaJwBAKBffv2nT179tSpU8PDw7t27XKQScSL5ZzIMYia6vIOK/odO3asWbNm7dq1yWSSRmq1Kmt2RDAYJNs5euhY9m644YYXX3wxm83KHphLM6jzRj/P4OtPPbqW16BlAihjrLu7OxaLvfvuuz///PPJkyeHh4dff/31+qzLhpIINNPFzGyP3t3d/eijjw4NDQ0MDJDlVkvoKC1A50bzHxdjMV+QI6wsZKC4N1oppspFDbiHyrvyRL66RqSxJA3SFEJLaSLAF8CeLANMh622oVnQOKLF5g1q8zuVBSnQbGKLMxE2LYwOAvQirkRoRwwu5P2nDBMejycUCq1bt254eHgxL8VVq1b19vZu3bo1ZgWZ4ASDQc2t2Uui2KrhQI5Enkamut1uIrd2dHTs2rVrBkQAAGFZ1xTEZcS86aabVqxY0dfXR3foc7DrnCWg+Hy+RCJBfMTG2L59e29v7/zT9oUO4U162Vdu2rQpEonIQDbPw2l6R0JOL263O5FItLW1dXZ2vv/f709MNv/SZUI0HcLMpwfFbbfdtmXLloGBAeKhN4Xm+X9TOOe7jDolFjjnYHKzZFSLKEDRAAALOUlEQVRHMuOnM5f+NzW6IzX6W2BhzeNCxhlK81enocqxOkMZ61IUJqlOGEzDq6MVE2QVyTScvDqjzqZ2kRl71kPnnC0nOtOYLN2aN9gDcA3DQYZxxDDOxtFj7p+5QGfixp85c+b06dO5XI4yxBb6zRMDVwQZPIZCIZpXEggEqMNGKOl2u12aiyGbjks0z5O1qTkkIW8+n8/n82NjY+fPnx8fH5+cnCTiyp49e0iVQE6PVHCkogd1rsLhsGEYd999N60x8Xg8mUx2d3d3dXXRxCyRTzXVK8//KCjlPHHixFNPPfXVV1+1t7eTAn54eHjnzp1btmzp6enp6emhPYel5BEmn4q6rl+6dGlsbGx0dJRKvULuKPIJGpJAax7db8GVT5yZ/blBLUFSGOXz+YmJifMXzk9MTExNTU1lpzKZTDab3bdvH1XJCKBFcYaKSDRKhpbn3/zmN5FIJBKJhMPhcDhM4u9YLEa4TKTSlp/w80LnesnJ8mk2uJkp5SeL+S/HTj82NnKfXgXOGaLGXMSsqI26liAS7XxkmTNnobMNr5sR4+zUOttGajS7OpQzZtMfMubk5wHaROQNuCyn4oTOQYA4wEqGGxCvYugGWLiKs+PLIpcJwqbGqllLCggyNIsQT868ky258GazSomiLck3UqnU5OQk/f/BBx988cUXTTdy4403dnd333XXXXErEokECbXl3s6CwiJt/OLFi8ePHz979uzU1NTevXtDodCnn3762WefbdiwgeBARrolhc6i6lUoFMhiguSOjiq5GAETCAQCgYDf73cwfFpyUDNAWaVSyeVzuVwum81mM9lMJpNOpycnJz/88ENEPHPmzNjYmFwD9Hg8GzZsSCaT4XD4jjvuoLvDWCwWDocjkQg1bxtnF7T8hG8BOgv84pxXDL1sVP85eeGfkxdOTE28OjXxW4Cwy60xBrUSRx1b63jajJjcBJ2hJjCRMlwpcbaA2L4ANLCkWT3Fbgr09dm1zdBZZM2G9bAHYS3iVYjdDGN1TeRioLNg2guvzpZXUUQ/RBjOyU/admkaBdvCgZrjwhCig7IVJSuIU+WoNhKtmMYsea0gN5ymdukLdyDFYjGdTudyOVJMEJDRakH3JQu9G/M8FUmlKU7FpnsoRtiIBX4R0Fms39SZpCDeJJ0e5XKZcmfZElrcNdIdIZ0hHivoSRrC0PQ2cQmhs5RB15HoQi59MZ/+n9Tok+NnQa/8G2OagFpgNFGjsbwg47IdT5ndT4NdVlIItlc2brN5rQPl6bHNsmaQ2M00bPtPAO8w3MywF9EP4LHI0biQKsHWWkG2ck/qtlG4aH99BlGW7CAMkoyYhoGKdvzMuf+iAeJlZfpLMOZ/Ki7cocl2zDO8QHZtlYdsyVnIDFtY0Bualo0fkfcu7PW7GFtvGm8Ans6nfypmc4bhZ+gm5TRjsg4FHU25BopFvZk4HfWi3gNsKnUBsPGd0U4akRggM8Iqk2z1GYAG0IXwMeIKxDZEH4BrIT1ClwJeL0RlbSH2Sr5mREGQ8jtRsXFcUfJlvByVeMsFrxf5s53ZxZT+FzV9cYYIWYrjfFj8ZVtr4acg9j7o9gbdXg4Qcmmay/UnvQy8eL9FQCaM5LJdpy0xlUCzgTBnf5ljkqxj4CzKXs82UMZpxoRbb+H2HZJPt1rWjPAqwPuI6xh2IgYA3JKkEBfrnHPYOi/ChdcqEdTCXXsOZ/fZ5DWNZvC/rO/akro9uqIL/7K7vZifcNMJsE13YzY70/j2RTiEBRzdF3R7u4KxdZzvQdfPhcyFYi6nV5CbDEBDl4Zo1hFNVoI4+NDQpLQgJbuNs1fsCDmbh5e5J6AXVQF0gC6AAkAvwD7EFQwTiGRcx385W0eV683z01Af4L/CqdgS6t4ih9by43dk0D7Nk/T4v8v4XjZ00MvA4T7kGoILGQAYzlJCU5Jy/bdcmnEiXsbrtGmUBYnNN9U4IHyGqZ2kPgTgAFWE161n/4a4kWEM0Q/AFjFrVrAyh09jOdZzl9c3u/T3dg7nxlI4NGz5PZRjg0W9mq+WR4tTw1OpnwuZi6VcqlIqA68CuJnLLZGaOZOoFNDEi65ZD1DmLzfpLjZQ7qRnJEadxHG2vhSrjmHyGj0jiBBC6AXsQ+hh2IPoozkpKNYMUGC5BGM5orOKX/zcWApniLawBw/gdWlel+bT3EmPv9sX+kf6wqumCUYFDP1eZB5Ws1jm9YKvrezc4JfkLE1Yzhw2dbecGzvfJU2drU+osgezys0coArwF+v59xAHEVcj+hA8kmZSXeIqVKhYBrmzvC4JelnVNMqGnioXfspnzhSyZ8v5C5VCyTSKpskBOaILmcbqBOeaP5HIbWE6Jty0VDwrU25Cp5OepKWBieYkLRLU+kMAN4AHIAgQRehD7EPsQOxAcFlWdyprVqFCxbJEZ5FBE1LrplE0qulK6ad8+qd85mQpt6NU0+fcz1wBpmnISFrCAbkQE4JU7mDT6EdsKFxXqThKHCjrCYEhUurORP/VBDQBKgCvWUexC2El4gqEdsQ2RHftdqM+LhEUOqtQoWJ5VTYc1ukMgLk0jbk8zAUAPpfm83jB4/ujXs3o1So3DYAKsVVqg6RAqFBkg7o6u0Nq9/E6VKI8ZLZZIcOihlgbMWtFDDR5zTQjiPACQhigDbEToQewEyGMGLCrVFTWrEKFimWZOzdm0BQm5xVTLxn6ZLWUqpRHi7mzpdz5auk/qmXg5u8AGTIvY250aYy5WN0rg5wxeIPC0Fa7sM8VRFvWXNPCiBIHBwaIOv3j+FeAfwcIACQRuhh2IXYhJBGDANQAdC2YvZEKFSpULDY6C4x2ONZzgJJRLRn6+VL+Yik/Wik+VCmCoYNp/p5kBQi8NlbKwlOg0a526kUTUofNQKNu0CHN5OYSXgtcZwBhgBhCB2IXYgdCAjFs/UrhsgoVKn6d6Gx7CAAABjdNzouGXjT0tF6eqJQnquXxSimlVzKmnjWNPOclzjkyROayOocuZAwZqyfCUvcPbFw6LrkgmYgcmYloIjOtX2mIbsQwYAgxihgBSCK0IUYQwoB+BC+ANp3Zs0JnFSpU/ArQ2VbcaMijAaBk6AWjmqqUxyvFS9XyhF591KiCaYA1RuH3AGB18aCpWZKtoIFWC5E1mIvWXrPLAu43EOOACYQ4YgIhDujHGpFZ3m1UcKxChYpfPTo3/srgps552TCKpl4wjYJh5Aw9bVSzhp4z9Jypl0xe4rwMvAQQBzyHaAAYiAYiB8aRkX+/qDIzQBdzuZC5EJOIGmMlZF5kXmQ+xvyIQWQRxAjDMGAYwQvoA/AieAFcVMpoYKIrdFahQsWvE51nqHU4QJyQOmdUp4xqWq9k9OqUaeZMI8fNbdy0Q6UYXcjANoSFAaPKRq3WDMj2IAsywmUWRowxjCL6APyNljp2RFa4rEKFCoXONX60AbximhVulk2jbJoVziucl7hZ5maZ8yqHMvAy51UAg+b7Sdo/4mp4kLkZ8yB6kHkQvYheQPrBA+hB8CJ6ATTiFUqC7CYfkzpTVKhQ8S+CzrMHa4GOCFg1TZ2bVc51ziucl62f63MvEIGI0hYou5F5ANyIRIlzzWCJovJlFSpUKHSeGzobnJucm8BNDgZwnXMTwOTctKMzsTdcgAzBBegCcNVY07VfwSz8MRQ6q1ChQqFzkxzWPgW9hs6t2XIzCFZYrEKFiiUV2pLdM5yx+NDk0azTX+Utp0KFCoXOC55izw3lVbKsQoUKhc5zzZov53uNlwNohcsqVKhQ6PyL4rgKFSpUKHReSnCswFmFChW/2mDqI1ChQoUKhc4qVKhQoUKhswoVKlQs2/h/v4p2VlkLGjAAAAAASUVORK5CYII=;" parent="ENogYHpUZDeIYP6TP7af-1" vertex="1">
          <mxGeometry x="865" y="620" width="109.7" height="30" as="geometry" />
        </mxCell>
        <UserObject label="&lt;font color=&quot;#000000&quot;&gt;OC-P3&amp;nbsp; -&amp;nbsp; EL-WALID EL-KHABOU&amp;nbsp; -&amp;nbsp; 20-04-2023&lt;/font&gt;" placeholders="1" name="Variable" id="ENogYHpUZDeIYP6TP7af-7">
          <mxCell style="text;html=1;strokeColor=none;fillColor=none;align=center;verticalAlign=middle;whiteSpace=wrap;overflow=hidden;fontStyle=1;fontSize=17;fontColor=#FF1B0A;" parent="ENogYHpUZDeIYP6TP7af-1" vertex="1">
            <mxGeometry x="10" y="618" width="400" height="32" as="geometry" />
          </mxCell>
        </UserObject>
        <UserObject label="Calendrier" placeholders="1" name="Variable" id="Gp0EjjoeQdXMeb0q8UCC-39">
          <mxCell style="text;html=1;strokeColor=none;fillColor=none;align=center;verticalAlign=middle;whiteSpace=wrap;overflow=hidden;fontStyle=1;fontSize=22;fontColor=#FF1B0A;" parent="ENogYHpUZDeIYP6TP7af-1" vertex="1">
            <mxGeometry x="410" y="70" width="230" height="80" as="geometry" />
          </mxCell>
        </UserObject>
        <mxCell id="Gp0EjjoeQdXMeb0q8UCC-35" style="edgeStyle=none;rounded=0;orthogonalLoop=1;jettySize=auto;html=1;" parent="ENogYHpUZDeIYP6TP7af-1" edge="1">
          <mxGeometry relative="1" as="geometry">
            <mxPoint x="519" y="290" as="targetPoint" />
            <mxPoint x="519" y="290" as="sourcePoint" />
          </mxGeometry>
        </mxCell>
        <mxCell id="qDKgN5nRYXxBI4UWaLl7-2" value="Gérer mon agenda" style="ellipse;whiteSpace=wrap;html=1;" parent="ENogYHpUZDeIYP6TP7af-1" vertex="1">
          <mxGeometry x="308" y="264" width="120" height="80" as="geometry" />
        </mxCell>
        <mxCell id="qDKgN5nRYXxBI4UWaLl7-3" value="&lt;div&gt;Créer un évènement&lt;/div&gt;&lt;div&gt;ou rendez vous&lt;/div&gt;" style="ellipse;whiteSpace=wrap;html=1;" parent="ENogYHpUZDeIYP6TP7af-1" vertex="1">
          <mxGeometry x="648" y="148" width="120" height="80" as="geometry" />
        </mxCell>
        <mxCell id="qDKgN5nRYXxBI4UWaLl7-4" value="&lt;div&gt;Supprimer un évènement&lt;/div&gt;&lt;div&gt;ou rendez vous&lt;/div&gt;" style="ellipse;whiteSpace=wrap;html=1;" parent="ENogYHpUZDeIYP6TP7af-1" vertex="1">
          <mxGeometry x="648" y="262" width="120" height="80" as="geometry" />
        </mxCell>
        <mxCell id="qDKgN5nRYXxBI4UWaLl7-5" value="Visualiser un rendez vous" style="ellipse;whiteSpace=wrap;html=1;" parent="ENogYHpUZDeIYP6TP7af-1" vertex="1">
          <mxGeometry x="648" y="372" width="120" height="80" as="geometry" />
        </mxCell>
        <mxCell id="zoAapEOi1wAQbhEQityE-1" value="&amp;nbsp;Extend&amp;nbsp;" style="endArrow=classic;endSize=12;dashed=1;html=1;rounded=0;endFill=1;strokeWidth=1;exitX=0;exitY=0.5;exitDx=0;exitDy=0;entryX=1;entryY=0.5;entryDx=0;entryDy=0;" parent="ENogYHpUZDeIYP6TP7af-1" source="qDKgN5nRYXxBI4UWaLl7-4" edge="1" target="qDKgN5nRYXxBI4UWaLl7-2">
          <mxGeometry width="160" relative="1" as="geometry">
            <mxPoint x="649" y="288.71" as="sourcePoint" />
            <mxPoint x="528" y="289" as="targetPoint" />
          </mxGeometry>
        </mxCell>
        <mxCell id="zoAapEOi1wAQbhEQityE-2" value="&amp;nbsp;Extend&amp;nbsp;" style="endArrow=classic;endSize=12;dashed=1;html=1;rounded=0;endFill=1;strokeWidth=1;exitX=0.017;exitY=0.382;exitDx=0;exitDy=0;entryX=0.964;entryY=0.682;entryDx=0;entryDy=0;entryPerimeter=0;exitPerimeter=0;" parent="ENogYHpUZDeIYP6TP7af-1" source="qDKgN5nRYXxBI4UWaLl7-5" edge="1" target="qDKgN5nRYXxBI4UWaLl7-2">
          <mxGeometry width="160" relative="1" as="geometry">
            <mxPoint x="638" y="468.71000000000004" as="sourcePoint" />
            <mxPoint x="519" y="311" as="targetPoint" />
          </mxGeometry>
        </mxCell>
        <mxCell id="zoAapEOi1wAQbhEQityE-5" value="&amp;nbsp;Extend&amp;nbsp;" style="endArrow=classic;endSize=12;dashed=1;html=1;rounded=0;endFill=1;strokeWidth=1;exitX=0.007;exitY=0.602;exitDx=0;exitDy=0;entryX=0.96;entryY=0.296;entryDx=0;entryDy=0;entryPerimeter=0;exitPerimeter=0;" parent="ENogYHpUZDeIYP6TP7af-1" edge="1" target="qDKgN5nRYXxBI4UWaLl7-2" source="qDKgN5nRYXxBI4UWaLl7-3">
          <mxGeometry width="160" relative="1" as="geometry">
            <mxPoint x="647.0899999999999" y="149" as="sourcePoint" />
            <mxPoint x="519.1700000000001" y="267.4" as="targetPoint" />
          </mxGeometry>
        </mxCell>
        <mxCell id="ENogYHpUZDeIYP6TP7af-8" value="&lt;div style=&quot;border-color: var(--border-color);&quot;&gt;Donner un&amp;nbsp;&lt;/div&gt;&lt;div style=&quot;border-color: var(--border-color);&quot;&gt;rendez-vous&lt;/div&gt;" style="ellipse;whiteSpace=wrap;html=1;" parent="ENogYHpUZDeIYP6TP7af-1" vertex="1">
          <mxGeometry x="308" y="446" width="120" height="80" as="geometry" />
        </mxCell>
        <mxCell id="ENogYHpUZDeIYP6TP7af-18" value="&amp;nbsp;Include&amp;nbsp;" style="endArrow=classic;endSize=12;dashed=1;html=1;rounded=0;endFill=1;strokeWidth=1;exitX=0.992;exitY=0.338;exitDx=0;exitDy=0;entryX=0.017;entryY=0.613;entryDx=0;entryDy=0;exitPerimeter=0;entryPerimeter=0;" parent="ENogYHpUZDeIYP6TP7af-1" source="ENogYHpUZDeIYP6TP7af-8" target="qDKgN5nRYXxBI4UWaLl7-5" edge="1">
          <mxGeometry width="160" relative="1" as="geometry">
            <mxPoint x="427" y="366" as="sourcePoint" />
            <mxPoint x="517" y="365" as="targetPoint" />
          </mxGeometry>
        </mxCell>
        <mxCell id="Gp0EjjoeQdXMeb0q8UCC-1" value="éléve" style="shape=umlActor;verticalLabelPosition=bottom;verticalAlign=top;html=1;outlineConnect=0;" parent="1" vertex="1">
          <mxGeometry x="187" y="356" width="30" height="60" as="geometry" />
        </mxCell>
        <mxCell id="Gp0EjjoeQdXMeb0q8UCC-2" value="tuteur" style="shape=umlActor;verticalLabelPosition=bottom;verticalAlign=top;html=1;outlineConnect=0;" parent="1" vertex="1">
          <mxGeometry x="187" y="530" width="31" height="60" as="geometry" />
        </mxCell>
        <mxCell id="njb0YFENV4Bz7XCS8Mx4-2" value="" style="endArrow=none;html=1;rounded=0;entryX=0;entryY=0.5;entryDx=0;entryDy=0;exitX=0.5;exitY=0.5;exitDx=0;exitDy=0;exitPerimeter=0;" edge="1" parent="1" source="Gp0EjjoeQdXMeb0q8UCC-1" target="qDKgN5nRYXxBI4UWaLl7-2">
          <mxGeometry width="50" height="50" relative="1" as="geometry">
            <mxPoint x="528" y="470" as="sourcePoint" />
            <mxPoint x="578" y="420" as="targetPoint" />
          </mxGeometry>
        </mxCell>
        <mxCell id="njb0YFENV4Bz7XCS8Mx4-3" value="" style="endArrow=none;html=1;rounded=0;entryX=0;entryY=0.5;entryDx=0;entryDy=0;exitX=0.5;exitY=0.5;exitDx=0;exitDy=0;exitPerimeter=0;" edge="1" parent="1">
          <mxGeometry width="50" height="50" relative="1" as="geometry">
            <mxPoint x="202" y="565" as="sourcePoint" />
            <mxPoint x="388" y="565" as="targetPoint" />
          </mxGeometry>
        </mxCell>
      </root>
    </mxGraphModel>
  </diagram>
</mxfile>
